<?xml version="1.0" encoding="utf-8" standalone="no"?>
<!DOCTYPE svg PUBLIC "-//W3C//DTD SVG 1.1//EN"
  "http://www.w3.org/Graphics/SVG/1.1/DTD/svg11.dtd">
<svg xmlns:xlink="http://www.w3.org/1999/xlink" width="460.8pt" height="345.6pt" viewBox="0 0 460.8 345.6" xmlns="http://www.w3.org/2000/svg" version="1.1">
 <metadata>
  <rdf:RDF xmlns:dc="http://purl.org/dc/elements/1.1/" xmlns:cc="http://creativecommons.org/ns#" xmlns:rdf="http://www.w3.org/1999/02/22-rdf-syntax-ns#">
   <cc:Work>
    <dc:type rdf:resource="http://purl.org/dc/dcmitype/StillImage"/>
    <dc:date>2024-02-01T00:10:44.454699</dc:date>
    <dc:format>image/svg+xml</dc:format>
    <dc:creator>
     <cc:Agent>
      <dc:title>Matplotlib v3.8.2, https://matplotlib.org/</dc:title>
     </cc:Agent>
    </dc:creator>
   </cc:Work>
  </rdf:RDF>
 </metadata>
 <defs>
  <style type="text/css">*{stroke-linejoin: round; stroke-linecap: butt}</style>
 </defs>
 <g id="figure_1">
  <g id="patch_1">
   <path d="M 0 345.6 
L 460.8 345.6 
L 460.8 0 
L 0 0 
z
" style="fill: #ffffff"/>
  </g>
  <g id="axes_1">
   <g id="patch_2">
    <path d="M 56.585 303.64 
L 437.792727 303.64 
L 437.792727 10.8 
L 56.585 10.8 
z
" style="fill: #ffffff"/>
   </g>
   <g id="PolyCollection_1">
    <defs>
     <path id="mba882de325" d="M 73.912624 -127.054711 
L 73.912624 -118.934214 
L 77.413154 -119.546429 
L 80.913684 -120.135974 
L 84.414214 -120.702627 
L 87.914744 -121.246167 
L 91.415274 -121.766373 
L 94.915805 -122.263022 
L 98.416335 -122.735893 
L 101.916865 -123.184765 
L 105.417395 -123.609415 
L 108.917925 -124.009622 
L 112.418455 -124.385165 
L 115.918985 -124.735822 
L 119.419515 -125.06137 
L 122.920045 -125.36159 
L 126.420575 -125.636258 
L 129.921105 -125.885153 
L 133.421636 -126.108054 
L 136.922166 -126.304739 
L 140.422696 -126.474987 
L 143.923226 -126.618575 
L 147.423756 -126.735282 
L 150.924286 -126.824887 
L 154.424816 -126.887168 
L 157.925346 -126.921902 
L 161.425876 -126.928558 
L 164.926406 -126.900609 
L 168.426937 -126.836949 
L 171.927467 -126.739471 
L 175.427997 -126.610071 
L 178.928527 -126.450643 
L 182.429057 -126.263083 
L 185.929587 -126.049284 
L 189.430117 -125.811143 
L 192.930647 -125.550554 
L 196.431177 -125.269411 
L 199.931707 -124.969609 
L 203.432237 -124.653044 
L 206.932768 -124.32161 
L 210.433298 -123.977203 
L 213.933828 -123.621715 
L 217.434358 -123.257044 
L 220.934888 -122.885083 
L 224.435418 -122.507727 
L 227.935948 -122.126872 
L 231.436478 -121.744412 
L 234.937008 -121.362241 
L 238.437538 -120.982255 
L 241.938068 -120.606349 
L 245.438599 -120.236416 
L 248.939129 -119.872281 
L 252.439659 -119.502449 
L 255.940189 -119.124295 
L 259.440719 -118.737162 
L 262.941249 -118.340394 
L 266.441779 -117.933332 
L 269.942309 -117.515319 
L 273.442839 -117.085697 
L 276.943369 -116.64381 
L 280.4439 -116.188998 
L 283.94443 -115.720606 
L 287.44496 -115.237975 
L 290.94549 -114.740447 
L 294.44602 -114.227366 
L 297.94655 -113.698074 
L 301.44708 -113.151913 
L 304.94761 -112.588226 
L 308.44814 -112.006355 
L 311.94867 -111.405643 
L 315.4492 -110.785433 
L 318.949731 -110.145066 
L 322.450261 -109.483885 
L 325.950791 -108.801233 
L 329.451321 -108.096452 
L 332.951851 -107.368884 
L 336.452381 -106.607861 
L 339.952911 -105.789442 
L 343.453441 -104.914172 
L 346.953971 -103.983732 
L 350.454501 -102.999804 
L 353.955032 -101.964069 
L 357.455562 -100.878207 
L 360.956092 -99.7439 
L 364.456622 -98.56283 
L 367.957152 -97.336677 
L 371.457682 -96.067122 
L 374.958212 -94.755847 
L 378.458742 -93.404533 
L 381.959272 -92.014861 
L 385.459802 -90.588513 
L 388.960332 -89.127169 
L 392.460863 -87.63251 
L 395.961393 -86.106218 
L 399.461923 -84.549975 
L 402.962453 -82.96546 
L 406.462983 -81.354356 
L 409.963513 -79.718343 
L 413.464043 -78.059103 
L 416.964573 -76.378317 
L 420.465103 -74.677666 
L 420.465103 -87.269937 
L 420.465103 -87.269937 
L 416.964573 -88.424772 
L 413.464043 -89.576529 
L 409.963513 -90.725195 
L 406.462983 -91.870756 
L 402.962453 -93.013196 
L 399.461923 -94.152502 
L 395.961393 -95.288661 
L 392.460863 -96.421658 
L 388.960332 -97.551478 
L 385.459802 -98.678108 
L 381.959272 -99.801534 
L 378.458742 -100.921742 
L 374.958212 -102.038718 
L 371.457682 -103.152447 
L 367.957152 -104.262915 
L 364.456622 -105.370109 
L 360.956092 -106.474014 
L 357.455562 -107.574617 
L 353.955032 -108.671902 
L 350.454501 -109.765857 
L 346.953971 -110.856467 
L 343.453441 -111.943717 
L 339.952911 -113.027595 
L 336.452381 -114.108086 
L 332.951851 -115.187687 
L 329.451321 -116.319093 
L 325.950791 -117.516029 
L 322.450261 -118.768696 
L 318.949731 -120.067294 
L 315.4492 -121.402024 
L 311.94867 -122.763088 
L 308.44814 -124.140686 
L 304.94761 -125.52502 
L 301.44708 -126.90629 
L 297.94655 -128.274698 
L 294.44602 -129.620444 
L 290.94549 -130.93373 
L 287.44496 -132.204756 
L 283.94443 -133.423724 
L 280.4439 -134.580834 
L 276.943369 -135.666288 
L 273.442839 -136.670287 
L 269.942309 -137.583031 
L 266.441779 -138.394722 
L 262.941249 -139.09556 
L 259.440719 -139.675747 
L 255.940189 -140.125484 
L 252.439659 -140.434971 
L 248.939129 -140.59441 
L 245.438599 -140.611652 
L 241.938068 -140.586938 
L 238.437538 -140.538706 
L 234.937008 -140.468204 
L 231.436478 -140.376679 
L 227.935948 -140.26538 
L 224.435418 -140.135554 
L 220.934888 -139.988449 
L 217.434358 -139.825312 
L 213.933828 -139.647391 
L 210.433298 -139.455935 
L 206.932768 -139.252191 
L 203.432237 -139.037406 
L 199.931707 -138.812829 
L 196.431177 -138.579706 
L 192.930647 -138.339287 
L 189.430117 -138.092819 
L 185.929587 -137.841549 
L 182.429057 -137.586725 
L 178.928527 -137.329596 
L 175.427997 -137.071408 
L 171.927467 -136.81341 
L 168.426937 -136.556849 
L 164.926406 -136.302973 
L 161.425876 -136.05303 
L 157.925346 -135.803414 
L 154.424816 -135.543011 
L 150.924286 -135.271562 
L 147.423756 -134.98934 
L 143.923226 -134.696616 
L 140.422696 -134.393661 
L 136.922166 -134.080746 
L 133.421636 -133.758144 
L 129.921105 -133.426125 
L 126.420575 -133.084961 
L 122.920045 -132.734924 
L 119.419515 -132.376285 
L 115.918985 -132.009315 
L 112.418455 -131.634287 
L 108.917925 -131.25147 
L 105.417395 -130.861138 
L 101.916865 -130.463561 
L 98.416335 -130.05901 
L 94.915805 -129.647758 
L 91.415274 -129.230076 
L 87.914744 -128.806235 
L 84.414214 -128.376506 
L 80.913684 -127.941162 
L 77.413154 -127.500473 
L 73.912624 -127.054711 
z
" style="stroke: #fb6207"/>
    </defs>
    <g clip-path="url(#pbf26d461f4)">
     <use xlink:href="#mba882de325" x="0" y="345.6" style="fill: #fb6207; stroke: #fb6207"/>
    </g>
   </g>
   <g id="PolyCollection_2">
    <defs>
     <path id="mdfb7eb10c1" d="M 73.912624 -136.015259 
L 73.912624 -127.054711 
L 77.413154 -127.500473 
L 80.913684 -127.941162 
L 84.414214 -128.376506 
L 87.914744 -128.806235 
L 91.415274 -129.230076 
L 94.915805 -129.647758 
L 98.416335 -130.05901 
L 101.916865 -130.463561 
L 105.417395 -130.861138 
L 108.917925 -131.25147 
L 112.418455 -131.634287 
L 115.918985 -132.009315 
L 119.419515 -132.376285 
L 122.920045 -132.734924 
L 126.420575 -133.084961 
L 129.921105 -133.426125 
L 133.421636 -133.758144 
L 136.922166 -134.080746 
L 140.422696 -134.393661 
L 143.923226 -134.696616 
L 147.423756 -134.98934 
L 150.924286 -135.271562 
L 154.424816 -135.543011 
L 157.925346 -135.803414 
L 161.425876 -136.05303 
L 164.926406 -136.302973 
L 168.426937 -136.556849 
L 171.927467 -136.81341 
L 175.427997 -137.071408 
L 178.928527 -137.329596 
L 182.429057 -137.586725 
L 185.929587 -137.841549 
L 189.430117 -138.092819 
L 192.930647 -138.339287 
L 196.431177 -138.579706 
L 199.931707 -138.812829 
L 203.432237 -139.037406 
L 206.932768 -139.252191 
L 210.433298 -139.455935 
L 213.933828 -139.647391 
L 217.434358 -139.825312 
L 220.934888 -139.988449 
L 224.435418 -140.135554 
L 227.935948 -140.26538 
L 231.436478 -140.376679 
L 234.937008 -140.468204 
L 238.437538 -140.538706 
L 241.938068 -140.586938 
L 245.438599 -140.611652 
L 248.939129 -140.614456 
L 252.439659 -140.611718 
L 255.940189 -140.606265 
L 259.440719 -140.598122 
L 262.941249 -140.587311 
L 266.441779 -140.573859 
L 269.942309 -140.557788 
L 273.442839 -140.539124 
L 276.943369 -140.517889 
L 280.4439 -140.494109 
L 283.94443 -140.467807 
L 287.44496 -140.439007 
L 290.94549 -140.407735 
L 294.44602 -140.374013 
L 297.94655 -140.337867 
L 301.44708 -140.299319 
L 304.94761 -140.258395 
L 308.44814 -140.215119 
L 311.94867 -140.169514 
L 315.4492 -140.121605 
L 318.949731 -140.071416 
L 322.450261 -140.018971 
L 325.950791 -139.964295 
L 329.451321 -139.907411 
L 332.951851 -139.848344 
L 336.452381 -139.763869 
L 339.952911 -139.598887 
L 343.453441 -139.354144 
L 346.953971 -139.033008 
L 350.454501 -138.638842 
L 353.955032 -138.175014 
L 357.455562 -137.644887 
L 360.956092 -137.051829 
L 364.456622 -136.399204 
L 367.957152 -135.690377 
L 371.457682 -134.928715 
L 374.958212 -134.117583 
L 378.458742 -133.260347 
L 381.959272 -132.360372 
L 385.459802 -131.421023 
L 388.960332 -130.445666 
L 392.460863 -129.437667 
L 395.961393 -128.400392 
L 399.461923 -127.337205 
L 402.962453 -126.251472 
L 406.462983 -125.146559 
L 409.963513 -124.025832 
L 413.464043 -122.892655 
L 416.964573 -121.750395 
L 420.465103 -120.602417 
L 420.465103 -139.676003 
L 420.465103 -139.676003 
L 416.964573 -139.989829 
L 413.464043 -140.31089 
L 409.963513 -140.639059 
L 406.462983 -140.974208 
L 402.962453 -141.316208 
L 399.461923 -141.664932 
L 395.961393 -142.020252 
L 392.460863 -142.382039 
L 388.960332 -142.750166 
L 385.459802 -143.124505 
L 381.959272 -143.504927 
L 378.458742 -143.891306 
L 374.958212 -144.283512 
L 371.457682 -144.681417 
L 367.957152 -145.084894 
L 364.456622 -145.493816 
L 360.956092 -145.908052 
L 357.455562 -146.327477 
L 353.955032 -146.751961 
L 350.454501 -147.181377 
L 346.953971 -147.615597 
L 343.453441 -148.054493 
L 339.952911 -148.497937 
L 336.452381 -148.9458 
L 332.951851 -149.399643 
L 329.451321 -149.894882 
L 325.950791 -150.441055 
L 322.450261 -151.031937 
L 318.949731 -151.661305 
L 315.4492 -152.322933 
L 311.94867 -153.010598 
L 308.44814 -153.718075 
L 304.94761 -154.439141 
L 301.44708 -155.16757 
L 297.94655 -155.897138 
L 294.44602 -156.621621 
L 290.94549 -157.334795 
L 287.44496 -158.030435 
L 283.94443 -158.702317 
L 280.4439 -159.344217 
L 276.943369 -159.949911 
L 273.442839 -160.513174 
L 269.942309 -161.027781 
L 266.441779 -161.487509 
L 262.941249 -161.886133 
L 259.440719 -162.21743 
L 255.940189 -162.475173 
L 252.439659 -162.65314 
L 248.939129 -162.745106 
L 245.438599 -162.741116 
L 241.938068 -162.618153 
L 238.437538 -162.380558 
L 234.937008 -162.037024 
L 231.436478 -161.596244 
L 227.935948 -161.066911 
L 224.435418 -160.457718 
L 220.934888 -159.777358 
L 217.434358 -159.034525 
L 213.933828 -158.23791 
L 210.433298 -157.396208 
L 206.932768 -156.518111 
L 203.432237 -155.612313 
L 199.931707 -154.687505 
L 196.431177 -153.752383 
L 192.930647 -152.815637 
L 189.430117 -151.885962 
L 185.929587 -150.972051 
L 182.429057 -150.082596 
L 178.928527 -149.226291 
L 175.427997 -148.411828 
L 171.927467 -147.647901 
L 168.426937 -146.943203 
L 164.926406 -146.306427 
L 161.425876 -145.746265 
L 157.925346 -145.247736 
L 154.424816 -144.757435 
L 150.924286 -144.273238 
L 147.423756 -143.795565 
L 143.923226 -143.324836 
L 140.422696 -142.861471 
L 136.922166 -142.40589 
L 133.421636 -141.958513 
L 129.921105 -141.51976 
L 126.420575 -141.09005 
L 122.920045 -140.669805 
L 119.419515 -140.259443 
L 115.918985 -139.859385 
L 112.418455 -139.470051 
L 108.917925 -139.09186 
L 105.417395 -138.725234 
L 101.916865 -138.370591 
L 98.416335 -138.028352 
L 94.915805 -137.698936 
L 91.415274 -137.382764 
L 87.914744 -137.080256 
L 84.414214 -136.791831 
L 80.913684 -136.51791 
L 77.413154 -136.258913 
L 73.912624 -136.015259 
z
" style="stroke: #fba981"/>
    </defs>
    <g clip-path="url(#pbf26d461f4)">
     <use xlink:href="#mdfb7eb10c1" x="0" y="345.6" style="fill: #fba981; stroke: #fba981"/>
    </g>
   </g>
   <g id="PolyCollection_3">
    <defs>
     <path id="m1867cccd40" d="M 73.912624 -144.975807 
L 73.912624 -136.015259 
L 77.413154 -135.479579 
L 80.913684 -134.936102 
L 84.414214 -134.384932 
L 87.914744 -133.826176 
L 91.415274 -133.259938 
L 94.915805 -132.686324 
L 98.416335 -132.105438 
L 101.916865 -131.517386 
L 105.417395 -130.922273 
L 108.917925 -130.320204 
L 112.418455 -129.711284 
L 115.918985 -129.095619 
L 119.419515 -128.473313 
L 122.920045 -127.844472 
L 126.420575 -127.209201 
L 129.921105 -126.567605 
L 133.421636 -125.919789 
L 136.922166 -125.265859 
L 140.422696 -124.60592 
L 143.923226 -123.940076 
L 147.423756 -123.268433 
L 150.924286 -122.591096 
L 154.424816 -121.90817 
L 157.925346 -121.219761 
L 161.425876 -120.523666 
L 164.926406 -119.771454 
L 168.426937 -118.950269 
L 171.927467 -118.068836 
L 175.427997 -117.135878 
L 178.928527 -116.160121 
L 182.429057 -115.150288 
L 185.929587 -114.115104 
L 189.430117 -113.063293 
L 192.930647 -112.00358 
L 196.431177 -110.944688 
L 199.931707 -109.895343 
L 203.432237 -108.864269 
L 206.932768 -107.86019 
L 210.433298 -106.891831 
L 213.933828 -105.967915 
L 217.434358 -105.097167 
L 220.934888 -104.288313 
L 224.435418 -103.550075 
L 227.935948 -102.891178 
L 231.436478 -102.320347 
L 234.937008 -101.846307 
L 238.437538 -101.477781 
L 241.938068 -101.223493 
L 245.438599 -101.092169 
L 248.939129 -101.133575 
L 252.439659 -101.585111 
L 255.940189 -102.451615 
L 259.440719 -103.69493 
L 262.941249 -105.276896 
L 266.441779 -107.159356 
L 269.942309 -109.304152 
L 273.442839 -111.673127 
L 276.943369 -114.228121 
L 280.4439 -116.930978 
L 283.94443 -119.743539 
L 287.44496 -122.627646 
L 290.94549 -125.545141 
L 294.44602 -128.457867 
L 297.94655 -131.327665 
L 301.44708 -134.116377 
L 304.94761 -136.785846 
L 308.44814 -139.297912 
L 311.94867 -141.61442 
L 315.4492 -143.697209 
L 318.949731 -145.508123 
L 322.450261 -147.009004 
L 325.950791 -148.161693 
L 329.451321 -148.928032 
L 332.951851 -149.269864 
L 336.452381 -149.187341 
L 339.952911 -148.759352 
L 343.453441 -147.997354 
L 346.953971 -146.909026 
L 350.454501 -145.502045 
L 353.955032 -143.784092 
L 357.455562 -141.762844 
L 360.956092 -139.44598 
L 364.456622 -136.841178 
L 367.957152 -133.956118 
L 371.457682 -130.798477 
L 374.958212 -127.375934 
L 378.458742 -123.696169 
L 381.959272 -119.766858 
L 385.459802 -115.595682 
L 388.960332 -111.190318 
L 392.460863 -106.558446 
L 395.961393 -101.707743 
L 399.461923 -96.645889 
L 402.962453 -91.380561 
L 406.462983 -85.919439 
L 409.963513 -80.270201 
L 413.464043 -74.440525 
L 416.964573 -68.438091 
L 420.465103 -62.270576 
L 420.465103 -74.677666 
L 420.465103 -74.677666 
L 416.964573 -80.624957 
L 413.464043 -86.431363 
L 409.963513 -92.087907 
L 406.462983 -97.585609 
L 402.962453 -102.915491 
L 399.461923 -108.068573 
L 395.961393 -113.035876 
L 392.460863 -117.808422 
L 388.960332 -122.377231 
L 385.459802 -126.733324 
L 381.959272 -130.867723 
L 378.458742 -134.771448 
L 374.958212 -138.43552 
L 371.457682 -141.850961 
L 367.957152 -145.008791 
L 364.456622 -147.900031 
L 360.956092 -150.515703 
L 357.455562 -152.846827 
L 353.955032 -154.884425 
L 350.454501 -156.619517 
L 346.953971 -158.043124 
L 343.453441 -159.146268 
L 339.952911 -159.919969 
L 336.452381 -160.355249 
L 332.951851 -160.441935 
L 329.451321 -160.155475 
L 325.950791 -159.513273 
L 322.450261 -158.547304 
L 318.949731 -157.289546 
L 315.4492 -155.771976 
L 311.94867 -154.02657 
L 308.44814 -152.085306 
L 304.94761 -149.980161 
L 301.44708 -147.74311 
L 297.94655 -145.406132 
L 294.44602 -143.001203 
L 290.94549 -140.5603 
L 287.44496 -138.1154 
L 283.94443 -135.69848 
L 280.4439 -133.341516 
L 276.943369 -131.076486 
L 273.442839 -128.935366 
L 269.942309 -126.950134 
L 266.441779 -125.152766 
L 262.941249 -123.575239 
L 259.440719 -122.24953 
L 255.940189 -121.207616 
L 252.439659 -120.481474 
L 248.939129 -120.103081 
L 245.438599 -120.058606 
L 241.938068 -120.092627 
L 238.437538 -120.159231 
L 234.937008 -120.256915 
L 231.436478 -120.384179 
L 227.935948 -120.539522 
L 224.435418 -120.721441 
L 220.934888 -120.928436 
L 217.434358 -121.159005 
L 213.933828 -121.411647 
L 210.433298 -121.684861 
L 206.932768 -121.977145 
L 203.432237 -122.286997 
L 199.931707 -122.612917 
L 196.431177 -122.953403 
L 192.930647 -123.306953 
L 189.430117 -123.672067 
L 185.929587 -124.047243 
L 182.429057 -124.43098 
L 178.928527 -124.821776 
L 175.427997 -125.218129 
L 171.927467 -125.61854 
L 168.426937 -126.021505 
L 164.926406 -126.425524 
L 161.425876 -126.829096 
L 157.925346 -127.241135 
L 154.424816 -127.685863 
L 150.924286 -128.16344 
L 147.423756 -128.672876 
L 143.923226 -129.213181 
L 140.422696 -129.783363 
L 136.922166 -130.382431 
L 133.421636 -131.009396 
L 129.921105 -131.663266 
L 126.420575 -132.34305 
L 122.920045 -133.047757 
L 119.419515 -133.776398 
L 115.918985 -134.52798 
L 112.418455 -135.301514 
L 108.917925 -136.096008 
L 105.417395 -136.910472 
L 101.916865 -137.743915 
L 98.416335 -138.595346 
L 94.915805 -139.463774 
L 91.415274 -140.348209 
L 87.914744 -141.24766 
L 84.414214 -142.161136 
L 80.913684 -143.087646 
L 77.413154 -144.0262 
L 73.912624 -144.975807 
z
" style="stroke: #ca0203"/>
    </defs>
    <g clip-path="url(#pbf26d461f4)">
     <use xlink:href="#m1867cccd40" x="0" y="345.6" style="fill: #ca0203; stroke: #ca0203"/>
    </g>
   </g>
   <g id="PolyCollection_4">
    <defs>
     <path id="m09a79e66e7" d="M 73.912624 -154.216372 
L 73.912624 -144.975807 
L 77.413154 -149.664519 
L 80.913684 -153.97456 
L 84.414214 -157.921875 
L 87.914744 -161.522406 
L 91.415274 -164.792098 
L 94.915805 -167.746895 
L 98.416335 -170.402742 
L 101.916865 -172.775581 
L 105.417395 -174.881358 
L 108.917925 -176.736016 
L 112.418455 -178.3555 
L 115.918985 -179.755752 
L 119.419515 -180.952718 
L 122.920045 -181.962342 
L 126.420575 -182.800567 
L 129.921105 -183.483338 
L 133.421636 -184.026598 
L 136.922166 -184.446292 
L 140.422696 -184.758363 
L 143.923226 -184.978756 
L 147.423756 -185.123415 
L 150.924286 -185.208284 
L 154.424816 -185.249307 
L 157.925346 -185.262427 
L 161.425876 -185.224008 
L 164.926406 -184.301848 
L 168.426937 -182.234493 
L 171.927467 -179.124882 
L 175.427997 -175.075955 
L 178.928527 -170.190649 
L 182.429057 -164.571904 
L 185.929587 -158.322659 
L 189.430117 -151.545852 
L 192.930647 -144.344423 
L 196.431177 -136.82131 
L 199.931707 -129.079451 
L 203.432237 -121.221787 
L 206.932768 -113.351255 
L 210.433298 -105.570795 
L 213.933828 -97.983344 
L 217.434358 -90.691844 
L 220.934888 -83.799231 
L 224.435418 -77.408445 
L 227.935948 -71.622424 
L 231.436478 -66.544108 
L 234.937008 -62.276436 
L 238.437538 -58.922345 
L 241.938068 -56.584776 
L 245.438599 -55.366666 
L 248.939129 -55.270909 
L 252.439659 -55.749147 
L 255.940189 -56.673889 
L 259.440719 -58.012022 
L 262.941249 -59.730435 
L 266.441779 -61.796014 
L 269.942309 -64.175646 
L 273.442839 -66.836219 
L 276.943369 -69.744621 
L 280.4439 -72.867737 
L 283.94443 -76.172456 
L 287.44496 -79.625665 
L 290.94549 -83.194251 
L 294.44602 -86.845101 
L 297.94655 -90.545103 
L 301.44708 -94.261144 
L 304.94761 -97.96011 
L 308.44814 -101.608891 
L 311.94867 -105.174372 
L 315.4492 -108.62344 
L 318.949731 -111.922984 
L 322.450261 -115.039891 
L 325.950791 -117.941047 
L 329.451321 -120.59334 
L 332.951851 -122.963657 
L 336.452381 -125.105746 
L 339.952911 -127.215153 
L 343.453441 -129.300077 
L 346.953971 -131.3594 
L 350.454501 -133.392006 
L 353.955032 -135.396777 
L 357.455562 -137.372595 
L 360.956092 -139.318342 
L 364.456622 -141.232902 
L 367.957152 -143.115155 
L 371.457682 -144.963986 
L 374.958212 -146.778276 
L 378.458742 -148.556907 
L 381.959272 -150.298763 
L 385.459802 -152.002726 
L 388.960332 -153.667677 
L 392.460863 -155.2925 
L 395.961393 -156.876077 
L 399.461923 -158.41729 
L 402.962453 -159.915022 
L 406.462983 -161.368155 
L 409.963513 -162.775572 
L 413.464043 -164.136155 
L 416.964573 -165.448786 
L 420.465103 -166.712348 
L 420.465103 -194.674596 
L 420.465103 -194.674596 
L 416.964573 -192.80118 
L 413.464043 -190.895217 
L 409.963513 -188.957195 
L 406.462983 -186.987605 
L 402.962453 -184.986936 
L 399.461923 -182.955678 
L 395.961393 -180.894322 
L 392.460863 -178.803356 
L 388.960332 -176.683271 
L 385.459802 -174.534557 
L 381.959272 -172.357703 
L 378.458742 -170.1532 
L 374.958212 -167.921537 
L 371.457682 -165.663204 
L 367.957152 -163.378691 
L 364.456622 -161.068487 
L 360.956092 -158.733084 
L 357.455562 -156.37297 
L 353.955032 -153.988635 
L 350.454501 -151.58057 
L 346.953971 -149.149264 
L 343.453441 -146.695207 
L 339.952911 -144.218888 
L 336.452381 -141.720799 
L 332.951851 -139.192692 
L 329.451321 -136.451285 
L 325.950791 -133.447674 
L 322.450261 -130.214599 
L 318.949731 -126.784796 
L 315.4492 -123.191004 
L 311.94867 -119.46596 
L 308.44814 -115.642403 
L 304.94761 -111.753069 
L 301.44708 -107.830698 
L 297.94655 -103.908026 
L 294.44602 -100.017792 
L 290.94549 -96.192734 
L 287.44496 -92.465588 
L 283.94443 -88.869094 
L 280.4439 -85.435988 
L 276.943369 -82.19901 
L 273.442839 -79.190896 
L 269.942309 -76.444384 
L 266.441779 -73.992212 
L 262.941249 -71.867119 
L 259.440719 -70.101841 
L 255.940189 -68.729117 
L 252.439659 -67.781685 
L 248.939129 -67.292281 
L 245.438599 -67.396084 
L 241.938068 -68.687271 
L 238.437538 -71.165075 
L 234.937008 -74.720383 
L 231.436478 -79.244081 
L 227.935948 -84.627055 
L 224.435418 -90.760189 
L 220.934888 -97.53437 
L 217.434358 -104.840483 
L 213.933828 -112.569414 
L 210.433298 -120.612049 
L 206.932768 -128.859273 
L 203.432237 -137.201973 
L 199.931707 -145.531033 
L 196.431177 -153.737339 
L 192.930647 -161.711777 
L 189.430117 -169.345234 
L 185.929587 -176.528593 
L 182.429057 -183.152742 
L 178.928527 -189.108565 
L 175.427997 -194.286949 
L 171.927467 -198.578779 
L 168.426937 -201.874941 
L 164.926406 -204.066321 
L 161.425876 -205.043803 
L 157.925346 -205.077732 
L 154.424816 -205.033465 
L 150.924286 -204.934993 
L 147.423756 -204.765104 
L 143.923226 -204.506585 
L 140.422696 -204.142223 
L 136.922166 -203.654806 
L 133.421636 -203.027121 
L 129.921105 -202.241956 
L 126.420575 -201.282097 
L 122.920045 -200.130332 
L 119.419515 -198.769448 
L 115.918985 -197.182233 
L 112.418455 -195.351474 
L 108.917925 -193.259957 
L 105.417395 -190.890471 
L 101.916865 -188.225803 
L 98.416335 -185.24874 
L 94.915805 -181.942069 
L 91.415274 -178.288578 
L 87.914744 -174.271054 
L 84.414214 -169.872284 
L 80.913684 -165.075055 
L 77.413154 -159.862155 
L 73.912624 -154.216372 
z
" style="stroke: #ead8da"/>
    </defs>
    <g clip-path="url(#pbf26d461f4)">
     <use xlink:href="#m09a79e66e7" x="0" y="345.6" style="fill: #ead8da; stroke: #ead8da"/>
    </g>
   </g>
   <g id="PolyCollection_5">
    <defs>
     <path id="m381e2abcda" d="M 73.912624 -163.456937 
L 73.912624 -154.216372 
L 77.413154 -154.199675 
L 80.913684 -154.150033 
L 84.414214 -154.068118 
L 87.914744 -153.954602 
L 91.415274 -153.810159 
L 94.915805 -153.635461 
L 98.416335 -153.43118 
L 101.916865 -153.197989 
L 105.417395 -152.936561 
L 108.917925 -152.647567 
L 112.418455 -152.331681 
L 115.918985 -151.989574 
L 119.419515 -151.621921 
L 122.920045 -151.229392 
L 126.420575 -150.812661 
L 129.921105 -150.3724 
L 133.421636 -149.909281 
L 136.922166 -149.423978 
L 140.422696 -148.917162 
L 143.923226 -148.389507 
L 147.423756 -147.841684 
L 150.924286 -147.274367 
L 154.424816 -146.688227 
L 157.925346 -146.083938 
L 161.425876 -145.442013 
L 164.926406 -144.334031 
L 168.426937 -142.629302 
L 171.927467 -140.38374 
L 175.427997 -137.653259 
L 178.928527 -134.493774 
L 182.429057 -130.961197 
L 185.929587 -127.111443 
L 189.430117 -123.000426 
L 192.930647 -118.684059 
L 196.431177 -114.218256 
L 199.931707 -109.658932 
L 203.432237 -105.062 
L 206.932768 -100.483374 
L 210.433298 -95.978968 
L 213.933828 -91.604696 
L 217.434358 -87.416472 
L 220.934888 -83.470209 
L 224.435418 -79.821822 
L 227.935948 -76.527224 
L 231.436478 -73.642329 
L 234.937008 -71.223051 
L 238.437538 -69.325305 
L 241.938068 -68.005003 
L 245.438599 -67.31806 
L 248.939129 -67.342175 
L 252.439659 -68.215334 
L 255.940189 -69.890939 
L 259.440719 -72.295202 
L 262.941249 -75.354334 
L 266.441779 -78.994547 
L 269.942309 -83.142054 
L 273.442839 -87.723066 
L 276.943369 -92.663795 
L 280.4439 -97.890452 
L 283.94443 -103.329251 
L 287.44496 -108.906402 
L 290.94549 -114.548118 
L 294.44602 -120.18061 
L 297.94655 -125.730091 
L 301.44708 -131.122772 
L 304.94761 -136.284865 
L 308.44814 -141.142582 
L 311.94867 -145.622135 
L 315.4492 -149.649736 
L 318.949731 -153.151597 
L 322.450261 -156.053929 
L 325.950791 -158.282945 
L 329.451321 -159.764856 
L 332.951851 -160.425875 
L 336.452381 -160.416389 
L 339.952911 -160.244722 
L 343.453441 -159.928152 
L 346.953971 -159.459745 
L 350.454501 -158.832569 
L 353.955032 -158.039689 
L 357.455562 -157.074171 
L 360.956092 -155.929082 
L 364.456622 -154.597489 
L 367.957152 -153.072458 
L 371.457682 -151.347055 
L 374.958212 -149.414346 
L 378.458742 -147.267399 
L 381.959272 -144.899279 
L 385.459802 -142.303052 
L 388.960332 -139.471786 
L 392.460863 -136.398547 
L 395.961393 -133.0764 
L 399.461923 -129.498413 
L 402.962453 -125.657651 
L 406.462983 -121.547182 
L 409.963513 -117.160071 
L 413.464043 -112.489385 
L 416.964573 -107.52819 
L 420.465103 -102.269553 
L 420.465103 -120.602417 
L 420.465103 -120.602417 
L 416.964573 -125.7489 
L 413.464043 -130.596776 
L 409.963513 -135.153477 
L 406.462983 -139.426435 
L 402.962453 -143.423081 
L 399.461923 -147.150847 
L 395.961393 -150.617165 
L 392.460863 -153.829467 
L 388.960332 -156.795184 
L 385.459802 -159.521747 
L 381.959272 -162.016589 
L 378.458742 -164.287141 
L 374.958212 -166.340835 
L 371.457682 -168.185103 
L 367.957152 -169.827376 
L 364.456622 -171.275086 
L 360.956092 -172.535664 
L 357.455562 -173.616543 
L 353.955032 -174.525153 
L 350.454501 -175.268928 
L 346.953971 -175.855297 
L 343.453441 -176.291694 
L 339.952911 -176.58555 
L 336.452381 -176.744295 
L 332.951851 -176.750662 
L 329.451321 -176.086033 
L 325.950791 -174.596028 
L 322.450261 -172.354838 
L 318.949731 -169.436655 
L 315.4492 -165.915668 
L 311.94867 -161.86607 
L 308.44814 -157.362051 
L 304.94761 -152.477802 
L 301.44708 -147.287516 
L 297.94655 -141.865382 
L 294.44602 -136.285592 
L 290.94549 -130.622337 
L 287.44496 -124.949808 
L 283.94443 -119.342196 
L 280.4439 -113.873693 
L 276.943369 -108.618489 
L 273.442839 -103.650776 
L 269.942309 -99.044744 
L 266.441779 -94.874585 
L 262.941249 -91.21449 
L 259.440719 -88.138651 
L 255.940189 -85.721257 
L 252.439659 -84.0365 
L 248.939129 -83.158572 
L 245.438599 -83.125627 
L 241.938068 -83.748877 
L 238.437538 -84.946968 
L 234.937008 -86.66939 
L 231.436478 -88.865631 
L 227.935948 -91.485179 
L 224.435418 -94.477522 
L 220.934888 -97.792148 
L 217.434358 -101.378545 
L 213.933828 -105.186203 
L 210.433298 -109.164608 
L 206.932768 -113.26325 
L 203.432237 -117.431616 
L 199.931707 -121.619195 
L 196.431177 -125.775474 
L 192.930647 -129.849943 
L 189.430117 -133.792089 
L 185.929587 -137.551401 
L 182.429057 -141.077366 
L 178.928527 -144.319473 
L 175.427997 -147.22721 
L 171.927467 -149.750066 
L 168.426937 -151.837529 
L 164.926406 -153.439086 
L 161.425876 -154.504226 
L 157.925346 -155.150021 
L 154.424816 -155.761 
L 150.924286 -156.354507 
L 147.423756 -156.929785 
L 143.923226 -157.486076 
L 140.422696 -158.02262 
L 136.922166 -158.538661 
L 133.421636 -159.033439 
L 129.921105 -159.506198 
L 126.420575 -159.956177 
L 122.920045 -160.382621 
L 119.419515 -160.784769 
L 115.918985 -161.161865 
L 112.418455 -161.51315 
L 108.917925 -161.837866 
L 105.417395 -162.135254 
L 101.916865 -162.404558 
L 98.416335 -162.645018 
L 94.915805 -162.855876 
L 91.415274 -163.036374 
L 87.914744 -163.185755 
L 84.414214 -163.30326 
L 80.913684 -163.38813 
L 77.413154 -163.439609 
L 73.912624 -163.456937 
z
" style="stroke: #131220"/>
    </defs>
    <g clip-path="url(#pbf26d461f4)">
     <use xlink:href="#m381e2abcda" x="0" y="345.6" style="fill: #131220; stroke: #131220"/>
    </g>
   </g>
   <g id="PolyCollection_6">
    <defs>
     <path id="m7092d855e6" d="M 73.912624 -173.81757 
L 73.912624 -163.456937 
L 77.413154 -164.742478 
L 80.913684 -165.924196 
L 84.414214 -167.006462 
L 87.914744 -167.993648 
L 91.415274 -168.890125 
L 94.915805 -169.700265 
L 98.416335 -170.428439 
L 101.916865 -171.079019 
L 105.417395 -171.656377 
L 108.917925 -172.164883 
L 112.418455 -172.60891 
L 115.918985 -172.992828 
L 119.419515 -173.321009 
L 122.920045 -173.597826 
L 126.420575 -173.827649 
L 129.921105 -174.014849 
L 133.421636 -174.163799 
L 136.922166 -174.27887 
L 140.422696 -174.364433 
L 143.923226 -174.42486 
L 147.423756 -174.464522 
L 150.924286 -174.487791 
L 154.424816 -174.499039 
L 157.925346 -174.502636 
L 161.425876 -174.475138 
L 164.926406 -173.826649 
L 168.426937 -172.372827 
L 171.927467 -170.186062 
L 175.427997 -167.338743 
L 178.928527 -163.903259 
L 182.429057 -159.952001 
L 185.929587 -155.557357 
L 189.430117 -150.791717 
L 192.930647 -145.72747 
L 196.431177 -140.437006 
L 199.931707 -134.992715 
L 203.432237 -129.466985 
L 206.932768 -123.932207 
L 210.433298 -118.46077 
L 213.933828 -113.125063 
L 217.434358 -107.997475 
L 220.934888 -103.150397 
L 224.435418 -98.656218 
L 227.935948 -94.587326 
L 231.436478 -91.016113 
L 234.937008 -88.014966 
L 238.437538 -85.656276 
L 241.938068 -84.012431 
L 245.438599 -83.155823 
L 248.939129 -83.083849 
L 252.439659 -83.382358 
L 255.940189 -83.9552 
L 259.440719 -84.777149 
L 262.941249 -85.82298 
L 266.441779 -87.067466 
L 269.942309 -88.485381 
L 273.442839 -90.051499 
L 276.943369 -91.740595 
L 280.4439 -93.527441 
L 283.94443 -95.386812 
L 287.44496 -97.293483 
L 290.94549 -99.222226 
L 294.44602 -101.147815 
L 297.94655 -103.045026 
L 301.44708 -104.888631 
L 304.94761 -106.653404 
L 308.44814 -108.31412 
L 311.94867 -109.845553 
L 315.4492 -111.222476 
L 318.949731 -112.419663 
L 322.450261 -113.411888 
L 325.950791 -114.173925 
L 329.451321 -114.680549 
L 332.951851 -114.906533 
L 336.452381 -114.892716 
L 339.952911 -114.787819 
L 343.453441 -114.59809 
L 346.953971 -114.322695 
L 350.454501 -113.960798 
L 353.955032 -113.511561 
L 357.455562 -112.974151 
L 360.956092 -112.347729 
L 364.456622 -111.631462 
L 367.957152 -110.824512 
L 371.457682 -109.926044 
L 374.958212 -108.935221 
L 378.458742 -107.851209 
L 381.959272 -106.67317 
L 385.459802 -105.400269 
L 388.960332 -104.03167 
L 392.460863 -102.566537 
L 395.961393 -101.004034 
L 399.461923 -99.343326 
L 402.962453 -97.583575 
L 406.462983 -95.723947 
L 409.963513 -93.763605 
L 413.464043 -91.701713 
L 416.964573 -89.537436 
L 420.465103 -87.269937 
L 420.465103 -102.269553 
L 420.465103 -102.269553 
L 416.964573 -103.973358 
L 413.464043 -105.604157 
L 409.963513 -107.162185 
L 406.462983 -108.64768 
L 402.962453 -110.060876 
L 399.461923 -111.402012 
L 395.961393 -112.671322 
L 392.460863 -113.869043 
L 388.960332 -114.995411 
L 385.459802 -116.050664 
L 381.959272 -117.035036 
L 378.458742 -117.948765 
L 374.958212 -118.792087 
L 371.457682 -119.565237 
L 367.957152 -120.268453 
L 364.456622 -120.901971 
L 360.956092 -121.466026 
L 357.455562 -121.960856 
L 353.955032 -122.386696 
L 350.454501 -122.743783 
L 346.953971 -123.032353 
L 343.453441 -123.252643 
L 339.952911 -123.404888 
L 336.452381 -123.489326 
L 332.951851 -123.501477 
L 329.451321 -123.342414 
L 325.950791 -122.985816 
L 322.450261 -122.449441 
L 318.949731 -121.751043 
L 315.4492 -120.908379 
L 311.94867 -119.939204 
L 308.44814 -118.861275 
L 304.94761 -117.692346 
L 301.44708 -116.450175 
L 297.94655 -115.152516 
L 294.44602 -113.817127 
L 290.94549 -112.461762 
L 287.44496 -111.104177 
L 283.94443 -109.762129 
L 280.4439 -108.453373 
L 276.943369 -107.195665 
L 273.442839 -106.006761 
L 269.942309 -104.904417 
L 266.441779 -103.906389 
L 262.941249 -103.030433 
L 259.440719 -102.294304 
L 255.940189 -101.715758 
L 252.439659 -101.312552 
L 248.939129 -101.102441 
L 245.438599 -101.177033 
L 241.938068 -101.965556 
L 238.437538 -103.478741 
L 234.937008 -105.649954 
L 231.436478 -108.412558 
L 227.935948 -111.699919 
L 224.435418 -115.4454 
L 220.934888 -119.582366 
L 217.434358 -124.04418 
L 213.933828 -128.764208 
L 210.433298 -133.675813 
L 206.932768 -138.712361 
L 203.432237 -143.807214 
L 199.931707 -148.893738 
L 196.431177 -153.905297 
L 192.930647 -158.775256 
L 189.430117 -163.436977 
L 185.929587 -167.823827 
L 182.429057 -171.869168 
L 178.928527 -175.506366 
L 175.427997 -178.668785 
L 171.927467 -181.289788 
L 168.426937 -183.302741 
L 164.926406 -184.641008 
L 161.425876 -185.237953 
L 157.925346 -185.26323 
L 154.424816 -185.259502 
L 150.924286 -185.247848 
L 147.423756 -185.223736 
L 143.923226 -185.182637 
L 140.422696 -185.120022 
L 136.922166 -185.031361 
L 133.421636 -184.912124 
L 129.921105 -184.75778 
L 126.420575 -184.563801 
L 122.920045 -184.325657 
L 119.419515 -184.038817 
L 115.918985 -183.698752 
L 112.418455 -183.300932 
L 108.917925 -182.840828 
L 105.417395 -182.313909 
L 101.916865 -181.715645 
L 98.416335 -181.041508 
L 94.915805 -180.286967 
L 91.415274 -179.447492 
L 87.914744 -178.518554 
L 84.414214 -177.495622 
L 80.913684 -176.374168 
L 77.413154 -175.14966 
L 73.912624 -173.81757 
z
" style="stroke: #54658b"/>
    </defs>
    <g clip-path="url(#pbf26d461f4)">
     <use xlink:href="#m7092d855e6" x="0" y="345.6" style="fill: #54658b; stroke: #54658b"/>
    </g>
   </g>
   <g id="PolyCollection_7">
    <defs>
     <path id="me0cbf68288" d="M 73.912624 -193.138752 
L 73.912624 -173.81757 
L 77.413154 -175.208273 
L 80.913684 -176.589397 
L 84.414214 -177.960792 
L 87.914744 -179.322307 
L 91.415274 -180.673791 
L 94.915805 -182.015092 
L 98.416335 -183.346059 
L 101.916865 -184.666543 
L 105.417395 -185.97639 
L 108.917925 -187.275452 
L 112.418455 -188.563575 
L 115.918985 -189.84061 
L 119.419515 -191.106405 
L 122.920045 -192.36081 
L 126.420575 -193.603672 
L 129.921105 -194.834842 
L 133.421636 -196.054168 
L 136.922166 -197.261499 
L 140.422696 -198.456684 
L 143.923226 -199.639571 
L 147.423756 -200.810011 
L 150.924286 -201.967852 
L 154.424816 -203.112942 
L 157.925346 -204.245131 
L 161.425876 -205.366591 
L 164.926406 -206.526073 
L 168.426937 -207.736638 
L 171.927467 -208.989642 
L 175.427997 -210.27644 
L 178.928527 -211.588389 
L 182.429057 -212.916844 
L 185.929587 -214.253161 
L 189.430117 -215.588695 
L 192.930647 -216.914801 
L 196.431177 -218.222836 
L 199.931707 -219.504156 
L 203.432237 -220.750115 
L 206.932768 -221.952069 
L 210.433298 -223.101375 
L 213.933828 -224.189387 
L 217.434358 -225.207462 
L 220.934888 -226.146955 
L 224.435418 -226.999221 
L 227.935948 -227.755617 
L 231.436478 -228.407497 
L 234.937008 -228.946218 
L 238.437538 -229.363136 
L 241.938068 -229.649605 
L 245.438599 -229.796982 
L 248.939129 -229.789109 
L 252.439659 -229.582067 
L 255.940189 -229.184752 
L 259.440719 -228.61466 
L 262.941249 -227.889287 
L 266.441779 -227.026129 
L 269.942309 -226.042683 
L 273.442839 -224.956446 
L 276.943369 -223.784914 
L 280.4439 -222.545582 
L 283.94443 -221.255949 
L 287.44496 -219.93351 
L 290.94549 -218.595761 
L 294.44602 -217.260199 
L 297.94655 -215.944321 
L 301.44708 -214.665623 
L 304.94761 -213.441601 
L 308.44814 -212.289752 
L 311.94867 -211.227572 
L 315.4492 -210.272558 
L 318.949731 -209.442207 
L 322.450261 -208.754013 
L 325.950791 -208.225475 
L 329.451321 -207.874088 
L 332.951851 -207.717349 
L 336.452381 -207.729218 
L 339.952911 -207.811967 
L 343.453441 -207.961184 
L 346.953971 -208.177119 
L 350.454501 -208.460019 
L 353.955032 -208.810133 
L 357.455562 -209.227707 
L 360.956092 -209.712991 
L 364.456622 -210.266232 
L 367.957152 -210.887679 
L 371.457682 -211.577578 
L 374.958212 -212.336178 
L 378.458742 -213.163728 
L 381.959272 -214.060475 
L 385.459802 -215.026666 
L 388.960332 -216.062551 
L 392.460863 -217.168377 
L 395.961393 -218.344392 
L 399.461923 -219.590844 
L 402.962453 -220.90798 
L 406.462983 -222.29605 
L 409.963513 -223.755301 
L 413.464043 -225.28598 
L 416.964573 -226.888336 
L 420.465103 -228.562617 
L 420.465103 -267.265331 
L 420.465103 -267.265331 
L 416.964573 -264.712334 
L 413.464043 -262.283244 
L 409.963513 -259.97646 
L 406.462983 -257.790379 
L 402.962453 -255.723397 
L 399.461923 -253.773911 
L 395.961393 -251.94032 
L 392.460863 -250.221019 
L 388.960332 -248.614408 
L 385.459802 -247.118881 
L 381.959272 -245.732838 
L 378.458742 -244.454674 
L 374.958212 -243.282788 
L 371.457682 -242.215576 
L 367.957152 -241.251436 
L 364.456622 -240.388765 
L 360.956092 -239.62596 
L 357.455562 -238.961418 
L 353.955032 -238.393536 
L 350.454501 -237.920712 
L 346.953971 -237.541343 
L 343.453441 -237.253826 
L 339.952911 -237.056559 
L 336.452381 -236.947938 
L 332.951851 -236.93537 
L 329.451321 -237.207943 
L 325.950791 -237.819016 
L 322.450261 -238.73816 
L 318.949731 -239.934949 
L 315.4492 -241.378956 
L 311.94867 -243.039754 
L 308.44814 -244.886917 
L 304.94761 -246.890017 
L 301.44708 -249.018628 
L 297.94655 -251.242323 
L 294.44602 -253.530675 
L 290.94549 -255.853257 
L 287.44496 -258.179643 
L 283.94443 -260.479405 
L 280.4439 -262.722116 
L 276.943369 -264.877351 
L 273.442839 -266.914681 
L 269.942309 -268.803681 
L 266.441779 -270.513923 
L 262.941249 -272.01498 
L 259.440719 -273.276426 
L 255.940189 -274.267834 
L 252.439659 -274.958777 
L 248.939129 -275.318828 
L 245.438599 -275.324515 
L 241.938068 -275.006546 
L 238.437538 -274.391037 
L 234.937008 -273.499306 
L 231.436478 -272.352669 
L 227.935948 -270.972445 
L 224.435418 -269.379951 
L 220.934888 -267.596504 
L 217.434358 -265.643421 
L 213.933828 -263.542021 
L 210.433298 -261.31362 
L 206.932768 -258.979536 
L 203.432237 -256.561086 
L 199.931707 -254.079588 
L 196.431177 -251.556359 
L 192.930647 -249.012716 
L 189.430117 -246.469978 
L 185.929587 -243.949461 
L 182.429057 -241.472482 
L 178.928527 -239.06036 
L 175.427997 -236.734412 
L 171.927467 -234.515954 
L 168.426937 -232.426305 
L 164.926406 -230.486782 
L 161.425876 -228.718702 
L 157.925346 -227.090076 
L 154.424816 -225.481207 
L 150.924286 -223.886733 
L 147.423756 -222.306993 
L 143.923226 -220.742327 
L 140.422696 -219.193076 
L 136.922166 -217.65958 
L 133.421636 -216.142179 
L 129.921105 -214.641214 
L 126.420575 -213.157026 
L 122.920045 -211.689953 
L 119.419515 -210.240338 
L 115.918985 -208.808519 
L 112.418455 -207.394838 
L 108.917925 -205.999635 
L 105.417395 -204.62325 
L 101.916865 -203.266023 
L 98.416335 -201.928295 
L 94.915805 -200.610406 
L 91.415274 -199.312697 
L 87.914744 -198.035507 
L 84.414214 -196.779177 
L 80.913684 -195.544048 
L 77.413154 -194.330459 
L 73.912624 -193.138752 
z
" style="stroke: #f2b202"/>
    </defs>
    <g clip-path="url(#pbf26d461f4)">
     <use xlink:href="#me0cbf68288" x="0" y="345.6" style="fill: #f2b202; stroke: #f2b202"/>
    </g>
   </g>
   <g id="PolyCollection_8">
    <defs>
     <path id="m5535e57bc7" d="M 73.912624 -212.73995 
L 73.912624 -193.138752 
L 77.413154 -194.330459 
L 80.913684 -195.544048 
L 84.414214 -196.779177 
L 87.914744 -198.035507 
L 91.415274 -199.312697 
L 94.915805 -200.610406 
L 98.416335 -201.928295 
L 101.916865 -203.266023 
L 105.417395 -204.62325 
L 108.917925 -205.999635 
L 112.418455 -207.394838 
L 115.918985 -208.808519 
L 119.419515 -210.240338 
L 122.920045 -211.689953 
L 126.420575 -213.157026 
L 129.921105 -214.641214 
L 133.421636 -216.142179 
L 136.922166 -217.65958 
L 140.422696 -219.193076 
L 143.923226 -220.742327 
L 147.423756 -222.306993 
L 150.924286 -223.886733 
L 154.424816 -225.481207 
L 157.925346 -227.090076 
L 161.425876 -228.718702 
L 164.926406 -230.486782 
L 168.426937 -232.426305 
L 171.927467 -234.515954 
L 175.427997 -236.734412 
L 178.928527 -239.06036 
L 182.429057 -241.472482 
L 185.929587 -243.949461 
L 189.430117 -246.469978 
L 192.930647 -249.012716 
L 196.431177 -251.556359 
L 199.931707 -254.079588 
L 203.432237 -256.561086 
L 206.932768 -258.979536 
L 210.433298 -261.31362 
L 213.933828 -263.542021 
L 217.434358 -265.643421 
L 220.934888 -267.596504 
L 224.435418 -269.379951 
L 227.935948 -270.972445 
L 231.436478 -272.352669 
L 234.937008 -273.499306 
L 238.437538 -274.391037 
L 241.938068 -275.006546 
L 245.438599 -275.324515 
L 248.939129 -275.318828 
L 252.439659 -274.958777 
L 255.940189 -274.267834 
L 259.440719 -273.276426 
L 262.941249 -272.01498 
L 266.441779 -270.513923 
L 269.942309 -268.803681 
L 273.442839 -266.914681 
L 276.943369 -264.877351 
L 280.4439 -262.722116 
L 283.94443 -260.479405 
L 287.44496 -258.179643 
L 290.94549 -255.853257 
L 294.44602 -253.530675 
L 297.94655 -251.242323 
L 301.44708 -249.018628 
L 304.94761 -246.890017 
L 308.44814 -244.886917 
L 311.94867 -243.039754 
L 315.4492 -241.378956 
L 318.949731 -239.934949 
L 322.450261 -238.73816 
L 325.950791 -237.819016 
L 329.451321 -237.207943 
L 332.951851 -236.93537 
L 336.452381 -236.947938 
L 339.952911 -237.056559 
L 343.453441 -237.253826 
L 346.953971 -237.541343 
L 350.454501 -237.920712 
L 353.955032 -238.393536 
L 357.455562 -238.961418 
L 360.956092 -239.62596 
L 364.456622 -240.388765 
L 367.957152 -241.251436 
L 371.457682 -242.215576 
L 374.958212 -243.282788 
L 378.458742 -244.454674 
L 381.959272 -245.732838 
L 385.459802 -247.118881 
L 388.960332 -248.614408 
L 392.460863 -250.221019 
L 395.961393 -251.94032 
L 399.461923 -253.773911 
L 402.962453 -255.723397 
L 406.462983 -257.790379 
L 409.963513 -259.97646 
L 413.464043 -262.283244 
L 416.964573 -264.712334 
L 420.465103 -267.265331 
L 420.465103 -314.486345 
L 420.465103 -314.486345 
L 416.964573 -310.798996 
L 413.464043 -307.279944 
L 409.963513 -303.92779 
L 406.462983 -300.741137 
L 402.962453 -297.718589 
L 399.461923 -294.858747 
L 395.961393 -292.160216 
L 392.460863 -289.621596 
L 388.960332 -287.241492 
L 385.459802 -285.018506 
L 381.959272 -282.951241 
L 378.458742 -281.0383 
L 374.958212 -279.278285 
L 371.457682 -277.669799 
L 367.957152 -276.211446 
L 364.456622 -274.901827 
L 360.956092 -273.739545 
L 357.455562 -272.723205 
L 353.955032 -271.851407 
L 350.454501 -271.122755 
L 346.953971 -270.535853 
L 343.453441 -270.089301 
L 339.952911 -269.781704 
L 336.452381 -269.611664 
L 332.951851 -269.589368 
L 329.451321 -269.957893 
L 325.950791 -270.784075 
L 322.450261 -272.026776 
L 318.949731 -273.644858 
L 315.4492 -275.597185 
L 311.94867 -277.842617 
L 308.44814 -280.340018 
L 304.94761 -283.048249 
L 301.44708 -285.926173 
L 297.94655 -288.932653 
L 294.44602 -292.02655 
L 290.94549 -295.166727 
L 287.44496 -298.312047 
L 283.94443 -301.421371 
L 280.4439 -304.453561 
L 276.943369 -307.367481 
L 273.442839 -310.121993 
L 269.942309 -312.675958 
L 266.441779 -314.988239 
L 262.941249 -317.017698 
L 259.440719 -318.723198 
L 255.940189 -320.063601 
L 252.439659 -320.99777 
L 248.939129 -321.484566 
L 245.438599 -321.489091 
L 241.938068 -321.034768 
L 238.437538 -320.156023 
L 234.937008 -318.884054 
L 231.436478 -317.250063 
L 227.935948 -315.285248 
L 224.435418 -313.020809 
L 220.934888 -310.487946 
L 217.434358 -307.71786 
L 213.933828 -304.741749 
L 210.433298 -301.590814 
L 206.932768 -298.296254 
L 203.432237 -294.889269 
L 199.931707 -291.401059 
L 196.431177 -287.862824 
L 192.930647 -284.305763 
L 189.430117 -280.761077 
L 185.929587 -277.259965 
L 182.429057 -273.833626 
L 178.928527 -270.513262 
L 175.427997 -267.330071 
L 171.927467 -264.315253 
L 168.426937 -261.500008 
L 164.926406 -258.915536 
L 161.425876 -256.593037 
L 157.925346 -254.482962 
L 154.424816 -252.403659 
L 150.924286 -250.347365 
L 147.423756 -248.314975 
L 143.923226 -246.307382 
L 140.422696 -244.32548 
L 136.922166 -242.370164 
L 133.421636 -240.442329 
L 129.921105 -238.542867 
L 126.420575 -236.672673 
L 122.920045 -234.832642 
L 119.419515 -233.023667 
L 115.918985 -231.246643 
L 112.418455 -229.502463 
L 108.917925 -227.792022 
L 105.417395 -226.116214 
L 101.916865 -224.475932 
L 98.416335 -222.872072 
L 94.915805 -221.305528 
L 91.415274 -219.777192 
L 87.914744 -218.28796 
L 84.414214 -216.838726 
L 80.913684 -215.430383 
L 77.413154 -214.063827 
L 73.912624 -212.73995 
z
" style="stroke: #f7dfaf"/>
    </defs>
    <g clip-path="url(#pbf26d461f4)">
     <use xlink:href="#m5535e57bc7" x="0" y="345.6" style="fill: #f7dfaf; stroke: #f7dfaf"/>
    </g>
   </g>
   <g id="PolyCollection_9">
    <defs>
     <path id="m6376e32202" d="M 73.912624 -233.741234 
L 73.912624 -212.73995 
L 77.413154 -209.211454 
L 80.913684 -205.79062 
L 84.414214 -202.480704 
L 87.914744 -199.284962 
L 91.415274 -196.206649 
L 94.915805 -193.249021 
L 98.416335 -190.415334 
L 101.916865 -187.708844 
L 105.417395 -185.132806 
L 108.917925 -182.690477 
L 112.418455 -180.385112 
L 115.918985 -178.219967 
L 119.419515 -176.198297 
L 122.920045 -174.323359 
L 126.420575 -172.598408 
L 129.921105 -171.026701 
L 133.421636 -169.611492 
L 136.922166 -168.356038 
L 140.422696 -167.263594 
L 143.923226 -166.337417 
L 147.423756 -165.580761 
L 150.924286 -164.996884 
L 154.424816 -164.58904 
L 157.925346 -164.360485 
L 161.425876 -164.318409 
L 164.926406 -164.545149 
L 168.426937 -165.05347 
L 171.927467 -165.818061 
L 175.427997 -166.813612 
L 178.928527 -168.01481 
L 182.429057 -169.396347 
L 185.929587 -170.932911 
L 189.430117 -172.599192 
L 192.930647 -174.369879 
L 196.431177 -176.219662 
L 199.931707 -178.12323 
L 203.432237 -180.055272 
L 206.932768 -181.990478 
L 210.433298 -183.903537 
L 213.933828 -185.769139 
L 217.434358 -187.561973 
L 220.934888 -189.256729 
L 224.435418 -190.828095 
L 227.935948 -192.250761 
L 231.436478 -193.499417 
L 234.937008 -194.548753 
L 238.437538 -195.373456 
L 241.938068 -195.948218 
L 245.438599 -196.247726 
L 248.939129 -196.273014 
L 252.439659 -196.168312 
L 255.940189 -195.964006 
L 259.440719 -195.665417 
L 262.941249 -195.277865 
L 266.441779 -194.806671 
L 269.942309 -194.257156 
L 273.442839 -193.634639 
L 276.943369 -192.944441 
L 280.4439 -192.191883 
L 283.94443 -191.382286 
L 287.44496 -190.520968 
L 290.94549 -189.613252 
L 294.44602 -188.664457 
L 297.94655 -187.679905 
L 301.44708 -186.664914 
L 304.94761 -185.624807 
L 308.44814 -184.564903 
L 311.94867 -183.490523 
L 315.4492 -182.406987 
L 318.949731 -181.319615 
L 322.450261 -180.233729 
L 325.950791 -179.154649 
L 329.451321 -178.087695 
L 332.951851 -177.038187 
L 336.452381 -175.99127 
L 339.952911 -174.90078 
L 343.453441 -173.765602 
L 346.953971 -172.586817 
L 350.454501 -171.365509 
L 353.955032 -170.102759 
L 357.455562 -168.79965 
L 360.956092 -167.457264 
L 364.456622 -166.076683 
L 367.957152 -164.658989 
L 371.457682 -163.205265 
L 374.958212 -161.716593 
L 378.458742 -160.194055 
L 381.959272 -158.638734 
L 385.459802 -157.051711 
L 388.960332 -155.434069 
L 392.460863 -153.786891 
L 395.961393 -152.111257 
L 399.461923 -150.408251 
L 402.962453 -148.678956 
L 406.462983 -146.924452 
L 409.963513 -145.145822 
L 413.464043 -143.34415 
L 416.964573 -141.520516 
L 420.465103 -139.676003 
L 420.465103 -166.712348 
L 420.465103 -166.712348 
L 416.964573 -166.97462 
L 413.464043 -167.294103 
L 409.963513 -167.668711 
L 406.462983 -168.09636 
L 402.962453 -168.574966 
L 399.461923 -169.102442 
L 395.961393 -169.676704 
L 392.460863 -170.295667 
L 388.960332 -170.957247 
L 385.459802 -171.659357 
L 381.959272 -172.399913 
L 378.458742 -173.176831 
L 374.958212 -173.988024 
L 371.457682 -174.831409 
L 367.957152 -175.7049 
L 364.456622 -176.606412 
L 360.956092 -177.533861 
L 357.455562 -178.485161 
L 353.955032 -179.458227 
L 350.454501 -180.450974 
L 346.953971 -181.461318 
L 343.453441 -182.487173 
L 339.952911 -183.526455 
L 336.452381 -184.577078 
L 332.951851 -185.644899 
L 329.451321 -186.89663 
L 325.950791 -188.381092 
L 322.450261 -190.073509 
L 318.949731 -191.949104 
L 315.4492 -193.9831 
L 311.94867 -196.150722 
L 308.44814 -198.427193 
L 304.94761 -200.787737 
L 301.44708 -203.207576 
L 297.94655 -205.661934 
L 294.44602 -208.126035 
L 290.94549 -210.575102 
L 287.44496 -212.984359 
L 283.94443 -215.32903 
L 280.4439 -217.584337 
L 276.943369 -219.725505 
L 273.442839 -221.727756 
L 269.942309 -223.566315 
L 266.441779 -225.216404 
L 262.941249 -226.653248 
L 259.440719 -227.852069 
L 255.940189 -228.788092 
L 252.439659 -229.43654 
L 248.939129 -229.772636 
L 245.438599 -229.748998 
L 241.938068 -229.230927 
L 238.437538 -228.236743 
L 234.937008 -226.810225 
L 231.436478 -224.995154 
L 227.935948 -222.83531 
L 224.435418 -220.374475 
L 220.934888 -217.656429 
L 217.434358 -214.724952 
L 213.933828 -211.623826 
L 210.433298 -208.39683 
L 206.932768 -205.087746 
L 203.432237 -201.740354 
L 199.931707 -198.398434 
L 196.431177 -195.105767 
L 192.930647 -191.906135 
L 189.430117 -188.843316 
L 185.929587 -185.961093 
L 182.429057 -183.303245 
L 178.928527 -180.913553 
L 175.427997 -178.835799 
L 171.927467 -177.113761 
L 168.426937 -175.791222 
L 164.926406 -174.911962 
L 161.425876 -174.51976 
L 157.925346 -174.559088 
L 154.424816 -174.808224 
L 150.924286 -175.255819 
L 147.423756 -175.901098 
L 143.923226 -176.743284 
L 140.422696 -177.7816 
L 136.922166 -179.01527 
L 133.421636 -180.443516 
L 129.921105 -182.065561 
L 126.420575 -183.88063 
L 122.920045 -185.887945 
L 119.419515 -188.08673 
L 115.918985 -190.476207 
L 112.418455 -193.0556 
L 108.917925 -195.824133 
L 105.417395 -198.781028 
L 101.916865 -201.925509 
L 98.416335 -205.256799 
L 94.915805 -208.774121 
L 91.415274 -212.476699 
L 87.914744 -216.363755 
L 84.414214 -220.434514 
L 80.913684 -224.688198 
L 77.413154 -229.12403 
L 73.912624 -233.741234 
z
" style="stroke: #01a0e6"/>
    </defs>
    <g clip-path="url(#pbf26d461f4)">
     <use xlink:href="#m6376e32202" x="0" y="345.6" style="fill: #01a0e6; stroke: #01a0e6"/>
    </g>
   </g>
   <g id="PolyCollection_10">
    <defs>
     <path id="mff13236437" d="M 73.912624 -257.822707 
L 73.912624 -233.741234 
L 77.413154 -228.802063 
L 80.913684 -223.903305 
L 84.414214 -219.059009 
L 87.914744 -214.283219 
L 91.415274 -209.589983 
L 94.915805 -204.993346 
L 98.416335 -200.507354 
L 101.916865 -196.146053 
L 105.417395 -191.92349 
L 108.917925 -187.853712 
L 112.418455 -183.950763 
L 115.918985 -180.22869 
L 119.419515 -176.701541 
L 122.920045 -173.383359 
L 126.420575 -170.288193 
L 129.921105 -167.430087 
L 133.421636 -164.823089 
L 136.922166 -162.481244 
L 140.422696 -160.418598 
L 143.923226 -158.649198 
L 147.423756 -157.18709 
L 150.924286 -156.046321 
L 154.424816 -155.240935 
L 157.925346 -154.78498 
L 161.425876 -154.68203 
L 164.926406 -154.711671 
L 168.426937 -154.779456 
L 171.927467 -154.883701 
L 175.427997 -155.022725 
L 178.928527 -155.194846 
L 182.429057 -155.398382 
L 185.929587 -155.63165 
L 189.430117 -155.892969 
L 192.930647 -156.180656 
L 196.431177 -156.493029 
L 199.931707 -156.828406 
L 203.432237 -157.185106 
L 206.932768 -157.561445 
L 210.433298 -157.955741 
L 213.933828 -158.366314 
L 217.434358 -158.791479 
L 220.934888 -159.229557 
L 224.435418 -159.678863 
L 227.935948 -160.137716 
L 231.436478 -160.604434 
L 234.937008 -161.077336 
L 238.437538 -161.554737 
L 241.938068 -162.034958 
L 245.438599 -162.516315 
L 248.939129 -163.009762 
L 252.439659 -163.587069 
L 255.940189 -164.253164 
L 259.440719 -165.000073 
L 262.941249 -165.819825 
L 266.441779 -166.704447 
L 269.942309 -167.645969 
L 273.442839 -168.636417 
L 276.943369 -169.667821 
L 280.4439 -170.732208 
L 283.94443 -171.821605 
L 287.44496 -172.928043 
L 290.94549 -174.043547 
L 294.44602 -175.160147 
L 297.94655 -176.269871 
L 301.44708 -177.364746 
L 304.94761 -178.4368 
L 308.44814 -179.478063 
L 311.94867 -180.480561 
L 315.4492 -181.436323 
L 318.949731 -182.337377 
L 322.450261 -183.175751 
L 325.950791 -183.943473 
L 329.451321 -184.632571 
L 332.951851 -185.235074 
L 336.452381 -185.769635 
L 339.952911 -186.296881 
L 343.453441 -186.818599 
L 346.953971 -187.33369 
L 350.454501 -187.841057 
L 353.955032 -188.339601 
L 357.455562 -188.828223 
L 360.956092 -189.305826 
L 364.456622 -189.771309 
L 367.957152 -190.223576 
L 371.457682 -190.661528 
L 374.958212 -191.084066 
L 378.458742 -191.490091 
L 381.959272 -191.878506 
L 385.459802 -192.248211 
L 388.960332 -192.598109 
L 392.460863 -192.9271 
L 395.961393 -193.234087 
L 399.461923 -193.517971 
L 402.962453 -193.777653 
L 406.462983 -194.012035 
L 409.963513 -194.220019 
L 413.464043 -194.400506 
L 416.964573 -194.552398 
L 420.465103 -194.674596 
L 420.465103 -228.562617 
L 420.465103 -228.562617 
L 416.964573 -227.535192 
L 413.464043 -226.519207 
L 409.963513 -225.515207 
L 406.462983 -224.523737 
L 402.962453 -223.545341 
L 399.461923 -222.580565 
L 395.961393 -221.629954 
L 392.460863 -220.694052 
L 388.960332 -219.773405 
L 385.459802 -218.868557 
L 381.959272 -217.980053 
L 378.458742 -217.108438 
L 374.958212 -216.254257 
L 371.457682 -215.418055 
L 367.957152 -214.600377 
L 364.456622 -213.801768 
L 360.956092 -213.022772 
L 357.455562 -212.263935 
L 353.955032 -211.525801 
L 350.454501 -210.808916 
L 346.953971 -210.113824 
L 343.453441 -209.441071 
L 339.952911 -208.7912 
L 336.452381 -208.164758 
L 332.951851 -207.562749 
L 329.451321 -206.994808 
L 325.950791 -206.461993 
L 322.450261 -205.960844 
L 318.949731 -205.487898 
L 315.4492 -205.039694 
L 311.94867 -204.612771 
L 308.44814 -204.203665 
L 304.94761 -203.808917 
L 301.44708 -203.425063 
L 297.94655 -203.048643 
L 294.44602 -202.676195 
L 290.94549 -202.304257 
L 287.44496 -201.929367 
L 283.94443 -201.548064 
L 280.4439 -201.156886 
L 276.943369 -200.752371 
L 273.442839 -200.331058 
L 269.942309 -199.889485 
L 266.441779 -199.424191 
L 262.941249 -198.931713 
L 259.440719 -198.40859 
L 255.940189 -197.85136 
L 252.439659 -197.256562 
L 248.939129 -196.620734 
L 245.438599 -195.921241 
L 241.938068 -195.047875 
L 238.437538 -193.99919 
L 234.937008 -192.793835 
L 231.436478 -191.450458 
L 227.935948 -189.987708 
L 224.435418 -188.424231 
L 220.934888 -186.778678 
L 217.434358 -185.069696 
L 213.933828 -183.315933 
L 210.433298 -181.536039 
L 206.932768 -179.74866 
L 203.432237 -177.972447 
L 199.931707 -176.226046 
L 196.431177 -174.528106 
L 192.930647 -172.897276 
L 189.430117 -171.352203 
L 185.929587 -169.911537 
L 182.429057 -168.593926 
L 178.928527 -167.418017 
L 175.427997 -166.40246 
L 171.927467 -165.565902 
L 168.426937 -164.926992 
L 164.926406 -164.504378 
L 161.425876 -164.316708 
L 157.925346 -164.421955 
L 154.424816 -164.919157 
L 150.924286 -165.800828 
L 147.423756 -167.054792 
L 143.923226 -168.668871 
L 140.422696 -170.630889 
L 136.922166 -172.928669 
L 133.421636 -175.550035 
L 129.921105 -178.48281 
L 126.420575 -181.714817 
L 122.920045 -185.233881 
L 119.419515 -189.027823 
L 115.918985 -193.084468 
L 112.418455 -197.391639 
L 108.917925 -201.937159 
L 105.417395 -206.708851 
L 101.916865 -211.69454 
L 98.416335 -216.882048 
L 94.915805 -222.259199 
L 91.415274 -227.813815 
L 87.914744 -233.533721 
L 84.414214 -239.40674 
L 80.913684 -245.420695 
L 77.413154 -251.563409 
L 73.912624 -257.822707 
z
" style="stroke: #48c8f6"/>
    </defs>
    <g clip-path="url(#pbf26d461f4)">
     <use xlink:href="#mff13236437" x="0" y="345.6" style="fill: #48c8f6; stroke: #48c8f6"/>
    </g>
   </g>
   <g id="matplotlib.axis_1">
    <g id="xtick_1">
     <g id="line2d_1">
      <defs>
       <path id="me3f5eb1617" d="M 0 0 
L 0 3.5 
" style="stroke: #000000; stroke-width: 0.8"/>
      </defs>
      <g>
       <use xlink:href="#me3f5eb1617" x="73.912624" y="303.64" style="stroke: #000000; stroke-width: 0.8"/>
      </g>
     </g>
     <g id="text_1">
      <!-- 6814_AMAD -->
      <g transform="translate(43.682936 318.061875) scale(0.1 -0.1)">
       <defs>
        <path id="DejaVuSans-36" d="M 2113 2584 
Q 1688 2584 1439 2293 
Q 1191 2003 1191 1497 
Q 1191 994 1439 701 
Q 1688 409 2113 409 
Q 2538 409 2786 701 
Q 3034 994 3034 1497 
Q 3034 2003 2786 2293 
Q 2538 2584 2113 2584 
z
M 3366 4563 
L 3366 3988 
Q 3128 4100 2886 4159 
Q 2644 4219 2406 4219 
Q 1781 4219 1451 3797 
Q 1122 3375 1075 2522 
Q 1259 2794 1537 2939 
Q 1816 3084 2150 3084 
Q 2853 3084 3261 2657 
Q 3669 2231 3669 1497 
Q 3669 778 3244 343 
Q 2819 -91 2113 -91 
Q 1303 -91 875 529 
Q 447 1150 447 2328 
Q 447 3434 972 4092 
Q 1497 4750 2381 4750 
Q 2619 4750 2861 4703 
Q 3103 4656 3366 4563 
z
" transform="scale(0.015625)"/>
        <path id="DejaVuSans-38" d="M 2034 2216 
Q 1584 2216 1326 1975 
Q 1069 1734 1069 1313 
Q 1069 891 1326 650 
Q 1584 409 2034 409 
Q 2484 409 2743 651 
Q 3003 894 3003 1313 
Q 3003 1734 2745 1975 
Q 2488 2216 2034 2216 
z
M 1403 2484 
Q 997 2584 770 2862 
Q 544 3141 544 3541 
Q 544 4100 942 4425 
Q 1341 4750 2034 4750 
Q 2731 4750 3128 4425 
Q 3525 4100 3525 3541 
Q 3525 3141 3298 2862 
Q 3072 2584 2669 2484 
Q 3125 2378 3379 2068 
Q 3634 1759 3634 1313 
Q 3634 634 3220 271 
Q 2806 -91 2034 -91 
Q 1263 -91 848 271 
Q 434 634 434 1313 
Q 434 1759 690 2068 
Q 947 2378 1403 2484 
z
M 1172 3481 
Q 1172 3119 1398 2916 
Q 1625 2713 2034 2713 
Q 2441 2713 2670 2916 
Q 2900 3119 2900 3481 
Q 2900 3844 2670 4047 
Q 2441 4250 2034 4250 
Q 1625 4250 1398 4047 
Q 1172 3844 1172 3481 
z
" transform="scale(0.015625)"/>
        <path id="DejaVuSans-31" d="M 794 531 
L 1825 531 
L 1825 4091 
L 703 3866 
L 703 4441 
L 1819 4666 
L 2450 4666 
L 2450 531 
L 3481 531 
L 3481 0 
L 794 0 
L 794 531 
z
" transform="scale(0.015625)"/>
        <path id="DejaVuSans-34" d="M 2419 4116 
L 825 1625 
L 2419 1625 
L 2419 4116 
z
M 2253 4666 
L 3047 4666 
L 3047 1625 
L 3713 1625 
L 3713 1100 
L 3047 1100 
L 3047 0 
L 2419 0 
L 2419 1100 
L 313 1100 
L 313 1709 
L 2253 4666 
z
" transform="scale(0.015625)"/>
        <path id="DejaVuSans-5f" d="M 3263 -1063 
L 3263 -1509 
L -63 -1509 
L -63 -1063 
L 3263 -1063 
z
" transform="scale(0.015625)"/>
        <path id="DejaVuSans-41" d="M 2188 4044 
L 1331 1722 
L 3047 1722 
L 2188 4044 
z
M 1831 4666 
L 2547 4666 
L 4325 0 
L 3669 0 
L 3244 1197 
L 1141 1197 
L 716 0 
L 50 0 
L 1831 4666 
z
" transform="scale(0.015625)"/>
        <path id="DejaVuSans-4d" d="M 628 4666 
L 1569 4666 
L 2759 1491 
L 3956 4666 
L 4897 4666 
L 4897 0 
L 4281 0 
L 4281 4097 
L 3078 897 
L 2444 897 
L 1241 4097 
L 1241 0 
L 628 0 
L 628 4666 
z
" transform="scale(0.015625)"/>
        <path id="DejaVuSans-44" d="M 1259 4147 
L 1259 519 
L 2022 519 
Q 2988 519 3436 956 
Q 3884 1394 3884 2338 
Q 3884 3275 3436 3711 
Q 2988 4147 2022 4147 
L 1259 4147 
z
M 628 4666 
L 1925 4666 
Q 3281 4666 3915 4102 
Q 4550 3538 4550 2338 
Q 4550 1131 3912 565 
Q 3275 0 1925 0 
L 628 0 
L 628 4666 
z
" transform="scale(0.015625)"/>
       </defs>
       <use xlink:href="#DejaVuSans-36"/>
       <use xlink:href="#DejaVuSans-38" x="63.623047"/>
       <use xlink:href="#DejaVuSans-31" x="127.246094"/>
       <use xlink:href="#DejaVuSans-34" x="190.869141"/>
       <use xlink:href="#DejaVuSans-5f" x="254.492188"/>
       <use xlink:href="#DejaVuSans-41" x="304.492188"/>
       <use xlink:href="#DejaVuSans-4d" x="372.900391"/>
       <use xlink:href="#DejaVuSans-41" x="459.179688"/>
       <use xlink:href="#DejaVuSans-44" x="527.587891"/>
      </g>
     </g>
    </g>
    <g id="xtick_2">
     <g id="line2d_2">
      <g>
       <use xlink:href="#me3f5eb1617" x="160.550744" y="303.64" style="stroke: #000000; stroke-width: 0.8"/>
      </g>
     </g>
     <g id="text_2">
      <!-- 8163_MANA -->
      <g transform="translate(130.430431 318.061875) scale(0.1 -0.1)">
       <defs>
        <path id="DejaVuSans-33" d="M 2597 2516 
Q 3050 2419 3304 2112 
Q 3559 1806 3559 1356 
Q 3559 666 3084 287 
Q 2609 -91 1734 -91 
Q 1441 -91 1130 -33 
Q 819 25 488 141 
L 488 750 
Q 750 597 1062 519 
Q 1375 441 1716 441 
Q 2309 441 2620 675 
Q 2931 909 2931 1356 
Q 2931 1769 2642 2001 
Q 2353 2234 1838 2234 
L 1294 2234 
L 1294 2753 
L 1863 2753 
Q 2328 2753 2575 2939 
Q 2822 3125 2822 3475 
Q 2822 3834 2567 4026 
Q 2313 4219 1838 4219 
Q 1578 4219 1281 4162 
Q 984 4106 628 3988 
L 628 4550 
Q 988 4650 1302 4700 
Q 1616 4750 1894 4750 
Q 2613 4750 3031 4423 
Q 3450 4097 3450 3541 
Q 3450 3153 3228 2886 
Q 3006 2619 2597 2516 
z
" transform="scale(0.015625)"/>
        <path id="DejaVuSans-4e" d="M 628 4666 
L 1478 4666 
L 3547 763 
L 3547 4666 
L 4159 4666 
L 4159 0 
L 3309 0 
L 1241 3903 
L 1241 0 
L 628 0 
L 628 4666 
z
" transform="scale(0.015625)"/>
       </defs>
       <use xlink:href="#DejaVuSans-38"/>
       <use xlink:href="#DejaVuSans-31" x="63.623047"/>
       <use xlink:href="#DejaVuSans-36" x="127.246094"/>
       <use xlink:href="#DejaVuSans-33" x="190.869141"/>
       <use xlink:href="#DejaVuSans-5f" x="254.492188"/>
       <use xlink:href="#DejaVuSans-4d" x="304.492188"/>
       <use xlink:href="#DejaVuSans-41" x="390.771484"/>
       <use xlink:href="#DejaVuSans-4e" x="459.179688"/>
       <use xlink:href="#DejaVuSans-41" x="533.984375"/>
      </g>
     </g>
    </g>
    <g id="xtick_3">
     <g id="line2d_3">
      <g>
       <use xlink:href="#me3f5eb1617" x="247.188864" y="303.64" style="stroke: #000000; stroke-width: 0.8"/>
      </g>
     </g>
     <g id="text_3">
      <!-- 8188_CHOY -->
      <g transform="translate(217.997457 318.061875) scale(0.1 -0.1)">
       <defs>
        <path id="DejaVuSans-43" d="M 4122 4306 
L 4122 3641 
Q 3803 3938 3442 4084 
Q 3081 4231 2675 4231 
Q 1875 4231 1450 3742 
Q 1025 3253 1025 2328 
Q 1025 1406 1450 917 
Q 1875 428 2675 428 
Q 3081 428 3442 575 
Q 3803 722 4122 1019 
L 4122 359 
Q 3791 134 3420 21 
Q 3050 -91 2638 -91 
Q 1578 -91 968 557 
Q 359 1206 359 2328 
Q 359 3453 968 4101 
Q 1578 4750 2638 4750 
Q 3056 4750 3426 4639 
Q 3797 4528 4122 4306 
z
" transform="scale(0.015625)"/>
        <path id="DejaVuSans-48" d="M 628 4666 
L 1259 4666 
L 1259 2753 
L 3553 2753 
L 3553 4666 
L 4184 4666 
L 4184 0 
L 3553 0 
L 3553 2222 
L 1259 2222 
L 1259 0 
L 628 0 
L 628 4666 
z
" transform="scale(0.015625)"/>
        <path id="DejaVuSans-4f" d="M 2522 4238 
Q 1834 4238 1429 3725 
Q 1025 3213 1025 2328 
Q 1025 1447 1429 934 
Q 1834 422 2522 422 
Q 3209 422 3611 934 
Q 4013 1447 4013 2328 
Q 4013 3213 3611 3725 
Q 3209 4238 2522 4238 
z
M 2522 4750 
Q 3503 4750 4090 4092 
Q 4678 3434 4678 2328 
Q 4678 1225 4090 567 
Q 3503 -91 2522 -91 
Q 1538 -91 948 565 
Q 359 1222 359 2328 
Q 359 3434 948 4092 
Q 1538 4750 2522 4750 
z
" transform="scale(0.015625)"/>
        <path id="DejaVuSans-59" d="M -13 4666 
L 666 4666 
L 1959 2747 
L 3244 4666 
L 3922 4666 
L 2272 2222 
L 2272 0 
L 1638 0 
L 1638 2222 
L -13 4666 
z
" transform="scale(0.015625)"/>
       </defs>
       <use xlink:href="#DejaVuSans-38"/>
       <use xlink:href="#DejaVuSans-31" x="63.623047"/>
       <use xlink:href="#DejaVuSans-38" x="127.246094"/>
       <use xlink:href="#DejaVuSans-38" x="190.869141"/>
       <use xlink:href="#DejaVuSans-5f" x="254.492188"/>
       <use xlink:href="#DejaVuSans-43" x="304.492188"/>
       <use xlink:href="#DejaVuSans-48" x="374.316406"/>
       <use xlink:href="#DejaVuSans-4f" x="449.511719"/>
       <use xlink:href="#DejaVuSans-59" x="522.722656"/>
      </g>
     </g>
    </g>
    <g id="xtick_4">
     <g id="line2d_4">
      <g>
       <use xlink:href="#me3f5eb1617" x="333.826983" y="303.64" style="stroke: #000000; stroke-width: 0.8"/>
      </g>
     </g>
     <g id="text_4">
      <!-- 8516_LHOT -->
      <g transform="translate(305.066046 318.061875) scale(0.1 -0.1)">
       <defs>
        <path id="DejaVuSans-35" d="M 691 4666 
L 3169 4666 
L 3169 4134 
L 1269 4134 
L 1269 2991 
Q 1406 3038 1543 3061 
Q 1681 3084 1819 3084 
Q 2600 3084 3056 2656 
Q 3513 2228 3513 1497 
Q 3513 744 3044 326 
Q 2575 -91 1722 -91 
Q 1428 -91 1123 -41 
Q 819 9 494 109 
L 494 744 
Q 775 591 1075 516 
Q 1375 441 1709 441 
Q 2250 441 2565 725 
Q 2881 1009 2881 1497 
Q 2881 1984 2565 2268 
Q 2250 2553 1709 2553 
Q 1456 2553 1204 2497 
Q 953 2441 691 2322 
L 691 4666 
z
" transform="scale(0.015625)"/>
        <path id="DejaVuSans-4c" d="M 628 4666 
L 1259 4666 
L 1259 531 
L 3531 531 
L 3531 0 
L 628 0 
L 628 4666 
z
" transform="scale(0.015625)"/>
        <path id="DejaVuSans-54" d="M -19 4666 
L 3928 4666 
L 3928 4134 
L 2272 4134 
L 2272 0 
L 1638 0 
L 1638 4134 
L -19 4134 
L -19 4666 
z
" transform="scale(0.015625)"/>
       </defs>
       <use xlink:href="#DejaVuSans-38"/>
       <use xlink:href="#DejaVuSans-35" x="63.623047"/>
       <use xlink:href="#DejaVuSans-31" x="127.246094"/>
       <use xlink:href="#DejaVuSans-36" x="190.869141"/>
       <use xlink:href="#DejaVuSans-5f" x="254.492188"/>
       <use xlink:href="#DejaVuSans-4c" x="304.492188"/>
       <use xlink:href="#DejaVuSans-48" x="360.205078"/>
       <use xlink:href="#DejaVuSans-4f" x="435.400391"/>
       <use xlink:href="#DejaVuSans-54" x="514.111328"/>
      </g>
     </g>
    </g>
    <g id="xtick_5">
     <g id="line2d_5">
      <g>
       <use xlink:href="#me3f5eb1617" x="420.465103" y="303.64" style="stroke: #000000; stroke-width: 0.8"/>
      </g>
     </g>
     <g id="text_5">
      <!-- 8849_EVER -->
      <g transform="translate(392.026822 318.061875) scale(0.1 -0.1)">
       <defs>
        <path id="DejaVuSans-39" d="M 703 97 
L 703 672 
Q 941 559 1184 500 
Q 1428 441 1663 441 
Q 2288 441 2617 861 
Q 2947 1281 2994 2138 
Q 2813 1869 2534 1725 
Q 2256 1581 1919 1581 
Q 1219 1581 811 2004 
Q 403 2428 403 3163 
Q 403 3881 828 4315 
Q 1253 4750 1959 4750 
Q 2769 4750 3195 4129 
Q 3622 3509 3622 2328 
Q 3622 1225 3098 567 
Q 2575 -91 1691 -91 
Q 1453 -91 1209 -44 
Q 966 3 703 97 
z
M 1959 2075 
Q 2384 2075 2632 2365 
Q 2881 2656 2881 3163 
Q 2881 3666 2632 3958 
Q 2384 4250 1959 4250 
Q 1534 4250 1286 3958 
Q 1038 3666 1038 3163 
Q 1038 2656 1286 2365 
Q 1534 2075 1959 2075 
z
" transform="scale(0.015625)"/>
        <path id="DejaVuSans-45" d="M 628 4666 
L 3578 4666 
L 3578 4134 
L 1259 4134 
L 1259 2753 
L 3481 2753 
L 3481 2222 
L 1259 2222 
L 1259 531 
L 3634 531 
L 3634 0 
L 628 0 
L 628 4666 
z
" transform="scale(0.015625)"/>
        <path id="DejaVuSans-56" d="M 1831 0 
L 50 4666 
L 709 4666 
L 2188 738 
L 3669 4666 
L 4325 4666 
L 2547 0 
L 1831 0 
z
" transform="scale(0.015625)"/>
        <path id="DejaVuSans-52" d="M 2841 2188 
Q 3044 2119 3236 1894 
Q 3428 1669 3622 1275 
L 4263 0 
L 3584 0 
L 2988 1197 
Q 2756 1666 2539 1819 
Q 2322 1972 1947 1972 
L 1259 1972 
L 1259 0 
L 628 0 
L 628 4666 
L 2053 4666 
Q 2853 4666 3247 4331 
Q 3641 3997 3641 3322 
Q 3641 2881 3436 2590 
Q 3231 2300 2841 2188 
z
M 1259 4147 
L 1259 2491 
L 2053 2491 
Q 2509 2491 2742 2702 
Q 2975 2913 2975 3322 
Q 2975 3731 2742 3939 
Q 2509 4147 2053 4147 
L 1259 4147 
z
" transform="scale(0.015625)"/>
       </defs>
       <use xlink:href="#DejaVuSans-38"/>
       <use xlink:href="#DejaVuSans-38" x="63.623047"/>
       <use xlink:href="#DejaVuSans-34" x="127.246094"/>
       <use xlink:href="#DejaVuSans-39" x="190.869141"/>
       <use xlink:href="#DejaVuSans-5f" x="254.492188"/>
       <use xlink:href="#DejaVuSans-45" x="304.492188"/>
       <use xlink:href="#DejaVuSans-56" x="367.675781"/>
       <use xlink:href="#DejaVuSans-45" x="436.083984"/>
       <use xlink:href="#DejaVuSans-52" x="499.267578"/>
      </g>
     </g>
    </g>
    <g id="text_6">
     <!-- x -->
     <g transform="translate(244.229489 332.018125) scale(0.1 -0.1)">
      <defs>
       <path id="DejaVuSans-78" d="M 3513 3500 
L 2247 1797 
L 3578 0 
L 2900 0 
L 1881 1375 
L 863 0 
L 184 0 
L 1544 1831 
L 300 3500 
L 978 3500 
L 1906 2253 
L 2834 3500 
L 3513 3500 
z
" transform="scale(0.015625)"/>
      </defs>
      <use xlink:href="#DejaVuSans-78"/>
     </g>
    </g>
   </g>
   <g id="matplotlib.axis_2">
    <g id="ytick_1">
     <g id="line2d_6">
      <defs>
       <path id="m01b463e4f9" d="M 0 0 
L -3.5 0 
" style="stroke: #000000; stroke-width: 0.8"/>
      </defs>
      <g>
       <use xlink:href="#m01b463e4f9" x="56.585" y="285.329373" style="stroke: #000000; stroke-width: 0.8"/>
      </g>
     </g>
     <g id="text_7">
      <!-- 0.3 -->
      <g transform="translate(25.302188 289.128591) scale(0.1 -0.1)">
       <defs>
        <path id="DejaVuSans-2212" d="M 678 2272 
L 4684 2272 
L 4684 1741 
L 678 1741 
L 678 2272 
z
" transform="scale(0.015625)"/>
        <path id="DejaVuSans-30" d="M 2034 4250 
Q 1547 4250 1301 3770 
Q 1056 3291 1056 2328 
Q 1056 1369 1301 889 
Q 1547 409 2034 409 
Q 2525 409 2770 889 
Q 3016 1369 3016 2328 
Q 3016 3291 2770 3770 
Q 2525 4250 2034 4250 
z
M 2034 4750 
Q 2819 4750 3233 4129 
Q 3647 3509 3647 2328 
Q 3647 1150 3233 529 
Q 2819 -91 2034 -91 
Q 1250 -91 836 529 
Q 422 1150 422 2328 
Q 422 3509 836 4129 
Q 1250 4750 2034 4750 
z
" transform="scale(0.015625)"/>
        <path id="DejaVuSans-2e" d="M 684 794 
L 1344 794 
L 1344 0 
L 684 0 
L 684 794 
z
" transform="scale(0.015625)"/>
       </defs>
       <use xlink:href="#DejaVuSans-2212"/>
       <use xlink:href="#DejaVuSans-30" x="83.789062"/>
       <use xlink:href="#DejaVuSans-2e" x="147.412109"/>
       <use xlink:href="#DejaVuSans-33" x="179.199219"/>
      </g>
     </g>
    </g>
    <g id="ytick_2">
     <g id="line2d_7">
      <g>
       <use xlink:href="#m01b463e4f9" x="56.585" y="242.626762" style="stroke: #000000; stroke-width: 0.8"/>
      </g>
     </g>
     <g id="text_8">
      <!-- 0.2 -->
      <g transform="translate(25.302188 246.42598) scale(0.1 -0.1)">
       <defs>
        <path id="DejaVuSans-32" d="M 1228 531 
L 3431 531 
L 3431 0 
L 469 0 
L 469 531 
Q 828 903 1448 1529 
Q 2069 2156 2228 2338 
Q 2531 2678 2651 2914 
Q 2772 3150 2772 3378 
Q 2772 3750 2511 3984 
Q 2250 4219 1831 4219 
Q 1534 4219 1204 4116 
Q 875 4013 500 3803 
L 500 4441 
Q 881 4594 1212 4672 
Q 1544 4750 1819 4750 
Q 2544 4750 2975 4387 
Q 3406 4025 3406 3419 
Q 3406 3131 3298 2873 
Q 3191 2616 2906 2266 
Q 2828 2175 2409 1742 
Q 1991 1309 1228 531 
z
" transform="scale(0.015625)"/>
       </defs>
       <use xlink:href="#DejaVuSans-2212"/>
       <use xlink:href="#DejaVuSans-30" x="83.789062"/>
       <use xlink:href="#DejaVuSans-2e" x="147.412109"/>
       <use xlink:href="#DejaVuSans-32" x="179.199219"/>
      </g>
     </g>
    </g>
    <g id="ytick_3">
     <g id="line2d_8">
      <g>
       <use xlink:href="#m01b463e4f9" x="56.585" y="199.924151" style="stroke: #000000; stroke-width: 0.8"/>
      </g>
     </g>
     <g id="text_9">
      <!-- 0.1 -->
      <g transform="translate(25.302188 203.723369) scale(0.1 -0.1)">
       <use xlink:href="#DejaVuSans-2212"/>
       <use xlink:href="#DejaVuSans-30" x="83.789062"/>
       <use xlink:href="#DejaVuSans-2e" x="147.412109"/>
       <use xlink:href="#DejaVuSans-31" x="179.199219"/>
      </g>
     </g>
    </g>
    <g id="ytick_4">
     <g id="line2d_9">
      <g>
       <use xlink:href="#m01b463e4f9" x="56.585" y="157.22154" style="stroke: #000000; stroke-width: 0.8"/>
      </g>
     </g>
     <g id="text_10">
      <!-- 0.0 -->
      <g transform="translate(33.681875 161.020758) scale(0.1 -0.1)">
       <use xlink:href="#DejaVuSans-30"/>
       <use xlink:href="#DejaVuSans-2e" x="63.623047"/>
       <use xlink:href="#DejaVuSans-30" x="95.410156"/>
      </g>
     </g>
    </g>
    <g id="ytick_5">
     <g id="line2d_10">
      <g>
       <use xlink:href="#m01b463e4f9" x="56.585" y="114.518928" style="stroke: #000000; stroke-width: 0.8"/>
      </g>
     </g>
     <g id="text_11">
      <!-- 0.1 -->
      <g transform="translate(33.681875 118.318147) scale(0.1 -0.1)">
       <use xlink:href="#DejaVuSans-30"/>
       <use xlink:href="#DejaVuSans-2e" x="63.623047"/>
       <use xlink:href="#DejaVuSans-31" x="95.410156"/>
      </g>
     </g>
    </g>
    <g id="ytick_6">
     <g id="line2d_11">
      <g>
       <use xlink:href="#m01b463e4f9" x="56.585" y="71.816317" style="stroke: #000000; stroke-width: 0.8"/>
      </g>
     </g>
     <g id="text_12">
      <!-- 0.2 -->
      <g transform="translate(33.681875 75.615536) scale(0.1 -0.1)">
       <use xlink:href="#DejaVuSans-30"/>
       <use xlink:href="#DejaVuSans-2e" x="63.623047"/>
       <use xlink:href="#DejaVuSans-32" x="95.410156"/>
      </g>
     </g>
    </g>
    <g id="ytick_7">
     <g id="line2d_12">
      <g>
       <use xlink:href="#m01b463e4f9" x="56.585" y="29.113706" style="stroke: #000000; stroke-width: 0.8"/>
      </g>
     </g>
     <g id="text_13">
      <!-- 0.3 -->
      <g transform="translate(33.681875 32.912925) scale(0.1 -0.1)">
       <use xlink:href="#DejaVuSans-30"/>
       <use xlink:href="#DejaVuSans-2e" x="63.623047"/>
       <use xlink:href="#DejaVuSans-33" x="95.410156"/>
      </g>
     </g>
    </g>
    <g id="text_14">
     <!-- count_frac -->
     <g transform="translate(18.944375 183.455156) rotate(-90) scale(0.1 -0.1)">
      <defs>
       <path id="DejaVuSans-63" d="M 3122 3366 
L 3122 2828 
Q 2878 2963 2633 3030 
Q 2388 3097 2138 3097 
Q 1578 3097 1268 2742 
Q 959 2388 959 1747 
Q 959 1106 1268 751 
Q 1578 397 2138 397 
Q 2388 397 2633 464 
Q 2878 531 3122 666 
L 3122 134 
Q 2881 22 2623 -34 
Q 2366 -91 2075 -91 
Q 1284 -91 818 406 
Q 353 903 353 1747 
Q 353 2603 823 3093 
Q 1294 3584 2113 3584 
Q 2378 3584 2631 3529 
Q 2884 3475 3122 3366 
z
" transform="scale(0.015625)"/>
       <path id="DejaVuSans-6f" d="M 1959 3097 
Q 1497 3097 1228 2736 
Q 959 2375 959 1747 
Q 959 1119 1226 758 
Q 1494 397 1959 397 
Q 2419 397 2687 759 
Q 2956 1122 2956 1747 
Q 2956 2369 2687 2733 
Q 2419 3097 1959 3097 
z
M 1959 3584 
Q 2709 3584 3137 3096 
Q 3566 2609 3566 1747 
Q 3566 888 3137 398 
Q 2709 -91 1959 -91 
Q 1206 -91 779 398 
Q 353 888 353 1747 
Q 353 2609 779 3096 
Q 1206 3584 1959 3584 
z
" transform="scale(0.015625)"/>
       <path id="DejaVuSans-75" d="M 544 1381 
L 544 3500 
L 1119 3500 
L 1119 1403 
Q 1119 906 1312 657 
Q 1506 409 1894 409 
Q 2359 409 2629 706 
Q 2900 1003 2900 1516 
L 2900 3500 
L 3475 3500 
L 3475 0 
L 2900 0 
L 2900 538 
Q 2691 219 2414 64 
Q 2138 -91 1772 -91 
Q 1169 -91 856 284 
Q 544 659 544 1381 
z
M 1991 3584 
L 1991 3584 
z
" transform="scale(0.015625)"/>
       <path id="DejaVuSans-6e" d="M 3513 2113 
L 3513 0 
L 2938 0 
L 2938 2094 
Q 2938 2591 2744 2837 
Q 2550 3084 2163 3084 
Q 1697 3084 1428 2787 
Q 1159 2491 1159 1978 
L 1159 0 
L 581 0 
L 581 3500 
L 1159 3500 
L 1159 2956 
Q 1366 3272 1645 3428 
Q 1925 3584 2291 3584 
Q 2894 3584 3203 3211 
Q 3513 2838 3513 2113 
z
" transform="scale(0.015625)"/>
       <path id="DejaVuSans-74" d="M 1172 4494 
L 1172 3500 
L 2356 3500 
L 2356 3053 
L 1172 3053 
L 1172 1153 
Q 1172 725 1289 603 
Q 1406 481 1766 481 
L 2356 481 
L 2356 0 
L 1766 0 
Q 1100 0 847 248 
Q 594 497 594 1153 
L 594 3053 
L 172 3053 
L 172 3500 
L 594 3500 
L 594 4494 
L 1172 4494 
z
" transform="scale(0.015625)"/>
       <path id="DejaVuSans-66" d="M 2375 4863 
L 2375 4384 
L 1825 4384 
Q 1516 4384 1395 4259 
Q 1275 4134 1275 3809 
L 1275 3500 
L 2222 3500 
L 2222 3053 
L 1275 3053 
L 1275 0 
L 697 0 
L 697 3053 
L 147 3053 
L 147 3500 
L 697 3500 
L 697 3744 
Q 697 4328 969 4595 
Q 1241 4863 1831 4863 
L 2375 4863 
z
" transform="scale(0.015625)"/>
       <path id="DejaVuSans-72" d="M 2631 2963 
Q 2534 3019 2420 3045 
Q 2306 3072 2169 3072 
Q 1681 3072 1420 2755 
Q 1159 2438 1159 1844 
L 1159 0 
L 581 0 
L 581 3500 
L 1159 3500 
L 1159 2956 
Q 1341 3275 1631 3429 
Q 1922 3584 2338 3584 
Q 2397 3584 2469 3576 
Q 2541 3569 2628 3553 
L 2631 2963 
z
" transform="scale(0.015625)"/>
       <path id="DejaVuSans-61" d="M 2194 1759 
Q 1497 1759 1228 1600 
Q 959 1441 959 1056 
Q 959 750 1161 570 
Q 1363 391 1709 391 
Q 2188 391 2477 730 
Q 2766 1069 2766 1631 
L 2766 1759 
L 2194 1759 
z
M 3341 1997 
L 3341 0 
L 2766 0 
L 2766 531 
Q 2569 213 2275 61 
Q 1981 -91 1556 -91 
Q 1019 -91 701 211 
Q 384 513 384 1019 
Q 384 1609 779 1909 
Q 1175 2209 1959 2209 
L 2766 2209 
L 2766 2266 
Q 2766 2663 2505 2880 
Q 2244 3097 1772 3097 
Q 1472 3097 1187 3025 
Q 903 2953 641 2809 
L 641 3341 
Q 956 3463 1253 3523 
Q 1550 3584 1831 3584 
Q 2591 3584 2966 3190 
Q 3341 2797 3341 1997 
z
" transform="scale(0.015625)"/>
      </defs>
      <use xlink:href="#DejaVuSans-63"/>
      <use xlink:href="#DejaVuSans-6f" x="54.980469"/>
      <use xlink:href="#DejaVuSans-75" x="116.162109"/>
      <use xlink:href="#DejaVuSans-6e" x="179.541016"/>
      <use xlink:href="#DejaVuSans-74" x="242.919922"/>
      <use xlink:href="#DejaVuSans-5f" x="282.128906"/>
      <use xlink:href="#DejaVuSans-66" x="332.128906"/>
      <use xlink:href="#DejaVuSans-72" x="367.333984"/>
      <use xlink:href="#DejaVuSans-61" x="408.447266"/>
      <use xlink:href="#DejaVuSans-63" x="469.726562"/>
     </g>
    </g>
   </g>
   <g id="patch_3">
    <path d="M 56.585 303.64 
L 56.585 10.8 
" style="fill: none; stroke: #000000; stroke-width: 0.8; stroke-linejoin: miter; stroke-linecap: square"/>
   </g>
   <g id="patch_4">
    <path d="M 437.792727 303.64 
L 437.792727 10.8 
" style="fill: none; stroke: #000000; stroke-width: 0.8; stroke-linejoin: miter; stroke-linecap: square"/>
   </g>
   <g id="patch_5">
    <path d="M 56.585 303.64 
L 437.792727 303.64 
" style="fill: none; stroke: #000000; stroke-width: 0.8; stroke-linejoin: miter; stroke-linecap: square"/>
   </g>
   <g id="patch_6">
    <path d="M 56.585 10.8 
L 437.792727 10.8 
" style="fill: none; stroke: #000000; stroke-width: 0.8; stroke-linejoin: miter; stroke-linecap: square"/>
   </g>
   <g id="legend_1">
    <g id="patch_7">
     <path d="M 217.417727 165.58125 
L 430.792727 165.58125 
Q 432.792727 165.58125 432.792727 163.58125 
L 432.792727 17.8 
Q 432.792727 15.8 430.792727 15.8 
L 217.417727 15.8 
Q 215.417727 15.8 215.417727 17.8 
L 215.417727 163.58125 
Q 215.417727 165.58125 217.417727 165.58125 
z
" style="fill: #ffffff; opacity: 0.8; stroke: #cccccc; stroke-linejoin: miter"/>
    </g>
    <g id="patch_8">
     <path d="M 219.417727 27.398438 
L 239.417727 27.398438 
L 239.417727 20.398438 
L 219.417727 20.398438 
z
" style="fill: #fb6207; stroke: #fb6207; stroke-linejoin: miter"/>
    </g>
    <g id="text_15">
     <!-- high-altitude illness -->
     <g transform="translate(247.417727 27.398438) scale(0.1 -0.1)">
      <defs>
       <path id="DejaVuSans-68" d="M 3513 2113 
L 3513 0 
L 2938 0 
L 2938 2094 
Q 2938 2591 2744 2837 
Q 2550 3084 2163 3084 
Q 1697 3084 1428 2787 
Q 1159 2491 1159 1978 
L 1159 0 
L 581 0 
L 581 4863 
L 1159 4863 
L 1159 2956 
Q 1366 3272 1645 3428 
Q 1925 3584 2291 3584 
Q 2894 3584 3203 3211 
Q 3513 2838 3513 2113 
z
" transform="scale(0.015625)"/>
       <path id="DejaVuSans-69" d="M 603 3500 
L 1178 3500 
L 1178 0 
L 603 0 
L 603 3500 
z
M 603 4863 
L 1178 4863 
L 1178 4134 
L 603 4134 
L 603 4863 
z
" transform="scale(0.015625)"/>
       <path id="DejaVuSans-67" d="M 2906 1791 
Q 2906 2416 2648 2759 
Q 2391 3103 1925 3103 
Q 1463 3103 1205 2759 
Q 947 2416 947 1791 
Q 947 1169 1205 825 
Q 1463 481 1925 481 
Q 2391 481 2648 825 
Q 2906 1169 2906 1791 
z
M 3481 434 
Q 3481 -459 3084 -895 
Q 2688 -1331 1869 -1331 
Q 1566 -1331 1297 -1286 
Q 1028 -1241 775 -1147 
L 775 -588 
Q 1028 -725 1275 -790 
Q 1522 -856 1778 -856 
Q 2344 -856 2625 -561 
Q 2906 -266 2906 331 
L 2906 616 
Q 2728 306 2450 153 
Q 2172 0 1784 0 
Q 1141 0 747 490 
Q 353 981 353 1791 
Q 353 2603 747 3093 
Q 1141 3584 1784 3584 
Q 2172 3584 2450 3431 
Q 2728 3278 2906 2969 
L 2906 3500 
L 3481 3500 
L 3481 434 
z
" transform="scale(0.015625)"/>
       <path id="DejaVuSans-2d" d="M 313 2009 
L 1997 2009 
L 1997 1497 
L 313 1497 
L 313 2009 
z
" transform="scale(0.015625)"/>
       <path id="DejaVuSans-6c" d="M 603 4863 
L 1178 4863 
L 1178 0 
L 603 0 
L 603 4863 
z
" transform="scale(0.015625)"/>
       <path id="DejaVuSans-64" d="M 2906 2969 
L 2906 4863 
L 3481 4863 
L 3481 0 
L 2906 0 
L 2906 525 
Q 2725 213 2448 61 
Q 2172 -91 1784 -91 
Q 1150 -91 751 415 
Q 353 922 353 1747 
Q 353 2572 751 3078 
Q 1150 3584 1784 3584 
Q 2172 3584 2448 3432 
Q 2725 3281 2906 2969 
z
M 947 1747 
Q 947 1113 1208 752 
Q 1469 391 1925 391 
Q 2381 391 2643 752 
Q 2906 1113 2906 1747 
Q 2906 2381 2643 2742 
Q 2381 3103 1925 3103 
Q 1469 3103 1208 2742 
Q 947 2381 947 1747 
z
" transform="scale(0.015625)"/>
       <path id="DejaVuSans-65" d="M 3597 1894 
L 3597 1613 
L 953 1613 
Q 991 1019 1311 708 
Q 1631 397 2203 397 
Q 2534 397 2845 478 
Q 3156 559 3463 722 
L 3463 178 
Q 3153 47 2828 -22 
Q 2503 -91 2169 -91 
Q 1331 -91 842 396 
Q 353 884 353 1716 
Q 353 2575 817 3079 
Q 1281 3584 2069 3584 
Q 2775 3584 3186 3129 
Q 3597 2675 3597 1894 
z
M 3022 2063 
Q 3016 2534 2758 2815 
Q 2500 3097 2075 3097 
Q 1594 3097 1305 2825 
Q 1016 2553 972 2059 
L 3022 2063 
z
" transform="scale(0.015625)"/>
       <path id="DejaVuSans-20" transform="scale(0.015625)"/>
       <path id="DejaVuSans-73" d="M 2834 3397 
L 2834 2853 
Q 2591 2978 2328 3040 
Q 2066 3103 1784 3103 
Q 1356 3103 1142 2972 
Q 928 2841 928 2578 
Q 928 2378 1081 2264 
Q 1234 2150 1697 2047 
L 1894 2003 
Q 2506 1872 2764 1633 
Q 3022 1394 3022 966 
Q 3022 478 2636 193 
Q 2250 -91 1575 -91 
Q 1294 -91 989 -36 
Q 684 19 347 128 
L 347 722 
Q 666 556 975 473 
Q 1284 391 1588 391 
Q 1994 391 2212 530 
Q 2431 669 2431 922 
Q 2431 1156 2273 1281 
Q 2116 1406 1581 1522 
L 1381 1569 
Q 847 1681 609 1914 
Q 372 2147 372 2553 
Q 372 3047 722 3315 
Q 1072 3584 1716 3584 
Q 2034 3584 2315 3537 
Q 2597 3491 2834 3397 
z
" transform="scale(0.015625)"/>
      </defs>
      <use xlink:href="#DejaVuSans-68"/>
      <use xlink:href="#DejaVuSans-69" x="63.378906"/>
      <use xlink:href="#DejaVuSans-67" x="91.162109"/>
      <use xlink:href="#DejaVuSans-68" x="154.638672"/>
      <use xlink:href="#DejaVuSans-2d" x="218.017578"/>
      <use xlink:href="#DejaVuSans-61" x="254.101562"/>
      <use xlink:href="#DejaVuSans-6c" x="315.380859"/>
      <use xlink:href="#DejaVuSans-74" x="343.164062"/>
      <use xlink:href="#DejaVuSans-69" x="382.373047"/>
      <use xlink:href="#DejaVuSans-74" x="410.15625"/>
      <use xlink:href="#DejaVuSans-75" x="449.365234"/>
      <use xlink:href="#DejaVuSans-64" x="512.744141"/>
      <use xlink:href="#DejaVuSans-65" x="576.220703"/>
      <use xlink:href="#DejaVuSans-20" x="637.744141"/>
      <use xlink:href="#DejaVuSans-69" x="669.53125"/>
      <use xlink:href="#DejaVuSans-6c" x="697.314453"/>
      <use xlink:href="#DejaVuSans-6c" x="725.097656"/>
      <use xlink:href="#DejaVuSans-6e" x="752.880859"/>
      <use xlink:href="#DejaVuSans-65" x="816.259766"/>
      <use xlink:href="#DejaVuSans-73" x="877.783203"/>
      <use xlink:href="#DejaVuSans-73" x="929.882812"/>
     </g>
    </g>
    <g id="patch_9">
     <path d="M 219.417727 42.076563 
L 239.417727 42.076563 
L 239.417727 35.076563 
L 219.417727 35.076563 
z
" style="fill: #fba981; stroke: #fba981; stroke-linejoin: miter"/>
    </g>
    <g id="text_16">
     <!-- lack of experience -->
     <g transform="translate(247.417727 42.076563) scale(0.1 -0.1)">
      <defs>
       <path id="DejaVuSans-6b" d="M 581 4863 
L 1159 4863 
L 1159 1991 
L 2875 3500 
L 3609 3500 
L 1753 1863 
L 3688 0 
L 2938 0 
L 1159 1709 
L 1159 0 
L 581 0 
L 581 4863 
z
" transform="scale(0.015625)"/>
       <path id="DejaVuSans-70" d="M 1159 525 
L 1159 -1331 
L 581 -1331 
L 581 3500 
L 1159 3500 
L 1159 2969 
Q 1341 3281 1617 3432 
Q 1894 3584 2278 3584 
Q 2916 3584 3314 3078 
Q 3713 2572 3713 1747 
Q 3713 922 3314 415 
Q 2916 -91 2278 -91 
Q 1894 -91 1617 61 
Q 1341 213 1159 525 
z
M 3116 1747 
Q 3116 2381 2855 2742 
Q 2594 3103 2138 3103 
Q 1681 3103 1420 2742 
Q 1159 2381 1159 1747 
Q 1159 1113 1420 752 
Q 1681 391 2138 391 
Q 2594 391 2855 752 
Q 3116 1113 3116 1747 
z
" transform="scale(0.015625)"/>
      </defs>
      <use xlink:href="#DejaVuSans-6c"/>
      <use xlink:href="#DejaVuSans-61" x="27.783203"/>
      <use xlink:href="#DejaVuSans-63" x="89.0625"/>
      <use xlink:href="#DejaVuSans-6b" x="144.042969"/>
      <use xlink:href="#DejaVuSans-20" x="201.953125"/>
      <use xlink:href="#DejaVuSans-6f" x="233.740234"/>
      <use xlink:href="#DejaVuSans-66" x="294.921875"/>
      <use xlink:href="#DejaVuSans-20" x="330.126953"/>
      <use xlink:href="#DejaVuSans-65" x="361.914062"/>
      <use xlink:href="#DejaVuSans-78" x="421.6875"/>
      <use xlink:href="#DejaVuSans-70" x="480.867188"/>
      <use xlink:href="#DejaVuSans-65" x="544.34375"/>
      <use xlink:href="#DejaVuSans-72" x="605.867188"/>
      <use xlink:href="#DejaVuSans-69" x="646.980469"/>
      <use xlink:href="#DejaVuSans-65" x="674.763672"/>
      <use xlink:href="#DejaVuSans-6e" x="736.287109"/>
      <use xlink:href="#DejaVuSans-63" x="799.666016"/>
      <use xlink:href="#DejaVuSans-65" x="854.646484"/>
     </g>
    </g>
    <g id="patch_10">
     <path d="M 219.417727 56.754688 
L 239.417727 56.754688 
L 239.417727 49.754688 
L 219.417727 49.754688 
z
" style="fill: #ca0203; stroke: #ca0203; stroke-linejoin: miter"/>
    </g>
    <g id="text_17">
     <!-- lack of fitness -->
     <g transform="translate(247.417727 56.754688) scale(0.1 -0.1)">
      <use xlink:href="#DejaVuSans-6c"/>
      <use xlink:href="#DejaVuSans-61" x="27.783203"/>
      <use xlink:href="#DejaVuSans-63" x="89.0625"/>
      <use xlink:href="#DejaVuSans-6b" x="144.042969"/>
      <use xlink:href="#DejaVuSans-20" x="201.953125"/>
      <use xlink:href="#DejaVuSans-6f" x="233.740234"/>
      <use xlink:href="#DejaVuSans-66" x="294.921875"/>
      <use xlink:href="#DejaVuSans-20" x="330.126953"/>
      <use xlink:href="#DejaVuSans-66" x="361.914062"/>
      <use xlink:href="#DejaVuSans-69" x="397.119141"/>
      <use xlink:href="#DejaVuSans-74" x="424.902344"/>
      <use xlink:href="#DejaVuSans-6e" x="464.111328"/>
      <use xlink:href="#DejaVuSans-65" x="527.490234"/>
      <use xlink:href="#DejaVuSans-73" x="589.013672"/>
      <use xlink:href="#DejaVuSans-73" x="641.113281"/>
     </g>
    </g>
    <g id="patch_11">
     <path d="M 219.417727 71.432813 
L 239.417727 71.432813 
L 239.417727 64.432813 
L 219.417727 64.432813 
z
" style="fill: #ead8da; stroke: #ead8da; stroke-linejoin: miter"/>
    </g>
    <g id="text_18">
     <!-- people falling -->
     <g transform="translate(247.417727 71.432813) scale(0.1 -0.1)">
      <use xlink:href="#DejaVuSans-70"/>
      <use xlink:href="#DejaVuSans-65" x="63.476562"/>
      <use xlink:href="#DejaVuSans-6f" x="125"/>
      <use xlink:href="#DejaVuSans-70" x="186.181641"/>
      <use xlink:href="#DejaVuSans-6c" x="249.658203"/>
      <use xlink:href="#DejaVuSans-65" x="277.441406"/>
      <use xlink:href="#DejaVuSans-20" x="338.964844"/>
      <use xlink:href="#DejaVuSans-66" x="370.751953"/>
      <use xlink:href="#DejaVuSans-61" x="405.957031"/>
      <use xlink:href="#DejaVuSans-6c" x="467.236328"/>
      <use xlink:href="#DejaVuSans-6c" x="495.019531"/>
      <use xlink:href="#DejaVuSans-69" x="522.802734"/>
      <use xlink:href="#DejaVuSans-6e" x="550.585938"/>
      <use xlink:href="#DejaVuSans-67" x="613.964844"/>
     </g>
    </g>
    <g id="patch_12">
     <path d="M 219.417727 86.110938 
L 239.417727 86.110938 
L 239.417727 79.110938 
L 219.417727 79.110938 
z
" style="fill: #131220; stroke: #131220; stroke-linejoin: miter"/>
    </g>
    <g id="text_19">
     <!-- hypothermia -->
     <g transform="translate(247.417727 86.110938) scale(0.1 -0.1)">
      <defs>
       <path id="DejaVuSans-79" d="M 2059 -325 
Q 1816 -950 1584 -1140 
Q 1353 -1331 966 -1331 
L 506 -1331 
L 506 -850 
L 844 -850 
Q 1081 -850 1212 -737 
Q 1344 -625 1503 -206 
L 1606 56 
L 191 3500 
L 800 3500 
L 1894 763 
L 2988 3500 
L 3597 3500 
L 2059 -325 
z
" transform="scale(0.015625)"/>
       <path id="DejaVuSans-6d" d="M 3328 2828 
Q 3544 3216 3844 3400 
Q 4144 3584 4550 3584 
Q 5097 3584 5394 3201 
Q 5691 2819 5691 2113 
L 5691 0 
L 5113 0 
L 5113 2094 
Q 5113 2597 4934 2840 
Q 4756 3084 4391 3084 
Q 3944 3084 3684 2787 
Q 3425 2491 3425 1978 
L 3425 0 
L 2847 0 
L 2847 2094 
Q 2847 2600 2669 2842 
Q 2491 3084 2119 3084 
Q 1678 3084 1418 2786 
Q 1159 2488 1159 1978 
L 1159 0 
L 581 0 
L 581 3500 
L 1159 3500 
L 1159 2956 
Q 1356 3278 1631 3431 
Q 1906 3584 2284 3584 
Q 2666 3584 2933 3390 
Q 3200 3197 3328 2828 
z
" transform="scale(0.015625)"/>
      </defs>
      <use xlink:href="#DejaVuSans-68"/>
      <use xlink:href="#DejaVuSans-79" x="63.378906"/>
      <use xlink:href="#DejaVuSans-70" x="122.558594"/>
      <use xlink:href="#DejaVuSans-6f" x="186.035156"/>
      <use xlink:href="#DejaVuSans-74" x="247.216797"/>
      <use xlink:href="#DejaVuSans-68" x="286.425781"/>
      <use xlink:href="#DejaVuSans-65" x="349.804688"/>
      <use xlink:href="#DejaVuSans-72" x="411.328125"/>
      <use xlink:href="#DejaVuSans-6d" x="450.691406"/>
      <use xlink:href="#DejaVuSans-69" x="548.103516"/>
      <use xlink:href="#DejaVuSans-61" x="575.886719"/>
     </g>
    </g>
    <g id="patch_13">
     <path d="M 219.417727 100.789063 
L 239.417727 100.789063 
L 239.417727 93.789063 
L 219.417727 93.789063 
z
" style="fill: #54658b; stroke: #54658b; stroke-linejoin: miter"/>
    </g>
    <g id="text_20">
     <!-- inadequate preparation -->
     <g transform="translate(247.417727 100.789063) scale(0.1 -0.1)">
      <defs>
       <path id="DejaVuSans-71" d="M 947 1747 
Q 947 1113 1208 752 
Q 1469 391 1925 391 
Q 2381 391 2643 752 
Q 2906 1113 2906 1747 
Q 2906 2381 2643 2742 
Q 2381 3103 1925 3103 
Q 1469 3103 1208 2742 
Q 947 2381 947 1747 
z
M 2906 525 
Q 2725 213 2448 61 
Q 2172 -91 1784 -91 
Q 1150 -91 751 415 
Q 353 922 353 1747 
Q 353 2572 751 3078 
Q 1150 3584 1784 3584 
Q 2172 3584 2448 3432 
Q 2725 3281 2906 2969 
L 2906 3500 
L 3481 3500 
L 3481 -1331 
L 2906 -1331 
L 2906 525 
z
" transform="scale(0.015625)"/>
      </defs>
      <use xlink:href="#DejaVuSans-69"/>
      <use xlink:href="#DejaVuSans-6e" x="27.783203"/>
      <use xlink:href="#DejaVuSans-61" x="91.162109"/>
      <use xlink:href="#DejaVuSans-64" x="152.441406"/>
      <use xlink:href="#DejaVuSans-65" x="215.917969"/>
      <use xlink:href="#DejaVuSans-71" x="277.441406"/>
      <use xlink:href="#DejaVuSans-75" x="340.917969"/>
      <use xlink:href="#DejaVuSans-61" x="404.296875"/>
      <use xlink:href="#DejaVuSans-74" x="465.576172"/>
      <use xlink:href="#DejaVuSans-65" x="504.785156"/>
      <use xlink:href="#DejaVuSans-20" x="566.308594"/>
      <use xlink:href="#DejaVuSans-70" x="598.095703"/>
      <use xlink:href="#DejaVuSans-72" x="661.572266"/>
      <use xlink:href="#DejaVuSans-65" x="700.435547"/>
      <use xlink:href="#DejaVuSans-70" x="761.958984"/>
      <use xlink:href="#DejaVuSans-61" x="825.435547"/>
      <use xlink:href="#DejaVuSans-72" x="886.714844"/>
      <use xlink:href="#DejaVuSans-61" x="927.828125"/>
      <use xlink:href="#DejaVuSans-74" x="989.107422"/>
      <use xlink:href="#DejaVuSans-69" x="1028.316406"/>
      <use xlink:href="#DejaVuSans-6f" x="1056.099609"/>
      <use xlink:href="#DejaVuSans-6e" x="1117.28125"/>
     </g>
    </g>
    <g id="patch_14">
     <path d="M 219.417727 115.467188 
L 239.417727 115.467188 
L 239.417727 108.467188 
L 219.417727 108.467188 
z
" style="fill: #f2b202; stroke: #f2b202; stroke-linejoin: miter"/>
    </g>
    <g id="text_21">
     <!-- frostbite -->
     <g transform="translate(247.417727 115.467188) scale(0.1 -0.1)">
      <defs>
       <path id="DejaVuSans-62" d="M 3116 1747 
Q 3116 2381 2855 2742 
Q 2594 3103 2138 3103 
Q 1681 3103 1420 2742 
Q 1159 2381 1159 1747 
Q 1159 1113 1420 752 
Q 1681 391 2138 391 
Q 2594 391 2855 752 
Q 3116 1113 3116 1747 
z
M 1159 2969 
Q 1341 3281 1617 3432 
Q 1894 3584 2278 3584 
Q 2916 3584 3314 3078 
Q 3713 2572 3713 1747 
Q 3713 922 3314 415 
Q 2916 -91 2278 -91 
Q 1894 -91 1617 61 
Q 1341 213 1159 525 
L 1159 0 
L 581 0 
L 581 4863 
L 1159 4863 
L 1159 2969 
z
" transform="scale(0.015625)"/>
      </defs>
      <use xlink:href="#DejaVuSans-66"/>
      <use xlink:href="#DejaVuSans-72" x="35.205078"/>
      <use xlink:href="#DejaVuSans-6f" x="74.068359"/>
      <use xlink:href="#DejaVuSans-73" x="135.25"/>
      <use xlink:href="#DejaVuSans-74" x="187.349609"/>
      <use xlink:href="#DejaVuSans-62" x="226.558594"/>
      <use xlink:href="#DejaVuSans-69" x="290.035156"/>
      <use xlink:href="#DejaVuSans-74" x="317.818359"/>
      <use xlink:href="#DejaVuSans-65" x="357.027344"/>
     </g>
    </g>
    <g id="patch_15">
     <path d="M 219.417727 130.145313 
L 239.417727 130.145313 
L 239.417727 123.145313 
L 219.417727 123.145313 
z
" style="fill: #f7dfaf; stroke: #f7dfaf; stroke-linejoin: miter"/>
    </g>
    <g id="text_22">
     <!-- extreme cold -->
     <g transform="translate(247.417727 130.145313) scale(0.1 -0.1)">
      <use xlink:href="#DejaVuSans-65"/>
      <use xlink:href="#DejaVuSans-78" x="59.773438"/>
      <use xlink:href="#DejaVuSans-74" x="118.953125"/>
      <use xlink:href="#DejaVuSans-72" x="158.162109"/>
      <use xlink:href="#DejaVuSans-65" x="197.025391"/>
      <use xlink:href="#DejaVuSans-6d" x="258.548828"/>
      <use xlink:href="#DejaVuSans-65" x="355.960938"/>
      <use xlink:href="#DejaVuSans-20" x="417.484375"/>
      <use xlink:href="#DejaVuSans-63" x="449.271484"/>
      <use xlink:href="#DejaVuSans-6f" x="504.251953"/>
      <use xlink:href="#DejaVuSans-6c" x="565.433594"/>
      <use xlink:href="#DejaVuSans-64" x="593.216797"/>
     </g>
    </g>
    <g id="patch_16">
     <path d="M 219.417727 144.823438 
L 239.417727 144.823438 
L 239.417727 137.823438 
L 219.417727 137.823438 
z
" style="fill: #01a0e6; stroke: #01a0e6; stroke-linejoin: miter"/>
    </g>
    <g id="text_23">
     <!-- respiratory problems -->
     <g transform="translate(247.417727 144.823438) scale(0.1 -0.1)">
      <use xlink:href="#DejaVuSans-72"/>
      <use xlink:href="#DejaVuSans-65" x="38.863281"/>
      <use xlink:href="#DejaVuSans-73" x="100.386719"/>
      <use xlink:href="#DejaVuSans-70" x="152.486328"/>
      <use xlink:href="#DejaVuSans-69" x="215.962891"/>
      <use xlink:href="#DejaVuSans-72" x="243.746094"/>
      <use xlink:href="#DejaVuSans-61" x="284.859375"/>
      <use xlink:href="#DejaVuSans-74" x="346.138672"/>
      <use xlink:href="#DejaVuSans-6f" x="385.347656"/>
      <use xlink:href="#DejaVuSans-72" x="446.529297"/>
      <use xlink:href="#DejaVuSans-79" x="487.642578"/>
      <use xlink:href="#DejaVuSans-20" x="546.822266"/>
      <use xlink:href="#DejaVuSans-70" x="578.609375"/>
      <use xlink:href="#DejaVuSans-72" x="642.085938"/>
      <use xlink:href="#DejaVuSans-6f" x="680.949219"/>
      <use xlink:href="#DejaVuSans-62" x="742.130859"/>
      <use xlink:href="#DejaVuSans-6c" x="805.607422"/>
      <use xlink:href="#DejaVuSans-65" x="833.390625"/>
      <use xlink:href="#DejaVuSans-6d" x="894.914062"/>
      <use xlink:href="#DejaVuSans-73" x="992.326172"/>
     </g>
    </g>
    <g id="patch_17">
     <path d="M 219.417727 159.501563 
L 239.417727 159.501563 
L 239.417727 152.501563 
L 219.417727 152.501563 
z
" style="fill: #48c8f6; stroke: #48c8f6; stroke-linejoin: miter"/>
    </g>
    <g id="text_24">
     <!-- medical issues (not altitude-related) -->
     <g transform="translate(247.417727 159.501563) scale(0.1 -0.1)">
      <defs>
       <path id="DejaVuSans-28" d="M 1984 4856 
Q 1566 4138 1362 3434 
Q 1159 2731 1159 2009 
Q 1159 1288 1364 580 
Q 1569 -128 1984 -844 
L 1484 -844 
Q 1016 -109 783 600 
Q 550 1309 550 2009 
Q 550 2706 781 3412 
Q 1013 4119 1484 4856 
L 1984 4856 
z
" transform="scale(0.015625)"/>
       <path id="DejaVuSans-29" d="M 513 4856 
L 1013 4856 
Q 1481 4119 1714 3412 
Q 1947 2706 1947 2009 
Q 1947 1309 1714 600 
Q 1481 -109 1013 -844 
L 513 -844 
Q 928 -128 1133 580 
Q 1338 1288 1338 2009 
Q 1338 2731 1133 3434 
Q 928 4138 513 4856 
z
" transform="scale(0.015625)"/>
      </defs>
      <use xlink:href="#DejaVuSans-6d"/>
      <use xlink:href="#DejaVuSans-65" x="97.412109"/>
      <use xlink:href="#DejaVuSans-64" x="158.935547"/>
      <use xlink:href="#DejaVuSans-69" x="222.412109"/>
      <use xlink:href="#DejaVuSans-63" x="250.195312"/>
      <use xlink:href="#DejaVuSans-61" x="305.175781"/>
      <use xlink:href="#DejaVuSans-6c" x="366.455078"/>
      <use xlink:href="#DejaVuSans-20" x="394.238281"/>
      <use xlink:href="#DejaVuSans-69" x="426.025391"/>
      <use xlink:href="#DejaVuSans-73" x="453.808594"/>
      <use xlink:href="#DejaVuSans-73" x="505.908203"/>
      <use xlink:href="#DejaVuSans-75" x="558.007812"/>
      <use xlink:href="#DejaVuSans-65" x="621.386719"/>
      <use xlink:href="#DejaVuSans-73" x="682.910156"/>
      <use xlink:href="#DejaVuSans-20" x="735.009766"/>
      <use xlink:href="#DejaVuSans-28" x="766.796875"/>
      <use xlink:href="#DejaVuSans-6e" x="805.810547"/>
      <use xlink:href="#DejaVuSans-6f" x="869.189453"/>
      <use xlink:href="#DejaVuSans-74" x="930.371094"/>
      <use xlink:href="#DejaVuSans-20" x="969.580078"/>
      <use xlink:href="#DejaVuSans-61" x="1001.367188"/>
      <use xlink:href="#DejaVuSans-6c" x="1062.646484"/>
      <use xlink:href="#DejaVuSans-74" x="1090.429688"/>
      <use xlink:href="#DejaVuSans-69" x="1129.638672"/>
      <use xlink:href="#DejaVuSans-74" x="1157.421875"/>
      <use xlink:href="#DejaVuSans-75" x="1196.630859"/>
      <use xlink:href="#DejaVuSans-64" x="1260.009766"/>
      <use xlink:href="#DejaVuSans-65" x="1323.486328"/>
      <use xlink:href="#DejaVuSans-2d" x="1385.009766"/>
      <use xlink:href="#DejaVuSans-72" x="1421.09375"/>
      <use xlink:href="#DejaVuSans-65" x="1459.957031"/>
      <use xlink:href="#DejaVuSans-6c" x="1521.480469"/>
      <use xlink:href="#DejaVuSans-61" x="1549.263672"/>
      <use xlink:href="#DejaVuSans-74" x="1610.542969"/>
      <use xlink:href="#DejaVuSans-65" x="1649.751953"/>
      <use xlink:href="#DejaVuSans-64" x="1711.275391"/>
      <use xlink:href="#DejaVuSans-29" x="1774.751953"/>
     </g>
    </g>
   </g>
  </g>
 </g>
 <defs>
  <clipPath id="pbf26d461f4">
   <rect x="56.585" y="10.8" width="381.207727" height="292.84"/>
  </clipPath>
 </defs>
</svg>
