<?xml version="1.0" encoding="utf-8" standalone="no"?>
<!DOCTYPE svg PUBLIC "-//W3C//DTD SVG 1.1//EN"
  "http://www.w3.org/Graphics/SVG/1.1/DTD/svg11.dtd">
<svg xmlns:xlink="http://www.w3.org/1999/xlink" width="1008pt" height="432pt" viewBox="0 0 1008 432" xmlns="http://www.w3.org/2000/svg" version="1.1">
 <metadata>
  <rdf:RDF xmlns:dc="http://purl.org/dc/elements/1.1/" xmlns:cc="http://creativecommons.org/ns#" xmlns:rdf="http://www.w3.org/1999/02/22-rdf-syntax-ns#">
   <cc:Work>
    <dc:type rdf:resource="http://purl.org/dc/dcmitype/StillImage"/>
    <dc:date>2024-02-02T00:27:44.812449</dc:date>
    <dc:format>image/svg+xml</dc:format>
    <dc:creator>
     <cc:Agent>
      <dc:title>Matplotlib v3.8.2, https://matplotlib.org/</dc:title>
     </cc:Agent>
    </dc:creator>
   </cc:Work>
  </rdf:RDF>
 </metadata>
 <defs>
  <style type="text/css">*{stroke-linejoin: round; stroke-linecap: butt}</style>
 </defs>
 <g id="figure_1">
  <g id="patch_1">
   <path d="M 0 432 
L 1008 432 
L 1008 0 
L 0 0 
z
" style="fill: #ffffff"/>
  </g>
  <g id="axes_1">
   <g id="patch_2">
    <path d="M 62.93 390.04 
L 986.359091 390.04 
L 986.359091 10.8 
L 62.93 10.8 
z
" style="fill: #ffffff"/>
   </g>
   <g id="PolyCollection_1">
    <defs>
     <path id="m7f642b1f80" d="M 104.90405 -205.952687 
L 104.90405 -204.082424 
L 113.383656 -207.111764 
L 121.863262 -209.59198 
L 130.342868 -211.577983 
L 138.822473 -213.124685 
L 147.302079 -214.287 
L 155.781685 -215.11984 
L 164.261291 -215.678117 
L 172.740897 -216.016744 
L 181.220503 -216.190634 
L 189.700109 -216.254699 
L 198.179715 -216.263851 
L 206.659321 -212.605672 
L 215.138927 -202.575182 
L 223.618533 -187.588451 
L 232.098139 -169.061546 
L 240.577745 -148.410538 
L 249.057351 -127.051495 
L 257.536957 -106.400487 
L 266.016563 -87.873582 
L 274.496169 -72.88685 
L 282.975775 -62.85636 
L 291.455381 -59.198182 
L 299.934987 -62.199818 
L 308.414593 -70.430112 
L 316.894199 -82.727139 
L 325.373805 -97.928976 
L 333.853411 -114.873698 
L 342.333017 -132.399383 
L 350.812623 -149.344105 
L 359.292229 -164.545942 
L 367.771835 -176.842969 
L 376.251441 -185.073263 
L 384.731047 -188.074899 
L 393.210653 -187.92085 
L 401.690259 -187.498458 
L 410.169865 -186.867354 
L 418.649471 -186.08717 
L 427.129077 -185.217539 
L 435.608683 -184.318092 
L 444.088289 -183.44846 
L 452.567895 -182.668277 
L 461.047501 -182.037173 
L 469.527107 -181.614781 
L 478.006713 -181.460732 
L 486.486319 -182.332613 
L 494.965925 -184.723255 
L 503.445531 -188.295155 
L 511.925136 -192.710811 
L 520.404742 -197.63272 
L 528.884348 -202.723381 
L 537.363954 -207.645291 
L 545.84356 -212.060947 
L 554.323166 -215.632847 
L 562.802772 -218.023489 
L 571.282378 -218.89537 
L 579.761984 -217.122059 
L 588.24159 -212.259757 
L 596.721196 -204.994905 
L 605.200802 -196.013946 
L 613.680408 -186.003324 
L 622.160014 -175.64948 
L 630.63962 -165.638857 
L 639.119226 -156.657898 
L 647.598832 -149.393046 
L 656.078438 -144.530744 
L 664.558044 -142.757434 
L 673.03765 -143.014308 
L 681.517256 -143.751679 
L 689.996862 -144.919669 
L 698.476468 -146.4684 
L 706.956074 -148.347994 
L 715.43568 -150.508574 
L 723.915286 -152.900262 
L 732.394892 -155.47318 
L 740.874498 -158.177451 
L 749.354104 -160.963196 
L 757.83371 -163.780537 
L 766.313316 -167.479279 
L 774.792922 -172.681765 
L 783.272528 -178.99693 
L 791.752134 -186.033711 
L 800.23174 -193.401041 
L 808.711346 -200.707858 
L 817.190952 -207.563095 
L 825.670558 -213.575689 
L 834.150164 -218.354574 
L 842.62977 -221.508686 
L 851.109376 -222.64696 
L 859.588982 -222.612505 
L 868.068588 -222.452637 
L 876.548194 -222.082596 
L 885.027799 -221.417624 
L 893.507405 -220.372963 
L 901.987011 -218.863853 
L 910.466617 -216.805538 
L 918.946223 -214.113257 
L 927.425829 -210.702253 
L 935.905435 -206.487767 
L 944.385041 -201.385041 
L 944.385041 -211.983198 
L 944.385041 -211.983198 
L 935.905435 -214.537439 
L 927.425829 -216.83295 
L 918.946223 -218.87299 
L 910.466617 -220.660818 
L 901.987011 -222.199694 
L 893.507405 -223.492878 
L 885.027799 -224.543629 
L 876.548194 -225.355205 
L 868.068588 -225.930867 
L 859.588982 -226.273874 
L 851.109376 -226.387486 
L 842.62977 -226.196623 
L 834.150164 -225.647981 
L 825.670558 -224.777481 
L 817.190952 -223.621044 
L 808.711346 -222.214592 
L 800.23174 -220.594044 
L 791.752134 -218.795322 
L 783.272528 -216.854347 
L 774.792922 -214.80704 
L 766.313316 -212.689321 
L 757.83371 -210.537112 
L 749.354104 -207.654589 
L 740.874498 -203.534395 
L 732.394892 -198.495154 
L 723.915286 -192.855488 
L 715.43568 -186.934022 
L 706.956074 -181.049379 
L 698.476468 -175.520183 
L 689.996862 -170.665056 
L 681.517256 -166.802622 
L 673.03765 -164.251504 
L 664.558044 -163.330327 
L 656.078438 -164.668038 
L 647.598832 -168.335958 
L 639.119226 -173.816262 
L 630.63962 -180.591125 
L 622.160014 -188.142724 
L 613.680408 -195.953235 
L 605.200802 -203.504834 
L 596.721196 -210.279698 
L 588.24159 -215.760001 
L 579.761984 -219.427921 
L 571.282378 -220.765633 
L 562.802772 -220.31483 
L 554.323166 -219.078758 
L 545.84356 -217.231922 
L 537.363954 -214.948825 
L 528.884348 -212.403971 
L 520.404742 -209.771865 
L 511.925136 -207.227012 
L 503.445531 -204.943915 
L 494.965925 -203.097078 
L 486.486319 -201.861006 
L 478.006713 -201.410204 
L 469.527107 -201.477133 
L 461.047501 -201.660649 
L 452.567895 -201.934843 
L 444.088289 -202.273807 
L 435.608683 -202.651634 
L 427.129077 -203.042415 
L 418.649471 -203.420241 
L 410.169865 -203.759206 
L 401.690259 -204.0334 
L 393.210653 -204.216916 
L 384.731047 -204.283845 
L 376.251441 -201.892046 
L 367.771835 -195.333889 
L 359.292229 -185.535229 
L 350.812623 -173.421926 
L 342.333017 -159.919837 
L 333.853411 -145.954818 
L 325.373805 -132.452729 
L 316.894199 -120.339426 
L 308.414593 -110.540766 
L 299.934987 -103.982609 
L 291.455381 -101.59081 
L 282.975775 -104.566551 
L 274.496169 -112.725841 
L 266.016563 -124.91678 
L 257.536957 -139.987469 
L 249.057351 -156.786007 
L 240.577745 -174.160495 
L 232.098139 -190.959033 
L 223.618533 -206.029722 
L 215.138927 -218.220661 
L 206.659321 -226.379951 
L 198.179715 -229.355692 
L 189.700109 -229.338109 
L 181.220503 -229.215028 
L 172.740897 -228.88095 
L 164.261291 -228.230378 
L 155.781685 -227.157814 
L 147.302079 -225.557759 
L 138.822473 -223.324715 
L 130.342868 -220.353183 
L 121.863262 -216.537667 
L 113.383656 -211.772668 
L 104.90405 -205.952687 
z
" style="stroke: #ca0203"/>
    </defs>
    <g clip-path="url(#pcdcae51777)">
     <use xlink:href="#m7f642b1f80" x="0" y="432" style="fill: #ca0203; stroke: #ca0203"/>
    </g>
   </g>
   <g id="PolyCollection_2">
    <defs>
     <path id="med6495792d" d="M 104.90405 -211.586565 
L 104.90405 -205.952687 
L 113.383656 -205.364531 
L 121.863262 -204.882989 
L 130.342868 -204.4974 
L 138.822473 -204.197103 
L 147.302079 -203.971436 
L 155.781685 -203.809737 
L 164.261291 -203.701346 
L 172.740897 -203.6356 
L 181.220503 -203.601839 
L 189.700109 -203.589401 
L 198.179715 -203.587624 
L 206.659321 -205.908981 
L 215.138927 -212.273994 
L 223.618533 -221.784072 
L 232.098139 -233.540626 
L 240.577745 -246.645064 
L 249.057351 -260.198797 
L 257.536957 -273.303235 
L 266.016563 -285.059789 
L 274.496169 -294.569867 
L 282.975775 -300.934879 
L 291.455381 -303.256237 
L 299.934987 -302.284533 
L 308.414593 -299.566883 
L 316.894199 -295.39948 
L 325.373805 -290.078517 
L 333.853411 -283.900186 
L 342.333017 -277.160682 
L 350.812623 -270.156196 
L 359.292229 -263.182922 
L 367.771835 -256.537053 
L 376.251441 -250.514782 
L 384.731047 -245.412301 
L 393.210653 -240.632207 
L 401.690259 -235.4939 
L 410.169865 -230.168777 
L 418.649471 -224.828237 
L 427.129077 -219.643678 
L 435.608683 -214.786497 
L 444.088289 -210.428093 
L 452.567895 -206.739863 
L 461.047501 -203.893207 
L 469.527107 -202.059521 
L 478.006713 -201.410204 
L 486.486319 -201.90556 
L 494.965925 -203.263793 
L 503.445531 -205.293154 
L 511.925136 -207.801891 
L 520.404742 -210.598255 
L 528.884348 -213.490493 
L 537.363954 -216.286857 
L 545.84356 -218.795594 
L 554.323166 -220.824955 
L 562.802772 -222.183188 
L 571.282378 -222.678544 
L 579.761984 -221.296279 
L 588.24159 -217.506198 
L 596.721196 -211.84337 
L 605.200802 -204.842866 
L 613.680408 -197.039757 
L 622.160014 -188.969113 
L 630.63962 -181.166004 
L 639.119226 -174.165501 
L 647.598832 -168.502673 
L 656.078438 -164.712592 
L 664.558044 -163.330327 
L 673.03765 -165.783734 
L 681.517256 -172.510818 
L 689.996862 -182.561873 
L 698.476468 -194.987194 
L 706.956074 -208.837073 
L 715.43568 -223.161806 
L 723.915286 -237.011685 
L 732.394892 -249.437005 
L 740.874498 -259.488061 
L 749.354104 -266.215145 
L 757.83371 -268.668552 
L 766.313316 -267.514664 
L 774.792922 -264.350776 
L 783.272528 -259.623554 
L 791.752134 -253.779667 
L 800.23174 -247.265779 
L 808.711346 -240.528559 
L 817.190952 -234.014671 
L 825.670558 -228.170784 
L 834.150164 -223.443562 
L 842.62977 -220.279674 
L 851.109376 -219.125786 
L 859.588982 -219.260796 
L 868.068588 -219.700131 
L 876.548194 -220.495248 
L 885.027799 -221.697603 
L 893.507405 -223.358652 
L 901.987011 -225.529851 
L 910.466617 -228.262657 
L 918.946223 -231.608526 
L 927.425829 -235.618915 
L 935.905435 -240.34528 
L 944.385041 -245.839077 
L 944.385041 -265.557653 
L 944.385041 -265.557653 
L 935.905435 -255.268604 
L 927.425829 -246.768683 
L 918.946223 -239.887386 
L 910.466617 -234.454209 
L 901.987011 -230.298648 
L 893.507405 -227.250197 
L 885.027799 -225.138353 
L 876.548194 -223.792612 
L 868.068588 -223.042469 
L 859.588982 -222.71742 
L 851.109376 -222.64696 
L 842.62977 -225.40826 
L 834.150164 -232.979569 
L 825.670558 -244.291994 
L 817.190952 -258.276646 
L 808.711346 -273.864633 
L 800.23174 -289.987066 
L 791.752134 -305.575054 
L 783.272528 -319.559706 
L 774.792922 -330.872131 
L 766.313316 -338.443439 
L 757.83371 -341.20474 
L 749.354104 -337.619584 
L 740.874498 -327.789316 
L 732.394892 -313.101739 
L 723.915286 -294.944656 
L 715.43568 -274.705869 
L 706.956074 -253.773182 
L 698.476468 -233.534395 
L 689.996862 -215.377312 
L 681.517256 -200.689735 
L 673.03765 -190.859467 
L 664.558044 -187.274311 
L 656.078438 -188.068194 
L 647.598832 -190.256311 
L 639.119226 -193.548369 
L 630.63962 -197.654072 
L 622.160014 -202.283124 
L 613.680408 -207.145231 
L 605.200802 -211.950096 
L 596.721196 -216.407426 
L 588.24159 -220.226925 
L 579.761984 -223.118298 
L 571.282378 -224.791249 
L 562.802772 -225.651573 
L 554.323166 -226.326579 
L 545.84356 -226.85824 
L 537.363954 -227.288532 
L 528.884348 -227.659428 
L 520.404742 -228.012903 
L 511.925136 -228.390931 
L 503.445531 -228.835487 
L 494.965925 -229.388546 
L 486.486319 -230.092081 
L 478.006713 -230.988067 
L 469.527107 -232.479947 
L 461.047501 -234.883392 
L 452.567895 -238.108715 
L 444.088289 -242.066233 
L 435.608683 -246.666261 
L 427.129077 -251.819112 
L 418.649471 -257.435101 
L 410.169865 -263.424545 
L 401.690259 -269.697757 
L 393.210653 -276.165053 
L 384.731047 -282.736747 
L 376.251441 -291.009756 
L 367.771835 -302.130145 
L 359.292229 -315.331951 
L 350.812623 -329.84921 
L 342.333017 -344.91596 
L 333.853411 -359.766237 
L 325.373805 -373.634078 
L 316.894199 -385.753519 
L 308.414593 -395.358599 
L 299.934987 -401.683353 
L 291.455381 -403.961818 
L 282.975775 -399.658764 
L 274.496169 -387.850332 
L 266.016563 -370.187624 
L 257.536957 -348.321737 
L 249.057351 -323.90377 
L 240.577745 -298.584823 
L 232.098139 -274.015995 
L 223.618533 -251.848385 
L 215.138927 -233.733091 
L 206.659321 -221.321214 
L 198.179715 -216.263851 
L 189.700109 -215.469178 
L 181.220503 -214.745323 
L 172.740897 -214.09331 
L 164.261291 -213.514165 
L 155.781685 -213.008913 
L 147.302079 -212.578579 
L 138.822473 -212.224188 
L 130.342868 -211.946766 
L 121.863262 -211.747338 
L 113.383656 -211.62693 
L 104.90405 -211.586565 
z
" style="stroke: #131220"/>
    </defs>
    <g clip-path="url(#pcdcae51777)">
     <use xlink:href="#med6495792d" x="0" y="432" style="fill: #131220; stroke: #131220"/>
    </g>
   </g>
   <g id="PolyCollection_3">
    <defs>
     <path id="m0fbba5437a" d="M 104.90405 -221.151123 
L 104.90405 -211.586565 
L 113.383656 -216.005484 
L 121.863262 -219.62339 
L 130.342868 -222.520385 
L 138.822473 -224.776571 
L 147.302079 -226.472047 
L 155.781685 -227.686916 
L 164.261291 -228.501278 
L 172.740897 -228.995236 
L 181.220503 -229.24889 
L 189.700109 -229.342342 
L 198.179715 -229.355692 
L 206.659321 -227.584009 
L 215.138927 -222.726168 
L 223.618533 -215.467983 
L 232.098139 -206.495266 
L 240.577745 -196.493829 
L 249.057351 -186.149487 
L 257.536957 -176.14805 
L 266.016563 -167.175333 
L 274.496169 -159.917148 
L 282.975775 -155.059307 
L 291.455381 -153.287624 
L 299.934987 -153.654285 
L 308.414593 -154.697308 
L 316.894199 -156.331253 
L 325.373805 -158.47068 
L 333.853411 -161.03015 
L 342.333017 -163.924224 
L 350.812623 -167.067461 
L 359.292229 -170.374422 
L 367.771835 -173.759668 
L 376.251441 -177.137758 
L 384.731047 -180.423253 
L 393.210653 -184.254432 
L 401.690259 -189.128751 
L 410.169865 -194.749538 
L 418.649471 -200.820122 
L 427.129077 -207.043831 
L 435.608683 -213.123992 
L 444.088289 -218.763934 
L 452.567895 -223.666984 
L 461.047501 -227.536471 
L 469.527107 -230.075722 
L 478.006713 -230.988067 
L 486.486319 -230.867663 
L 494.965925 -230.520821 
L 503.445531 -229.969093 
L 511.925136 -229.23403 
L 520.404742 -228.337186 
L 528.884348 -227.300112 
L 537.363954 -226.144361 
L 545.84356 -224.891486 
L 554.323166 -223.563037 
L 562.802772 -222.180569 
L 571.282378 -220.765633 
L 579.761984 -219.141422 
L 588.24159 -217.13792 
L 596.721196 -214.786858 
L 605.200802 -212.119972 
L 613.680408 -209.168995 
L 622.160014 -205.96566 
L 630.63962 -202.541702 
L 639.119226 -198.928854 
L 647.598832 -195.158851 
L 656.078438 -191.263425 
L 664.558044 -187.274311 
L 673.03765 -182.42622 
L 681.517256 -176.192239 
L 689.996862 -168.961664 
L 698.476468 -161.123792 
L 706.956074 -153.067919 
L 715.43568 -145.183342 
L 723.915286 -137.859356 
L 732.394892 -131.485258 
L 740.874498 -126.450346 
L 749.354104 -123.143914 
L 757.83371 -121.95526 
L 766.313316 -124.387566 
L 774.792922 -131.056791 
L 783.272528 -141.021399 
L 791.752134 -153.339851 
L 800.23174 -167.070609 
L 808.711346 -181.272136 
L 817.190952 -195.002895 
L 825.670558 -207.321347 
L 834.150164 -217.285954 
L 842.62977 -223.95518 
L 851.109376 -226.387486 
L 859.588982 -226.376664 
L 868.068588 -226.300908 
L 876.548194 -226.095288 
L 885.027799 -225.694868 
L 893.507405 -225.034716 
L 901.987011 -224.0499 
L 910.466617 -222.675487 
L 918.946223 -220.846543 
L 927.425829 -218.498135 
L 935.905435 -215.565331 
L 944.385041 -211.983198 
L 944.385041 -227.28649 
L 944.385041 -227.28649 
L 935.905435 -228.490059 
L 927.425829 -229.475459 
L 918.946223 -230.264506 
L 910.466617 -230.879017 
L 901.987011 -231.34081 
L 893.507405 -231.6717 
L 885.027799 -231.893506 
L 876.548194 -232.028044 
L 868.068588 -232.097131 
L 859.588982 -232.122584 
L 851.109376 -232.12622 
L 842.62977 -230.005787 
L 834.150164 -224.191694 
L 825.670558 -215.504756 
L 817.190952 -204.765786 
L 808.711346 -192.795596 
L 800.23174 -180.414999 
L 791.752134 -168.444809 
L 783.272528 -157.705839 
L 774.792922 -149.018901 
L 766.313316 -143.204809 
L 757.83371 -141.084375 
L 749.354104 -143.006684 
L 740.874498 -148.27753 
L 732.394892 -156.152795 
L 723.915286 -165.888358 
L 715.43568 -176.740101 
L 706.956074 -187.963904 
L 698.476468 -198.815646 
L 689.996862 -208.55121 
L 681.517256 -216.426475 
L 673.03765 -221.697321 
L 664.558044 -223.61963 
L 656.078438 -223.597711 
L 647.598832 -223.537612 
L 639.119226 -223.447816 
L 630.63962 -223.336809 
L 622.160014 -223.213075 
L 613.680408 -223.085099 
L 605.200802 -222.961365 
L 596.721196 -222.850358 
L 588.24159 -222.760562 
L 579.761984 -222.700463 
L 571.282378 -222.678544 
L 562.802772 -223.629483 
L 554.323166 -226.236896 
L 545.84356 -230.132677 
L 537.363954 -234.948722 
L 528.884348 -240.316925 
L 520.404742 -245.869181 
L 511.925136 -251.237384 
L 503.445531 -256.053429 
L 494.965925 -259.949211 
L 486.486319 -262.556624 
L 478.006713 -263.507563 
L 469.527107 -261.750679 
L 461.047501 -256.933416 
L 452.567895 -249.735859 
L 444.088289 -240.838092 
L 435.608683 -230.920199 
L 427.129077 -220.662263 
L 418.649471 -210.74437 
L 410.169865 -201.846602 
L 401.690259 -194.649046 
L 393.210653 -189.831783 
L 384.731047 -188.074899 
L 376.251441 -188.559995 
L 367.771835 -189.921249 
L 359.292229 -192.017613 
L 350.812623 -194.708039 
L 342.333017 -197.851476 
L 333.853411 -201.306876 
L 325.373805 -204.933191 
L 316.894199 -208.589371 
L 308.414593 -212.134368 
L 299.934987 -215.427133 
L 291.455381 -218.326616 
L 282.975775 -221.179367 
L 274.496169 -224.343997 
L 266.016563 -227.697546 
L 257.536957 -231.117054 
L 249.057351 -234.479562 
L 240.577745 -237.662111 
L 232.098139 -240.541742 
L 223.618533 -242.995495 
L 215.138927 -244.900411 
L 206.659321 -246.133531 
L 198.179715 -246.571895 
L 189.700109 -246.372417 
L 181.220503 -245.769737 
L 172.740897 -244.75749 
L 164.261291 -243.329308 
L 155.781685 -241.478827 
L 147.302079 -239.199679 
L 138.822473 -236.485498 
L 130.342868 -233.329919 
L 121.863262 -229.726574 
L 113.383656 -225.669097 
L 104.90405 -221.151123 
z
" style="stroke: #ead8da"/>
    </defs>
    <g clip-path="url(#pcdcae51777)">
     <use xlink:href="#m0fbba5437a" x="0" y="432" style="fill: #ead8da; stroke: #ead8da"/>
    </g>
   </g>
   <g id="PolyCollection_4">
    <defs>
     <path id="mf773e89b22" d="M 104.90405 -237.642312 
L 104.90405 -221.151123 
L 113.383656 -225.669097 
L 121.863262 -229.726574 
L 130.342868 -233.329919 
L 138.822473 -236.485498 
L 147.302079 -239.199679 
L 155.781685 -241.478827 
L 164.261291 -243.329308 
L 172.740897 -244.75749 
L 181.220503 -245.769737 
L 189.700109 -246.372417 
L 198.179715 -246.571895 
L 206.659321 -245.914041 
L 215.138927 -244.110248 
L 223.618533 -241.415169 
L 232.098139 -238.083457 
L 240.577745 -234.369765 
L 249.057351 -230.528746 
L 257.536957 -226.815054 
L 266.016563 -223.483342 
L 274.496169 -220.788263 
L 282.975775 -218.98447 
L 291.455381 -218.326616 
L 299.934987 -218.347863 
L 308.414593 -218.410871 
L 316.894199 -218.514539 
L 325.373805 -218.657766 
L 333.853411 -218.83945 
L 342.333017 -219.058492 
L 350.812623 -219.313789 
L 359.292229 -219.604241 
L 367.771835 -219.928748 
L 376.251441 -220.286207 
L 384.731047 -220.675518 
L 393.210653 -222.007712 
L 401.690259 -224.950496 
L 410.169865 -229.137781 
L 418.649471 -234.20348 
L 427.129077 -239.781505 
L 435.608683 -245.505767 
L 444.088289 -251.010179 
L 452.567895 -255.928652 
L 461.047501 -259.895099 
L 469.527107 -262.543432 
L 478.006713 -263.507563 
L 486.486319 -262.723299 
L 494.965925 -260.5729 
L 503.445531 -257.359951 
L 511.925136 -253.388037 
L 520.404742 -248.960744 
L 528.884348 -244.381659 
L 537.363954 -239.954366 
L 545.84356 -235.982452 
L 554.323166 -232.769503 
L 562.802772 -230.619104 
L 571.282378 -229.83484 
L 579.761984 -230.571101 
L 588.24159 -232.589882 
L 596.721196 -235.606177 
L 605.200802 -239.334984 
L 613.680408 -243.491296 
L 622.160014 -247.790111 
L 630.63962 -251.946424 
L 639.119226 -255.67523 
L 647.598832 -258.691525 
L 656.078438 -260.710306 
L 664.558044 -261.446567 
L 673.03765 -260.260847 
L 681.517256 -257.00968 
L 689.996862 -252.152054 
L 698.476468 -246.146956 
L 706.956074 -239.453377 
L 715.43568 -232.530303 
L 723.915286 -225.836723 
L 732.394892 -219.831626 
L 740.874498 -214.974 
L 749.354104 -211.722832 
L 757.83371 -210.537112 
L 766.313316 -211.039939 
L 774.792922 -212.418658 
L 783.272528 -214.478625 
L 791.752134 -217.025199 
L 800.23174 -219.863737 
L 808.711346 -222.799596 
L 817.190952 -225.638134 
L 825.670558 -228.184708 
L 834.150164 -230.244675 
L 842.62977 -231.623394 
L 851.109376 -232.12622 
L 859.588982 -232.122584 
L 868.068588 -232.097131 
L 876.548194 -232.028044 
L 885.027799 -231.893506 
L 893.507405 -231.6717 
L 901.987011 -231.34081 
L 910.466617 -230.879017 
L 918.946223 -230.264506 
L 927.425829 -229.475459 
L 935.905435 -228.490059 
L 944.385041 -227.28649 
L 944.385041 -245.839077 
L 944.385041 -245.839077 
L 935.905435 -245.845341 
L 927.425829 -245.863996 
L 918.946223 -245.894839 
L 910.466617 -245.937667 
L 901.987011 -245.992279 
L 893.507405 -246.058469 
L 885.027799 -246.136036 
L 876.548194 -246.224777 
L 868.068588 -246.324488 
L 859.588982 -246.434967 
L 851.109376 -246.55601 
L 842.62977 -246.942598 
L 834.150164 -247.814223 
L 825.670558 -249.117448 
L 817.190952 -250.798838 
L 808.711346 -252.804956 
L 800.23174 -255.082367 
L 791.752134 -257.577635 
L 783.272528 -260.237323 
L 774.792922 -263.007996 
L 766.313316 -265.836218 
L 757.83371 -268.668552 
L 749.354104 -272.201228 
L 740.874498 -276.948259 
L 732.394892 -282.582887 
L 723.915286 -288.778357 
L 715.43568 -295.207909 
L 706.956074 -301.544788 
L 698.476468 -307.462235 
L 689.996862 -312.633494 
L 681.517256 -316.731807 
L 673.03765 -319.430417 
L 664.558044 -320.402566 
L 656.078438 -318.629256 
L 647.598832 -313.766954 
L 639.119226 -306.502102 
L 630.63962 -297.521143 
L 622.160014 -287.51052 
L 613.680408 -277.156676 
L 605.200802 -267.146054 
L 596.721196 -258.165095 
L 588.24159 -250.900243 
L 579.761984 -246.037941 
L 571.282378 -244.26463 
L 562.802772 -245.577021 
L 554.323166 -249.17551 
L 545.84356 -254.552076 
L 537.363954 -261.198697 
L 528.884348 -268.607351 
L 520.404742 -276.270016 
L 511.925136 -283.67867 
L 503.445531 -290.325291 
L 494.965925 -295.701858 
L 486.486319 -299.300347 
L 478.006713 -300.612737 
L 469.527107 -299.327077 
L 461.047501 -295.80188 
L 452.567895 -290.534821 
L 444.088289 -284.023575 
L 435.608683 -276.765817 
L 427.129077 -269.259221 
L 418.649471 -262.001463 
L 410.169865 -255.490217 
L 401.690259 -250.223158 
L 393.210653 -246.697961 
L 384.731047 -245.412301 
L 376.251441 -246.75953 
L 367.771835 -250.453545 
L 359.292229 -255.972839 
L 350.812623 -262.795903 
L 342.333017 -270.401229 
L 333.853411 -278.267309 
L 325.373805 -285.872635 
L 316.894199 -292.695699 
L 308.414593 -298.214992 
L 299.934987 -301.909008 
L 291.455381 -303.256237 
L 282.975775 -302.720086 
L 274.496169 -301.215029 
L 266.016563 -298.896162 
L 257.536957 -295.918581 
L 249.057351 -292.437382 
L 240.577745 -288.60766 
L 232.098139 -284.584511 
L 223.618533 -280.52303 
L 215.138927 -276.578315 
L 206.659321 -272.905459 
L 198.179715 -269.659559 
L 189.700109 -266.685063 
L 181.220503 -263.723077 
L 172.740897 -260.773687 
L 164.261291 -257.836979 
L 155.781685 -254.913039 
L 147.302079 -252.001951 
L 138.822473 -249.103803 
L 130.342868 -246.218679 
L 121.863262 -243.346665 
L 113.383656 -240.487848 
L 104.90405 -237.642312 
z
" style="stroke: #f2b202"/>
    </defs>
    <g clip-path="url(#pcdcae51777)">
     <use xlink:href="#mf773e89b22" x="0" y="432" style="fill: #f2b202; stroke: #f2b202"/>
    </g>
   </g>
   <g id="PolyCollection_5">
    <defs>
     <path id="mea06a2d22d" d="M 104.90405 -259.077576 
L 104.90405 -237.642312 
L 113.383656 -235.540286 
L 121.863262 -232.942681 
L 130.342868 -229.887299 
L 138.822473 -226.411941 
L 147.302079 -222.554409 
L 155.781685 -218.352504 
L 164.261291 -213.844028 
L 172.740897 -209.066782 
L 181.220503 -204.058567 
L 189.700109 -198.857186 
L 198.179715 -193.500441 
L 206.659321 -186.878946 
L 215.138927 -178.231309 
L 223.618533 -168.117314 
L 232.098139 -157.096749 
L 240.577745 -145.729398 
L 249.057351 -134.575048 
L 257.536957 -124.193485 
L 266.016563 -115.144493 
L 274.496169 -107.98786 
L 282.975775 -103.28337 
L 291.455381 -101.59081 
L 299.934987 -103.982609 
L 308.414593 -110.540766 
L 316.894199 -120.339426 
L 325.373805 -132.452729 
L 333.853411 -145.954818 
L 342.333017 -159.919837 
L 350.812623 -173.421926 
L 359.292229 -185.535229 
L 367.771835 -195.333889 
L 376.251441 -201.892046 
L 384.731047 -204.283845 
L 393.210653 -203.311768 
L 401.690259 -200.646397 
L 410.169865 -196.664018 
L 418.649471 -191.74092 
L 427.129077 -186.253391 
L 435.608683 -180.577717 
L 444.088289 -175.090188 
L 452.567895 -170.16709 
L 461.047501 -166.184711 
L 469.527107 -163.51934 
L 478.006713 -162.547263 
L 486.486319 -163.996973 
L 494.965925 -167.971983 
L 503.445531 -173.911116 
L 511.925136 -181.253194 
L 520.404742 -189.437039 
L 528.884348 -197.901473 
L 537.363954 -206.085318 
L 545.84356 -213.427396 
L 554.323166 -219.366529 
L 562.802772 -223.341539 
L 571.282378 -224.791249 
L 579.761984 -224.781319 
L 588.24159 -224.75163 
L 596.721196 -224.702329 
L 605.200802 -224.633564 
L 613.680408 -224.545482 
L 622.160014 -224.438232 
L 630.63962 -224.311962 
L 639.119226 -224.166818 
L 647.598832 -224.00295 
L 656.078438 -223.820504 
L 664.558044 -223.61963 
L 673.03765 -221.523734 
L 681.517256 -216.145264 
L 689.996862 -208.217923 
L 698.476468 -198.475416 
L 706.956074 -187.651447 
L 715.43568 -176.479721 
L 723.915286 -165.693941 
L 732.394892 -156.027812 
L 740.874498 -148.215039 
L 749.354104 -142.989325 
L 757.83371 -141.084375 
L 766.313316 -142.843284 
L 774.792922 -147.6661 
L 783.272528 -154.871953 
L 791.752134 -163.779977 
L 800.23174 -173.709303 
L 808.711346 -183.979062 
L 817.190952 -193.908388 
L 825.670558 -202.816412 
L 834.150164 -210.022265 
L 842.62977 -214.845081 
L 851.109376 -216.60399 
L 859.588982 -216.589713 
L 868.068588 -216.48978 
L 876.548194 -216.218532 
L 885.027799 -215.690312 
L 893.507405 -214.819463 
L 901.987011 -213.520327 
L 910.466617 -211.707248 
L 918.946223 -209.294568 
L 927.425829 -206.196629 
L 935.905435 -202.327775 
L 944.385041 -197.602347 
L 944.385041 -201.385041 
L 944.385041 -201.385041 
L 935.905435 -205.796902 
L 927.425829 -209.409029 
L 918.946223 -212.301397 
L 910.466617 -214.553978 
L 901.987011 -216.246747 
L 893.507405 -217.459675 
L 885.027799 -218.272737 
L 876.548194 -218.765906 
L 868.068588 -219.019154 
L 859.588982 -219.112457 
L 851.109376 -219.125786 
L 842.62977 -217.836753 
L 834.150164 -214.302308 
L 825.670558 -209.021431 
L 817.190952 -202.493104 
L 808.711346 -195.216306 
L 800.23174 -187.690017 
L 791.752134 -180.413219 
L 783.272528 -173.884892 
L 774.792922 -168.604015 
L 766.313316 -165.06957 
L 757.83371 -163.780537 
L 749.354104 -166.055253 
L 740.874498 -172.292378 
L 732.394892 -181.611375 
L 723.915286 -193.131711 
L 715.43568 -205.972849 
L 706.956074 -219.254255 
L 698.476468 -232.095394 
L 689.996862 -243.615729 
L 681.517256 -252.934727 
L 673.03765 -259.171851 
L 664.558044 -261.446567 
L 656.078438 -260.997582 
L 647.598832 -259.725721 
L 639.119226 -257.743621 
L 630.63962 -255.16392 
L 622.160014 -252.099258 
L 613.680408 -248.662273 
L 605.200802 -244.965602 
L 596.721196 -241.121885 
L 588.24159 -237.243761 
L 579.761984 -233.443866 
L 571.282378 -229.83484 
L 562.802772 -225.835406 
L 554.323166 -220.965036 
L 545.84356 -215.487496 
L 537.363954 -209.666548 
L 528.884348 -203.765958 
L 520.404742 -198.04949 
L 511.925136 -192.780909 
L 503.445531 -188.223978 
L 494.965925 -184.642462 
L 486.486319 -182.300125 
L 478.006713 -181.460732 
L 469.527107 -182.374074 
L 461.047501 -184.878399 
L 452.567895 -188.620156 
L 444.088289 -193.245791 
L 435.608683 -198.401755 
L 427.129077 -203.734495 
L 418.649471 -208.890458 
L 410.169865 -213.516094 
L 401.690259 -217.257851 
L 393.210653 -219.762176 
L 384.731047 -220.675518 
L 376.251441 -219.106003 
L 367.771835 -214.802493 
L 359.292229 -208.372544 
L 350.812623 -200.423709 
L 342.333017 -191.563543 
L 333.853411 -182.399599 
L 325.373805 -173.539433 
L 316.894199 -165.590598 
L 308.414593 -159.160649 
L 299.934987 -154.857139 
L 291.455381 -153.287624 
L 282.975775 -154.062698 
L 274.496169 -156.244171 
L 266.016563 -159.61642 
L 257.536957 -163.963823 
L 249.057351 -169.070757 
L 240.577745 -174.721598 
L 232.098139 -180.700724 
L 223.618533 -186.792513 
L 215.138927 -192.781341 
L 206.659321 -198.451586 
L 198.179715 -203.587624 
L 189.700109 -208.408139 
L 181.220503 -213.275182 
L 172.740897 -218.188177 
L 164.261291 -223.146551 
L 155.781685 -228.14973 
L 147.302079 -233.197141 
L 138.822473 -238.288209 
L 130.342868 -243.42236 
L 121.863262 -248.599021 
L 113.383656 -253.817618 
L 104.90405 -259.077576 
z
" style="stroke: #48c8f6"/>
    </defs>
    <g clip-path="url(#pcdcae51777)">
     <use xlink:href="#mea06a2d22d" x="0" y="432" style="fill: #48c8f6; stroke: #48c8f6"/>
    </g>
   </g>
   <g id="matplotlib.axis_1">
    <g id="xtick_1">
     <g id="line2d_1">
      <defs>
       <path id="me9f2eb9415" d="M 0 0 
L 0 3.5 
" style="stroke: #000000; stroke-width: 0.8"/>
      </defs>
      <g>
       <use xlink:href="#me9f2eb9415" x="104.90405" y="390.04" style="stroke: #000000; stroke-width: 0.8"/>
      </g>
     </g>
     <g id="text_1">
      <!-- avalanches -->
      <g transform="translate(76.595456 404.638438) scale(0.1 -0.1)">
       <defs>
        <path id="DejaVuSans-61" d="M 2194 1759 
Q 1497 1759 1228 1600 
Q 959 1441 959 1056 
Q 959 750 1161 570 
Q 1363 391 1709 391 
Q 2188 391 2477 730 
Q 2766 1069 2766 1631 
L 2766 1759 
L 2194 1759 
z
M 3341 1997 
L 3341 0 
L 2766 0 
L 2766 531 
Q 2569 213 2275 61 
Q 1981 -91 1556 -91 
Q 1019 -91 701 211 
Q 384 513 384 1019 
Q 384 1609 779 1909 
Q 1175 2209 1959 2209 
L 2766 2209 
L 2766 2266 
Q 2766 2663 2505 2880 
Q 2244 3097 1772 3097 
Q 1472 3097 1187 3025 
Q 903 2953 641 2809 
L 641 3341 
Q 956 3463 1253 3523 
Q 1550 3584 1831 3584 
Q 2591 3584 2966 3190 
Q 3341 2797 3341 1997 
z
" transform="scale(0.015625)"/>
        <path id="DejaVuSans-76" d="M 191 3500 
L 800 3500 
L 1894 563 
L 2988 3500 
L 3597 3500 
L 2284 0 
L 1503 0 
L 191 3500 
z
" transform="scale(0.015625)"/>
        <path id="DejaVuSans-6c" d="M 603 4863 
L 1178 4863 
L 1178 0 
L 603 0 
L 603 4863 
z
" transform="scale(0.015625)"/>
        <path id="DejaVuSans-6e" d="M 3513 2113 
L 3513 0 
L 2938 0 
L 2938 2094 
Q 2938 2591 2744 2837 
Q 2550 3084 2163 3084 
Q 1697 3084 1428 2787 
Q 1159 2491 1159 1978 
L 1159 0 
L 581 0 
L 581 3500 
L 1159 3500 
L 1159 2956 
Q 1366 3272 1645 3428 
Q 1925 3584 2291 3584 
Q 2894 3584 3203 3211 
Q 3513 2838 3513 2113 
z
" transform="scale(0.015625)"/>
        <path id="DejaVuSans-63" d="M 3122 3366 
L 3122 2828 
Q 2878 2963 2633 3030 
Q 2388 3097 2138 3097 
Q 1578 3097 1268 2742 
Q 959 2388 959 1747 
Q 959 1106 1268 751 
Q 1578 397 2138 397 
Q 2388 397 2633 464 
Q 2878 531 3122 666 
L 3122 134 
Q 2881 22 2623 -34 
Q 2366 -91 2075 -91 
Q 1284 -91 818 406 
Q 353 903 353 1747 
Q 353 2603 823 3093 
Q 1294 3584 2113 3584 
Q 2378 3584 2631 3529 
Q 2884 3475 3122 3366 
z
" transform="scale(0.015625)"/>
        <path id="DejaVuSans-68" d="M 3513 2113 
L 3513 0 
L 2938 0 
L 2938 2094 
Q 2938 2591 2744 2837 
Q 2550 3084 2163 3084 
Q 1697 3084 1428 2787 
Q 1159 2491 1159 1978 
L 1159 0 
L 581 0 
L 581 4863 
L 1159 4863 
L 1159 2956 
Q 1366 3272 1645 3428 
Q 1925 3584 2291 3584 
Q 2894 3584 3203 3211 
Q 3513 2838 3513 2113 
z
" transform="scale(0.015625)"/>
        <path id="DejaVuSans-65" d="M 3597 1894 
L 3597 1613 
L 953 1613 
Q 991 1019 1311 708 
Q 1631 397 2203 397 
Q 2534 397 2845 478 
Q 3156 559 3463 722 
L 3463 178 
Q 3153 47 2828 -22 
Q 2503 -91 2169 -91 
Q 1331 -91 842 396 
Q 353 884 353 1716 
Q 353 2575 817 3079 
Q 1281 3584 2069 3584 
Q 2775 3584 3186 3129 
Q 3597 2675 3597 1894 
z
M 3022 2063 
Q 3016 2534 2758 2815 
Q 2500 3097 2075 3097 
Q 1594 3097 1305 2825 
Q 1016 2553 972 2059 
L 3022 2063 
z
" transform="scale(0.015625)"/>
        <path id="DejaVuSans-73" d="M 2834 3397 
L 2834 2853 
Q 2591 2978 2328 3040 
Q 2066 3103 1784 3103 
Q 1356 3103 1142 2972 
Q 928 2841 928 2578 
Q 928 2378 1081 2264 
Q 1234 2150 1697 2047 
L 1894 2003 
Q 2506 1872 2764 1633 
Q 3022 1394 3022 966 
Q 3022 478 2636 193 
Q 2250 -91 1575 -91 
Q 1294 -91 989 -36 
Q 684 19 347 128 
L 347 722 
Q 666 556 975 473 
Q 1284 391 1588 391 
Q 1994 391 2212 530 
Q 2431 669 2431 922 
Q 2431 1156 2273 1281 
Q 2116 1406 1581 1522 
L 1381 1569 
Q 847 1681 609 1914 
Q 372 2147 372 2553 
Q 372 3047 722 3315 
Q 1072 3584 1716 3584 
Q 2034 3584 2315 3537 
Q 2597 3491 2834 3397 
z
" transform="scale(0.015625)"/>
       </defs>
       <use xlink:href="#DejaVuSans-61"/>
       <use xlink:href="#DejaVuSans-76" x="61.279297"/>
       <use xlink:href="#DejaVuSans-61" x="120.458984"/>
       <use xlink:href="#DejaVuSans-6c" x="181.738281"/>
       <use xlink:href="#DejaVuSans-61" x="209.521484"/>
       <use xlink:href="#DejaVuSans-6e" x="270.800781"/>
       <use xlink:href="#DejaVuSans-63" x="334.179688"/>
       <use xlink:href="#DejaVuSans-68" x="389.160156"/>
       <use xlink:href="#DejaVuSans-65" x="452.539062"/>
       <use xlink:href="#DejaVuSans-73" x="514.0625"/>
      </g>
     </g>
    </g>
    <g id="xtick_2">
     <g id="line2d_2">
      <g>
       <use xlink:href="#me9f2eb9415" x="198.179715" y="390.04" style="stroke: #000000; stroke-width: 0.8"/>
      </g>
     </g>
     <g id="text_2">
      <!-- broken bones -->
      <g transform="translate(164.371122 404.638438) scale(0.1 -0.1)">
       <defs>
        <path id="DejaVuSans-62" d="M 3116 1747 
Q 3116 2381 2855 2742 
Q 2594 3103 2138 3103 
Q 1681 3103 1420 2742 
Q 1159 2381 1159 1747 
Q 1159 1113 1420 752 
Q 1681 391 2138 391 
Q 2594 391 2855 752 
Q 3116 1113 3116 1747 
z
M 1159 2969 
Q 1341 3281 1617 3432 
Q 1894 3584 2278 3584 
Q 2916 3584 3314 3078 
Q 3713 2572 3713 1747 
Q 3713 922 3314 415 
Q 2916 -91 2278 -91 
Q 1894 -91 1617 61 
Q 1341 213 1159 525 
L 1159 0 
L 581 0 
L 581 4863 
L 1159 4863 
L 1159 2969 
z
" transform="scale(0.015625)"/>
        <path id="DejaVuSans-72" d="M 2631 2963 
Q 2534 3019 2420 3045 
Q 2306 3072 2169 3072 
Q 1681 3072 1420 2755 
Q 1159 2438 1159 1844 
L 1159 0 
L 581 0 
L 581 3500 
L 1159 3500 
L 1159 2956 
Q 1341 3275 1631 3429 
Q 1922 3584 2338 3584 
Q 2397 3584 2469 3576 
Q 2541 3569 2628 3553 
L 2631 2963 
z
" transform="scale(0.015625)"/>
        <path id="DejaVuSans-6f" d="M 1959 3097 
Q 1497 3097 1228 2736 
Q 959 2375 959 1747 
Q 959 1119 1226 758 
Q 1494 397 1959 397 
Q 2419 397 2687 759 
Q 2956 1122 2956 1747 
Q 2956 2369 2687 2733 
Q 2419 3097 1959 3097 
z
M 1959 3584 
Q 2709 3584 3137 3096 
Q 3566 2609 3566 1747 
Q 3566 888 3137 398 
Q 2709 -91 1959 -91 
Q 1206 -91 779 398 
Q 353 888 353 1747 
Q 353 2609 779 3096 
Q 1206 3584 1959 3584 
z
" transform="scale(0.015625)"/>
        <path id="DejaVuSans-6b" d="M 581 4863 
L 1159 4863 
L 1159 1991 
L 2875 3500 
L 3609 3500 
L 1753 1863 
L 3688 0 
L 2938 0 
L 1159 1709 
L 1159 0 
L 581 0 
L 581 4863 
z
" transform="scale(0.015625)"/>
        <path id="DejaVuSans-20" transform="scale(0.015625)"/>
       </defs>
       <use xlink:href="#DejaVuSans-62"/>
       <use xlink:href="#DejaVuSans-72" x="63.476562"/>
       <use xlink:href="#DejaVuSans-6f" x="102.339844"/>
       <use xlink:href="#DejaVuSans-6b" x="163.521484"/>
       <use xlink:href="#DejaVuSans-65" x="217.806641"/>
       <use xlink:href="#DejaVuSans-6e" x="279.330078"/>
       <use xlink:href="#DejaVuSans-20" x="342.708984"/>
       <use xlink:href="#DejaVuSans-62" x="374.496094"/>
       <use xlink:href="#DejaVuSans-6f" x="437.972656"/>
       <use xlink:href="#DejaVuSans-6e" x="499.154297"/>
       <use xlink:href="#DejaVuSans-65" x="562.533203"/>
       <use xlink:href="#DejaVuSans-73" x="624.056641"/>
      </g>
     </g>
    </g>
    <g id="xtick_3">
     <g id="line2d_3">
      <g>
       <use xlink:href="#me9f2eb9415" x="291.455381" y="390.04" style="stroke: #000000; stroke-width: 0.8"/>
      </g>
     </g>
     <g id="text_3">
      <!-- frostbite -->
      <g transform="translate(270.528037 404.638438) scale(0.1 -0.1)">
       <defs>
        <path id="DejaVuSans-66" d="M 2375 4863 
L 2375 4384 
L 1825 4384 
Q 1516 4384 1395 4259 
Q 1275 4134 1275 3809 
L 1275 3500 
L 2222 3500 
L 2222 3053 
L 1275 3053 
L 1275 0 
L 697 0 
L 697 3053 
L 147 3053 
L 147 3500 
L 697 3500 
L 697 3744 
Q 697 4328 969 4595 
Q 1241 4863 1831 4863 
L 2375 4863 
z
" transform="scale(0.015625)"/>
        <path id="DejaVuSans-74" d="M 1172 4494 
L 1172 3500 
L 2356 3500 
L 2356 3053 
L 1172 3053 
L 1172 1153 
Q 1172 725 1289 603 
Q 1406 481 1766 481 
L 2356 481 
L 2356 0 
L 1766 0 
Q 1100 0 847 248 
Q 594 497 594 1153 
L 594 3053 
L 172 3053 
L 172 3500 
L 594 3500 
L 594 4494 
L 1172 4494 
z
" transform="scale(0.015625)"/>
        <path id="DejaVuSans-69" d="M 603 3500 
L 1178 3500 
L 1178 0 
L 603 0 
L 603 3500 
z
M 603 4863 
L 1178 4863 
L 1178 4134 
L 603 4134 
L 603 4863 
z
" transform="scale(0.015625)"/>
       </defs>
       <use xlink:href="#DejaVuSans-66"/>
       <use xlink:href="#DejaVuSans-72" x="35.205078"/>
       <use xlink:href="#DejaVuSans-6f" x="74.068359"/>
       <use xlink:href="#DejaVuSans-73" x="135.25"/>
       <use xlink:href="#DejaVuSans-74" x="187.349609"/>
       <use xlink:href="#DejaVuSans-62" x="226.558594"/>
       <use xlink:href="#DejaVuSans-69" x="290.035156"/>
       <use xlink:href="#DejaVuSans-74" x="317.818359"/>
       <use xlink:href="#DejaVuSans-65" x="357.027344"/>
      </g>
     </g>
    </g>
    <g id="xtick_4">
     <g id="line2d_4">
      <g>
       <use xlink:href="#me9f2eb9415" x="384.731047" y="390.04" style="stroke: #000000; stroke-width: 0.8"/>
      </g>
     </g>
     <g id="text_4">
      <!-- high-altitude illness -->
      <g transform="translate(335.633391 404.638438) scale(0.1 -0.1)">
       <defs>
        <path id="DejaVuSans-67" d="M 2906 1791 
Q 2906 2416 2648 2759 
Q 2391 3103 1925 3103 
Q 1463 3103 1205 2759 
Q 947 2416 947 1791 
Q 947 1169 1205 825 
Q 1463 481 1925 481 
Q 2391 481 2648 825 
Q 2906 1169 2906 1791 
z
M 3481 434 
Q 3481 -459 3084 -895 
Q 2688 -1331 1869 -1331 
Q 1566 -1331 1297 -1286 
Q 1028 -1241 775 -1147 
L 775 -588 
Q 1028 -725 1275 -790 
Q 1522 -856 1778 -856 
Q 2344 -856 2625 -561 
Q 2906 -266 2906 331 
L 2906 616 
Q 2728 306 2450 153 
Q 2172 0 1784 0 
Q 1141 0 747 490 
Q 353 981 353 1791 
Q 353 2603 747 3093 
Q 1141 3584 1784 3584 
Q 2172 3584 2450 3431 
Q 2728 3278 2906 2969 
L 2906 3500 
L 3481 3500 
L 3481 434 
z
" transform="scale(0.015625)"/>
        <path id="DejaVuSans-2d" d="M 313 2009 
L 1997 2009 
L 1997 1497 
L 313 1497 
L 313 2009 
z
" transform="scale(0.015625)"/>
        <path id="DejaVuSans-75" d="M 544 1381 
L 544 3500 
L 1119 3500 
L 1119 1403 
Q 1119 906 1312 657 
Q 1506 409 1894 409 
Q 2359 409 2629 706 
Q 2900 1003 2900 1516 
L 2900 3500 
L 3475 3500 
L 3475 0 
L 2900 0 
L 2900 538 
Q 2691 219 2414 64 
Q 2138 -91 1772 -91 
Q 1169 -91 856 284 
Q 544 659 544 1381 
z
M 1991 3584 
L 1991 3584 
z
" transform="scale(0.015625)"/>
        <path id="DejaVuSans-64" d="M 2906 2969 
L 2906 4863 
L 3481 4863 
L 3481 0 
L 2906 0 
L 2906 525 
Q 2725 213 2448 61 
Q 2172 -91 1784 -91 
Q 1150 -91 751 415 
Q 353 922 353 1747 
Q 353 2572 751 3078 
Q 1150 3584 1784 3584 
Q 2172 3584 2448 3432 
Q 2725 3281 2906 2969 
z
M 947 1747 
Q 947 1113 1208 752 
Q 1469 391 1925 391 
Q 2381 391 2643 752 
Q 2906 1113 2906 1747 
Q 2906 2381 2643 2742 
Q 2381 3103 1925 3103 
Q 1469 3103 1208 2742 
Q 947 2381 947 1747 
z
" transform="scale(0.015625)"/>
       </defs>
       <use xlink:href="#DejaVuSans-68"/>
       <use xlink:href="#DejaVuSans-69" x="63.378906"/>
       <use xlink:href="#DejaVuSans-67" x="91.162109"/>
       <use xlink:href="#DejaVuSans-68" x="154.638672"/>
       <use xlink:href="#DejaVuSans-2d" x="218.017578"/>
       <use xlink:href="#DejaVuSans-61" x="254.101562"/>
       <use xlink:href="#DejaVuSans-6c" x="315.380859"/>
       <use xlink:href="#DejaVuSans-74" x="343.164062"/>
       <use xlink:href="#DejaVuSans-69" x="382.373047"/>
       <use xlink:href="#DejaVuSans-74" x="410.15625"/>
       <use xlink:href="#DejaVuSans-75" x="449.365234"/>
       <use xlink:href="#DejaVuSans-64" x="512.744141"/>
       <use xlink:href="#DejaVuSans-65" x="576.220703"/>
       <use xlink:href="#DejaVuSans-20" x="637.744141"/>
       <use xlink:href="#DejaVuSans-69" x="669.53125"/>
       <use xlink:href="#DejaVuSans-6c" x="697.314453"/>
       <use xlink:href="#DejaVuSans-6c" x="725.097656"/>
       <use xlink:href="#DejaVuSans-6e" x="752.880859"/>
       <use xlink:href="#DejaVuSans-65" x="816.259766"/>
       <use xlink:href="#DejaVuSans-73" x="877.783203"/>
       <use xlink:href="#DejaVuSans-73" x="929.882812"/>
      </g>
     </g>
    </g>
    <g id="xtick_5">
     <g id="line2d_5">
      <g>
       <use xlink:href="#me9f2eb9415" x="478.006713" y="390.04" style="stroke: #000000; stroke-width: 0.8"/>
      </g>
     </g>
     <g id="text_5">
      <!-- hypothermia -->
      <g transform="translate(446.148119 404.638438) scale(0.1 -0.1)">
       <defs>
        <path id="DejaVuSans-79" d="M 2059 -325 
Q 1816 -950 1584 -1140 
Q 1353 -1331 966 -1331 
L 506 -1331 
L 506 -850 
L 844 -850 
Q 1081 -850 1212 -737 
Q 1344 -625 1503 -206 
L 1606 56 
L 191 3500 
L 800 3500 
L 1894 763 
L 2988 3500 
L 3597 3500 
L 2059 -325 
z
" transform="scale(0.015625)"/>
        <path id="DejaVuSans-70" d="M 1159 525 
L 1159 -1331 
L 581 -1331 
L 581 3500 
L 1159 3500 
L 1159 2969 
Q 1341 3281 1617 3432 
Q 1894 3584 2278 3584 
Q 2916 3584 3314 3078 
Q 3713 2572 3713 1747 
Q 3713 922 3314 415 
Q 2916 -91 2278 -91 
Q 1894 -91 1617 61 
Q 1341 213 1159 525 
z
M 3116 1747 
Q 3116 2381 2855 2742 
Q 2594 3103 2138 3103 
Q 1681 3103 1420 2742 
Q 1159 2381 1159 1747 
Q 1159 1113 1420 752 
Q 1681 391 2138 391 
Q 2594 391 2855 752 
Q 3116 1113 3116 1747 
z
" transform="scale(0.015625)"/>
        <path id="DejaVuSans-6d" d="M 3328 2828 
Q 3544 3216 3844 3400 
Q 4144 3584 4550 3584 
Q 5097 3584 5394 3201 
Q 5691 2819 5691 2113 
L 5691 0 
L 5113 0 
L 5113 2094 
Q 5113 2597 4934 2840 
Q 4756 3084 4391 3084 
Q 3944 3084 3684 2787 
Q 3425 2491 3425 1978 
L 3425 0 
L 2847 0 
L 2847 2094 
Q 2847 2600 2669 2842 
Q 2491 3084 2119 3084 
Q 1678 3084 1418 2786 
Q 1159 2488 1159 1978 
L 1159 0 
L 581 0 
L 581 3500 
L 1159 3500 
L 1159 2956 
Q 1356 3278 1631 3431 
Q 1906 3584 2284 3584 
Q 2666 3584 2933 3390 
Q 3200 3197 3328 2828 
z
" transform="scale(0.015625)"/>
       </defs>
       <use xlink:href="#DejaVuSans-68"/>
       <use xlink:href="#DejaVuSans-79" x="63.378906"/>
       <use xlink:href="#DejaVuSans-70" x="122.558594"/>
       <use xlink:href="#DejaVuSans-6f" x="186.035156"/>
       <use xlink:href="#DejaVuSans-74" x="247.216797"/>
       <use xlink:href="#DejaVuSans-68" x="286.425781"/>
       <use xlink:href="#DejaVuSans-65" x="349.804688"/>
       <use xlink:href="#DejaVuSans-72" x="411.328125"/>
       <use xlink:href="#DejaVuSans-6d" x="450.691406"/>
       <use xlink:href="#DejaVuSans-69" x="548.103516"/>
       <use xlink:href="#DejaVuSans-61" x="575.886719"/>
      </g>
     </g>
    </g>
    <g id="xtick_6">
     <g id="line2d_6">
      <g>
       <use xlink:href="#me9f2eb9415" x="571.282378" y="390.04" style="stroke: #000000; stroke-width: 0.8"/>
      </g>
     </g>
     <g id="text_6">
      <!-- icefall -->
      <g transform="translate(556.465191 404.638438) scale(0.1 -0.1)">
       <use xlink:href="#DejaVuSans-69"/>
       <use xlink:href="#DejaVuSans-63" x="27.783203"/>
       <use xlink:href="#DejaVuSans-65" x="82.763672"/>
       <use xlink:href="#DejaVuSans-66" x="144.287109"/>
       <use xlink:href="#DejaVuSans-61" x="179.492188"/>
       <use xlink:href="#DejaVuSans-6c" x="240.771484"/>
       <use xlink:href="#DejaVuSans-6c" x="268.554688"/>
      </g>
     </g>
    </g>
    <g id="xtick_7">
     <g id="line2d_7">
      <g>
       <use xlink:href="#me9f2eb9415" x="664.558044" y="390.04" style="stroke: #000000; stroke-width: 0.8"/>
      </g>
     </g>
     <g id="text_7">
      <!-- people falling -->
      <g transform="translate(630.684607 404.638438) scale(0.1 -0.1)">
       <use xlink:href="#DejaVuSans-70"/>
       <use xlink:href="#DejaVuSans-65" x="63.476562"/>
       <use xlink:href="#DejaVuSans-6f" x="125"/>
       <use xlink:href="#DejaVuSans-70" x="186.181641"/>
       <use xlink:href="#DejaVuSans-6c" x="249.658203"/>
       <use xlink:href="#DejaVuSans-65" x="277.441406"/>
       <use xlink:href="#DejaVuSans-20" x="338.964844"/>
       <use xlink:href="#DejaVuSans-66" x="370.751953"/>
       <use xlink:href="#DejaVuSans-61" x="405.957031"/>
       <use xlink:href="#DejaVuSans-6c" x="467.236328"/>
       <use xlink:href="#DejaVuSans-6c" x="495.019531"/>
       <use xlink:href="#DejaVuSans-69" x="522.802734"/>
       <use xlink:href="#DejaVuSans-6e" x="550.585938"/>
       <use xlink:href="#DejaVuSans-67" x="613.964844"/>
      </g>
     </g>
    </g>
    <g id="xtick_8">
     <g id="line2d_8">
      <g>
       <use xlink:href="#me9f2eb9415" x="757.83371" y="390.04" style="stroke: #000000; stroke-width: 0.8"/>
      </g>
     </g>
     <g id="text_8">
      <!-- respiratory problems -->
      <g transform="translate(705.611835 404.638438) scale(0.1 -0.1)">
       <use xlink:href="#DejaVuSans-72"/>
       <use xlink:href="#DejaVuSans-65" x="38.863281"/>
       <use xlink:href="#DejaVuSans-73" x="100.386719"/>
       <use xlink:href="#DejaVuSans-70" x="152.486328"/>
       <use xlink:href="#DejaVuSans-69" x="215.962891"/>
       <use xlink:href="#DejaVuSans-72" x="243.746094"/>
       <use xlink:href="#DejaVuSans-61" x="284.859375"/>
       <use xlink:href="#DejaVuSans-74" x="346.138672"/>
       <use xlink:href="#DejaVuSans-6f" x="385.347656"/>
       <use xlink:href="#DejaVuSans-72" x="446.529297"/>
       <use xlink:href="#DejaVuSans-79" x="487.642578"/>
       <use xlink:href="#DejaVuSans-20" x="546.822266"/>
       <use xlink:href="#DejaVuSans-70" x="578.609375"/>
       <use xlink:href="#DejaVuSans-72" x="642.085938"/>
       <use xlink:href="#DejaVuSans-6f" x="680.949219"/>
       <use xlink:href="#DejaVuSans-62" x="742.130859"/>
       <use xlink:href="#DejaVuSans-6c" x="805.607422"/>
       <use xlink:href="#DejaVuSans-65" x="833.390625"/>
       <use xlink:href="#DejaVuSans-6d" x="894.914062"/>
       <use xlink:href="#DejaVuSans-73" x="992.326172"/>
      </g>
     </g>
    </g>
    <g id="xtick_9">
     <g id="line2d_9">
      <g>
       <use xlink:href="#me9f2eb9415" x="851.109376" y="390.04" style="stroke: #000000; stroke-width: 0.8"/>
      </g>
     </g>
     <g id="text_9">
      <!-- snowfall -->
      <g transform="translate(830.585157 404.638438) scale(0.1 -0.1)">
       <defs>
        <path id="DejaVuSans-77" d="M 269 3500 
L 844 3500 
L 1563 769 
L 2278 3500 
L 2956 3500 
L 3675 769 
L 4391 3500 
L 4966 3500 
L 4050 0 
L 3372 0 
L 2619 2869 
L 1863 0 
L 1184 0 
L 269 3500 
z
" transform="scale(0.015625)"/>
       </defs>
       <use xlink:href="#DejaVuSans-73"/>
       <use xlink:href="#DejaVuSans-6e" x="52.099609"/>
       <use xlink:href="#DejaVuSans-6f" x="115.478516"/>
       <use xlink:href="#DejaVuSans-77" x="176.660156"/>
       <use xlink:href="#DejaVuSans-66" x="258.447266"/>
       <use xlink:href="#DejaVuSans-61" x="293.652344"/>
       <use xlink:href="#DejaVuSans-6c" x="354.931641"/>
       <use xlink:href="#DejaVuSans-6c" x="382.714844"/>
      </g>
     </g>
    </g>
    <g id="xtick_10">
     <g id="line2d_10">
      <g>
       <use xlink:href="#me9f2eb9415" x="944.385041" y="390.04" style="stroke: #000000; stroke-width: 0.8"/>
      </g>
     </g>
     <g id="text_10">
      <!-- stomach problems -->
      <g transform="translate(898.02801 404.638438) scale(0.1 -0.1)">
       <use xlink:href="#DejaVuSans-73"/>
       <use xlink:href="#DejaVuSans-74" x="52.099609"/>
       <use xlink:href="#DejaVuSans-6f" x="91.308594"/>
       <use xlink:href="#DejaVuSans-6d" x="152.490234"/>
       <use xlink:href="#DejaVuSans-61" x="249.902344"/>
       <use xlink:href="#DejaVuSans-63" x="311.181641"/>
       <use xlink:href="#DejaVuSans-68" x="366.162109"/>
       <use xlink:href="#DejaVuSans-20" x="429.541016"/>
       <use xlink:href="#DejaVuSans-70" x="461.328125"/>
       <use xlink:href="#DejaVuSans-72" x="524.804688"/>
       <use xlink:href="#DejaVuSans-6f" x="563.667969"/>
       <use xlink:href="#DejaVuSans-62" x="624.849609"/>
       <use xlink:href="#DejaVuSans-6c" x="688.326172"/>
       <use xlink:href="#DejaVuSans-65" x="716.109375"/>
       <use xlink:href="#DejaVuSans-6d" x="777.632812"/>
       <use xlink:href="#DejaVuSans-73" x="875.044922"/>
      </g>
     </g>
    </g>
    <g id="text_11">
     <!-- new_tag -->
     <g transform="translate(503.611733 418.038437) scale(0.1 -0.1)">
      <defs>
       <path id="DejaVuSans-5f" d="M 3263 -1063 
L 3263 -1509 
L -63 -1509 
L -63 -1063 
L 3263 -1063 
z
" transform="scale(0.015625)"/>
      </defs>
      <use xlink:href="#DejaVuSans-6e"/>
      <use xlink:href="#DejaVuSans-65" x="63.378906"/>
      <use xlink:href="#DejaVuSans-77" x="124.902344"/>
      <use xlink:href="#DejaVuSans-5f" x="206.689453"/>
      <use xlink:href="#DejaVuSans-74" x="256.689453"/>
      <use xlink:href="#DejaVuSans-61" x="295.898438"/>
      <use xlink:href="#DejaVuSans-67" x="357.177734"/>
     </g>
    </g>
   </g>
   <g id="matplotlib.axis_2">
    <g id="ytick_1">
     <g id="line2d_11">
      <defs>
       <path id="m8cfb2dddb3" d="M 0 0 
L -3.5 0 
" style="stroke: #000000; stroke-width: 0.8"/>
      </defs>
      <g>
       <use xlink:href="#m8cfb2dddb3" x="62.93" y="343.027554" style="stroke: #000000; stroke-width: 0.8"/>
      </g>
     </g>
     <g id="text_12">
      <!-- −0.15 -->
      <g transform="translate(25.284687 346.826772) scale(0.1 -0.1)">
       <defs>
        <path id="DejaVuSans-2212" d="M 678 2272 
L 4684 2272 
L 4684 1741 
L 678 1741 
L 678 2272 
z
" transform="scale(0.015625)"/>
        <path id="DejaVuSans-30" d="M 2034 4250 
Q 1547 4250 1301 3770 
Q 1056 3291 1056 2328 
Q 1056 1369 1301 889 
Q 1547 409 2034 409 
Q 2525 409 2770 889 
Q 3016 1369 3016 2328 
Q 3016 3291 2770 3770 
Q 2525 4250 2034 4250 
z
M 2034 4750 
Q 2819 4750 3233 4129 
Q 3647 3509 3647 2328 
Q 3647 1150 3233 529 
Q 2819 -91 2034 -91 
Q 1250 -91 836 529 
Q 422 1150 422 2328 
Q 422 3509 836 4129 
Q 1250 4750 2034 4750 
z
" transform="scale(0.015625)"/>
        <path id="DejaVuSans-2e" d="M 684 794 
L 1344 794 
L 1344 0 
L 684 0 
L 684 794 
z
" transform="scale(0.015625)"/>
        <path id="DejaVuSans-31" d="M 794 531 
L 1825 531 
L 1825 4091 
L 703 3866 
L 703 4441 
L 1819 4666 
L 2450 4666 
L 2450 531 
L 3481 531 
L 3481 0 
L 794 0 
L 794 531 
z
" transform="scale(0.015625)"/>
        <path id="DejaVuSans-35" d="M 691 4666 
L 3169 4666 
L 3169 4134 
L 1269 4134 
L 1269 2991 
Q 1406 3038 1543 3061 
Q 1681 3084 1819 3084 
Q 2600 3084 3056 2656 
Q 3513 2228 3513 1497 
Q 3513 744 3044 326 
Q 2575 -91 1722 -91 
Q 1428 -91 1123 -41 
Q 819 9 494 109 
L 494 744 
Q 775 591 1075 516 
Q 1375 441 1709 441 
Q 2250 441 2565 725 
Q 2881 1009 2881 1497 
Q 2881 1984 2565 2268 
Q 2250 2553 1709 2553 
Q 1456 2553 1204 2497 
Q 953 2441 691 2322 
L 691 4666 
z
" transform="scale(0.015625)"/>
       </defs>
       <use xlink:href="#DejaVuSans-2212"/>
       <use xlink:href="#DejaVuSans-30" x="83.789062"/>
       <use xlink:href="#DejaVuSans-2e" x="147.412109"/>
       <use xlink:href="#DejaVuSans-31" x="179.199219"/>
       <use xlink:href="#DejaVuSans-35" x="242.822266"/>
      </g>
     </g>
    </g>
    <g id="ytick_2">
     <g id="line2d_12">
      <g>
       <use xlink:href="#m8cfb2dddb3" x="62.93" y="295.491702" style="stroke: #000000; stroke-width: 0.8"/>
      </g>
     </g>
     <g id="text_13">
      <!-- −0.10 -->
      <g transform="translate(25.284687 299.290921) scale(0.1 -0.1)">
       <use xlink:href="#DejaVuSans-2212"/>
       <use xlink:href="#DejaVuSans-30" x="83.789062"/>
       <use xlink:href="#DejaVuSans-2e" x="147.412109"/>
       <use xlink:href="#DejaVuSans-31" x="179.199219"/>
       <use xlink:href="#DejaVuSans-30" x="242.822266"/>
      </g>
     </g>
    </g>
    <g id="ytick_3">
     <g id="line2d_13">
      <g>
       <use xlink:href="#m8cfb2dddb3" x="62.93" y="247.955851" style="stroke: #000000; stroke-width: 0.8"/>
      </g>
     </g>
     <g id="text_14">
      <!-- −0.05 -->
      <g transform="translate(25.284687 251.75507) scale(0.1 -0.1)">
       <use xlink:href="#DejaVuSans-2212"/>
       <use xlink:href="#DejaVuSans-30" x="83.789062"/>
       <use xlink:href="#DejaVuSans-2e" x="147.412109"/>
       <use xlink:href="#DejaVuSans-30" x="179.199219"/>
       <use xlink:href="#DejaVuSans-35" x="242.822266"/>
      </g>
     </g>
    </g>
    <g id="ytick_4">
     <g id="line2d_14">
      <g>
       <use xlink:href="#m8cfb2dddb3" x="62.93" y="200.42" style="stroke: #000000; stroke-width: 0.8"/>
      </g>
     </g>
     <g id="text_15">
      <!-- 0.00 -->
      <g transform="translate(33.664375 204.219219) scale(0.1 -0.1)">
       <use xlink:href="#DejaVuSans-30"/>
       <use xlink:href="#DejaVuSans-2e" x="63.623047"/>
       <use xlink:href="#DejaVuSans-30" x="95.410156"/>
       <use xlink:href="#DejaVuSans-30" x="159.033203"/>
      </g>
     </g>
    </g>
    <g id="ytick_5">
     <g id="line2d_15">
      <g>
       <use xlink:href="#m8cfb2dddb3" x="62.93" y="152.884149" style="stroke: #000000; stroke-width: 0.8"/>
      </g>
     </g>
     <g id="text_16">
      <!-- 0.05 -->
      <g transform="translate(33.664375 156.683368) scale(0.1 -0.1)">
       <use xlink:href="#DejaVuSans-30"/>
       <use xlink:href="#DejaVuSans-2e" x="63.623047"/>
       <use xlink:href="#DejaVuSans-30" x="95.410156"/>
       <use xlink:href="#DejaVuSans-35" x="159.033203"/>
      </g>
     </g>
    </g>
    <g id="ytick_6">
     <g id="line2d_16">
      <g>
       <use xlink:href="#m8cfb2dddb3" x="62.93" y="105.348298" style="stroke: #000000; stroke-width: 0.8"/>
      </g>
     </g>
     <g id="text_17">
      <!-- 0.10 -->
      <g transform="translate(33.664375 109.147516) scale(0.1 -0.1)">
       <use xlink:href="#DejaVuSans-30"/>
       <use xlink:href="#DejaVuSans-2e" x="63.623047"/>
       <use xlink:href="#DejaVuSans-31" x="95.410156"/>
       <use xlink:href="#DejaVuSans-30" x="159.033203"/>
      </g>
     </g>
    </g>
    <g id="ytick_7">
     <g id="line2d_17">
      <g>
       <use xlink:href="#m8cfb2dddb3" x="62.93" y="57.812446" style="stroke: #000000; stroke-width: 0.8"/>
      </g>
     </g>
     <g id="text_18">
      <!-- 0.15 -->
      <g transform="translate(33.664375 61.611665) scale(0.1 -0.1)">
       <use xlink:href="#DejaVuSans-30"/>
       <use xlink:href="#DejaVuSans-2e" x="63.623047"/>
       <use xlink:href="#DejaVuSans-31" x="95.410156"/>
       <use xlink:href="#DejaVuSans-35" x="159.033203"/>
      </g>
     </g>
    </g>
    <g id="text_19">
     <!-- count_frac -->
     <g transform="translate(18.926875 226.655156) rotate(-90) scale(0.1 -0.1)">
      <use xlink:href="#DejaVuSans-63"/>
      <use xlink:href="#DejaVuSans-6f" x="54.980469"/>
      <use xlink:href="#DejaVuSans-75" x="116.162109"/>
      <use xlink:href="#DejaVuSans-6e" x="179.541016"/>
      <use xlink:href="#DejaVuSans-74" x="242.919922"/>
      <use xlink:href="#DejaVuSans-5f" x="282.128906"/>
      <use xlink:href="#DejaVuSans-66" x="332.128906"/>
      <use xlink:href="#DejaVuSans-72" x="367.333984"/>
      <use xlink:href="#DejaVuSans-61" x="408.447266"/>
      <use xlink:href="#DejaVuSans-63" x="469.726562"/>
     </g>
    </g>
   </g>
   <g id="patch_3">
    <path d="M 62.93 390.04 
L 62.93 10.8 
" style="fill: none; stroke: #000000; stroke-width: 0.8; stroke-linejoin: miter; stroke-linecap: square"/>
   </g>
   <g id="patch_4">
    <path d="M 986.359091 390.04 
L 986.359091 10.8 
" style="fill: none; stroke: #000000; stroke-width: 0.8; stroke-linejoin: miter; stroke-linecap: square"/>
   </g>
   <g id="patch_5">
    <path d="M 62.93 390.04 
L 986.359091 390.04 
" style="fill: none; stroke: #000000; stroke-width: 0.8; stroke-linejoin: miter; stroke-linecap: square"/>
   </g>
   <g id="patch_6">
    <path d="M 62.93 10.8 
L 986.359091 10.8 
" style="fill: none; stroke: #000000; stroke-width: 0.8; stroke-linejoin: miter; stroke-linecap: square"/>
   </g>
   <g id="legend_1">
    <g id="patch_7">
     <path d="M 917.349716 92.190625 
L 979.359091 92.190625 
Q 981.359091 92.190625 981.359091 90.190625 
L 981.359091 17.8 
Q 981.359091 15.8 979.359091 15.8 
L 917.349716 15.8 
Q 915.349716 15.8 915.349716 17.8 
L 915.349716 90.190625 
Q 915.349716 92.190625 917.349716 92.190625 
z
" style="fill: #ffffff; opacity: 0.8; stroke: #cccccc; stroke-linejoin: miter"/>
    </g>
    <g id="patch_8">
     <path d="M 919.349716 27.398438 
L 939.349716 27.398438 
L 939.349716 20.398438 
L 919.349716 20.398438 
z
" style="fill: #ca0203; stroke: #ca0203; stroke-linejoin: miter"/>
    </g>
    <g id="text_20">
     <!-- AMAD -->
     <g transform="translate(947.349716 27.398438) scale(0.1 -0.1)">
      <defs>
       <path id="DejaVuSans-41" d="M 2188 4044 
L 1331 1722 
L 3047 1722 
L 2188 4044 
z
M 1831 4666 
L 2547 4666 
L 4325 0 
L 3669 0 
L 3244 1197 
L 1141 1197 
L 716 0 
L 50 0 
L 1831 4666 
z
" transform="scale(0.015625)"/>
       <path id="DejaVuSans-4d" d="M 628 4666 
L 1569 4666 
L 2759 1491 
L 3956 4666 
L 4897 4666 
L 4897 0 
L 4281 0 
L 4281 4097 
L 3078 897 
L 2444 897 
L 1241 4097 
L 1241 0 
L 628 0 
L 628 4666 
z
" transform="scale(0.015625)"/>
       <path id="DejaVuSans-44" d="M 1259 4147 
L 1259 519 
L 2022 519 
Q 2988 519 3436 956 
Q 3884 1394 3884 2338 
Q 3884 3275 3436 3711 
Q 2988 4147 2022 4147 
L 1259 4147 
z
M 628 4666 
L 1925 4666 
Q 3281 4666 3915 4102 
Q 4550 3538 4550 2338 
Q 4550 1131 3912 565 
Q 3275 0 1925 0 
L 628 0 
L 628 4666 
z
" transform="scale(0.015625)"/>
      </defs>
      <use xlink:href="#DejaVuSans-41"/>
      <use xlink:href="#DejaVuSans-4d" x="68.408203"/>
      <use xlink:href="#DejaVuSans-41" x="154.6875"/>
      <use xlink:href="#DejaVuSans-44" x="223.095703"/>
     </g>
    </g>
    <g id="patch_9">
     <path d="M 919.349716 42.076563 
L 939.349716 42.076563 
L 939.349716 35.076563 
L 919.349716 35.076563 
z
" style="fill: #131220; stroke: #131220; stroke-linejoin: miter"/>
    </g>
    <g id="text_21">
     <!-- CHOY -->
     <g transform="translate(947.349716 42.076563) scale(0.1 -0.1)">
      <defs>
       <path id="DejaVuSans-43" d="M 4122 4306 
L 4122 3641 
Q 3803 3938 3442 4084 
Q 3081 4231 2675 4231 
Q 1875 4231 1450 3742 
Q 1025 3253 1025 2328 
Q 1025 1406 1450 917 
Q 1875 428 2675 428 
Q 3081 428 3442 575 
Q 3803 722 4122 1019 
L 4122 359 
Q 3791 134 3420 21 
Q 3050 -91 2638 -91 
Q 1578 -91 968 557 
Q 359 1206 359 2328 
Q 359 3453 968 4101 
Q 1578 4750 2638 4750 
Q 3056 4750 3426 4639 
Q 3797 4528 4122 4306 
z
" transform="scale(0.015625)"/>
       <path id="DejaVuSans-48" d="M 628 4666 
L 1259 4666 
L 1259 2753 
L 3553 2753 
L 3553 4666 
L 4184 4666 
L 4184 0 
L 3553 0 
L 3553 2222 
L 1259 2222 
L 1259 0 
L 628 0 
L 628 4666 
z
" transform="scale(0.015625)"/>
       <path id="DejaVuSans-4f" d="M 2522 4238 
Q 1834 4238 1429 3725 
Q 1025 3213 1025 2328 
Q 1025 1447 1429 934 
Q 1834 422 2522 422 
Q 3209 422 3611 934 
Q 4013 1447 4013 2328 
Q 4013 3213 3611 3725 
Q 3209 4238 2522 4238 
z
M 2522 4750 
Q 3503 4750 4090 4092 
Q 4678 3434 4678 2328 
Q 4678 1225 4090 567 
Q 3503 -91 2522 -91 
Q 1538 -91 948 565 
Q 359 1222 359 2328 
Q 359 3434 948 4092 
Q 1538 4750 2522 4750 
z
" transform="scale(0.015625)"/>
       <path id="DejaVuSans-59" d="M -13 4666 
L 666 4666 
L 1959 2747 
L 3244 4666 
L 3922 4666 
L 2272 2222 
L 2272 0 
L 1638 0 
L 1638 2222 
L -13 4666 
z
" transform="scale(0.015625)"/>
      </defs>
      <use xlink:href="#DejaVuSans-43"/>
      <use xlink:href="#DejaVuSans-48" x="69.824219"/>
      <use xlink:href="#DejaVuSans-4f" x="145.019531"/>
      <use xlink:href="#DejaVuSans-59" x="218.230469"/>
     </g>
    </g>
    <g id="patch_10">
     <path d="M 919.349716 56.754687 
L 939.349716 56.754687 
L 939.349716 49.754687 
L 919.349716 49.754687 
z
" style="fill: #ead8da; stroke: #ead8da; stroke-linejoin: miter"/>
    </g>
    <g id="text_22">
     <!-- LHOT -->
     <g transform="translate(947.349716 56.754687) scale(0.1 -0.1)">
      <defs>
       <path id="DejaVuSans-4c" d="M 628 4666 
L 1259 4666 
L 1259 531 
L 3531 531 
L 3531 0 
L 628 0 
L 628 4666 
z
" transform="scale(0.015625)"/>
       <path id="DejaVuSans-54" d="M -19 4666 
L 3928 4666 
L 3928 4134 
L 2272 4134 
L 2272 0 
L 1638 0 
L 1638 4134 
L -19 4134 
L -19 4666 
z
" transform="scale(0.015625)"/>
      </defs>
      <use xlink:href="#DejaVuSans-4c"/>
      <use xlink:href="#DejaVuSans-48" x="55.712891"/>
      <use xlink:href="#DejaVuSans-4f" x="130.908203"/>
      <use xlink:href="#DejaVuSans-54" x="209.619141"/>
     </g>
    </g>
    <g id="patch_11">
     <path d="M 919.349716 71.432813 
L 939.349716 71.432813 
L 939.349716 64.432813 
L 919.349716 64.432813 
z
" style="fill: #f2b202; stroke: #f2b202; stroke-linejoin: miter"/>
    </g>
    <g id="text_23">
     <!-- EVER -->
     <g transform="translate(947.349716 71.432813) scale(0.1 -0.1)">
      <defs>
       <path id="DejaVuSans-45" d="M 628 4666 
L 3578 4666 
L 3578 4134 
L 1259 4134 
L 1259 2753 
L 3481 2753 
L 3481 2222 
L 1259 2222 
L 1259 531 
L 3634 531 
L 3634 0 
L 628 0 
L 628 4666 
z
" transform="scale(0.015625)"/>
       <path id="DejaVuSans-56" d="M 1831 0 
L 50 4666 
L 709 4666 
L 2188 738 
L 3669 4666 
L 4325 4666 
L 2547 0 
L 1831 0 
z
" transform="scale(0.015625)"/>
       <path id="DejaVuSans-52" d="M 2841 2188 
Q 3044 2119 3236 1894 
Q 3428 1669 3622 1275 
L 4263 0 
L 3584 0 
L 2988 1197 
Q 2756 1666 2539 1819 
Q 2322 1972 1947 1972 
L 1259 1972 
L 1259 0 
L 628 0 
L 628 4666 
L 2053 4666 
Q 2853 4666 3247 4331 
Q 3641 3997 3641 3322 
Q 3641 2881 3436 2590 
Q 3231 2300 2841 2188 
z
M 1259 4147 
L 1259 2491 
L 2053 2491 
Q 2509 2491 2742 2702 
Q 2975 2913 2975 3322 
Q 2975 3731 2742 3939 
Q 2509 4147 2053 4147 
L 1259 4147 
z
" transform="scale(0.015625)"/>
      </defs>
      <use xlink:href="#DejaVuSans-45"/>
      <use xlink:href="#DejaVuSans-56" x="63.183594"/>
      <use xlink:href="#DejaVuSans-45" x="131.591797"/>
      <use xlink:href="#DejaVuSans-52" x="194.775391"/>
     </g>
    </g>
    <g id="patch_12">
     <path d="M 919.349716 86.110937 
L 939.349716 86.110937 
L 939.349716 79.110937 
L 919.349716 79.110937 
z
" style="fill: #48c8f6; stroke: #48c8f6; stroke-linejoin: miter"/>
    </g>
    <g id="text_24">
     <!-- MANA -->
     <g transform="translate(947.349716 86.110937) scale(0.1 -0.1)">
      <defs>
       <path id="DejaVuSans-4e" d="M 628 4666 
L 1478 4666 
L 3547 763 
L 3547 4666 
L 4159 4666 
L 4159 0 
L 3309 0 
L 1241 3903 
L 1241 0 
L 628 0 
L 628 4666 
z
" transform="scale(0.015625)"/>
      </defs>
      <use xlink:href="#DejaVuSans-4d"/>
      <use xlink:href="#DejaVuSans-41" x="86.279297"/>
      <use xlink:href="#DejaVuSans-4e" x="154.6875"/>
      <use xlink:href="#DejaVuSans-41" x="229.492188"/>
     </g>
    </g>
   </g>
  </g>
 </g>
 <defs>
  <clipPath id="pcdcae51777">
   <rect x="62.93" y="10.8" width="923.429091" height="379.24"/>
  </clipPath>
 </defs>
</svg>
